<svg width="1920" height="1100" viewBox="0 0 1920 1100" fill="none" xmlns="http://www.w3.org/2000/svg">
<rect width="1920" height="1080" transform="translate(0 11)" fill="#840404"/>
<path d="M66.279 178.74L60.115 178.137C60.115 183.296 59.177 189.326 57.971 194.619C56.162 202.86 50.802 220.749 43.164 230.933L48.591 233.144C56.162 220.883 60.986 204.2 63.264 194.82C64.135 190.666 65.073 185.172 65.475 182.76C65.743 181.42 66.011 180.013 66.279 178.74ZM89.394 185.909L84.503 188.12C89.193 193.614 94.419 205.473 96.429 212.374L101.588 209.895C99.377 203.664 93.548 191.336 89.394 185.909ZM42.159 193.48L42.762 199.242C44.437 198.974 47.251 198.639 48.792 198.438C52.879 198.036 65.408 196.562 69.897 196.562C74.185 196.562 76.999 197.701 76.999 203.798C76.999 211.034 75.994 219.811 73.85 224.3C72.443 227.248 70.433 227.784 67.954 227.784C66.078 227.784 62.594 227.248 59.78 226.377L60.651 232.005C62.795 232.474 65.944 232.943 68.557 232.943C72.845 232.943 76.195 231.871 78.339 227.382C81.086 221.821 82.158 211.168 82.158 203.195C82.158 194.083 77.267 191.805 71.304 191.805C66.748 191.805 53.147 193.346 48.189 193.48C46.045 193.547 44.303 193.547 42.159 193.48ZM51.941 261.889L52.142 267.383C53.75 267.182 55.693 266.981 57.167 266.914C60.182 266.78 68.356 266.378 71.036 266.311C68.758 271.068 65.743 277.969 63.063 283.798C60.517 289.426 57.502 297.198 54.755 300.816C53.348 302.625 52.209 303.161 50.668 303.161C48.591 303.161 46.648 301.62 46.648 298.605C46.648 292.441 53.013 286.21 64.135 286.21C77.937 286.21 90.198 293.647 98.037 300.414L100.516 294.719C93.28 289.56 80.014 281.52 64.939 281.52C51.338 281.52 41.824 289.225 41.824 299.342C41.824 304.903 45.509 308.521 50.467 308.521C53.951 308.521 56.564 307.248 58.909 303.831C61.79 299.677 65.475 290.565 68.155 284.669C71.237 277.768 74.922 269.192 77.066 265.708C77.602 264.837 78.138 264.167 78.808 263.43L75.458 260.75C74.52 261.085 73.381 261.353 72.108 261.42C69.294 261.688 60.517 262.09 56.966 262.09C55.559 262.09 53.616 262.023 51.941 261.889ZM93.816 276.562L88.322 275.959C88.523 277.902 88.456 280.18 88.322 282.19C87.585 292.106 84.704 304.769 68.959 311.402L73.381 315.087C88.992 307.248 92.878 295.657 93.816 276.562ZM75.324 337.869H69.629C69.83 338.74 69.897 340.75 69.897 341.889C69.897 346.579 69.897 353.614 69.897 359.644C69.897 365.54 70.567 378.404 70.567 383.563C70.567 388.253 67.284 389.392 63.398 389.392C56.765 389.392 54.152 387.114 54.152 383.965C54.152 380.883 57.569 378.404 64.001 378.404C75.927 378.404 85.843 385.104 91.873 390.665L94.955 385.908C89.796 381.687 78.741 374.049 64.604 374.049C54.956 374.049 49.127 378.136 49.127 384.233C49.127 390.732 54.42 394.149 64.068 394.149C72.778 394.149 75.86 389.392 75.86 384.702C75.86 380.213 74.855 368.488 74.855 359.644C74.855 354.016 74.855 345.038 74.989 342.358C75.056 340.348 75.19 339.008 75.324 337.869ZM49.73 345.105L49.797 350.063C54.018 350.599 62.259 351.202 66.882 351.202C75.86 351.202 85.441 350.331 93.012 349.46V344.569C84.302 345.976 75.324 346.579 66.815 346.579C62.393 346.579 54.018 345.909 49.73 345.105ZM49.395 359.376L49.462 364.401C54.219 364.937 61.589 365.272 66.212 365.272C76.262 365.272 84.436 364.803 93.548 363.664V358.639C84.838 359.912 75.927 360.582 66.212 360.582C61.79 360.582 54.152 360.113 49.395 359.376ZM59.78 418.807H52.946C53.348 420.75 53.549 423.095 53.549 425.574C53.549 432.609 52.879 449.56 52.879 459.476C52.879 470.464 59.512 474.417 69.16 474.417C83.833 474.417 92.543 466.042 97.099 459.677L93.347 455.121C88.523 462.089 81.555 468.923 69.294 468.923C62.929 468.923 58.306 466.377 58.306 459.007C58.306 449.024 58.842 433.145 59.11 425.574C59.244 423.363 59.445 421.018 59.78 418.807ZM66.614 498.338L60.249 497.802C60.383 499.209 60.249 501.487 59.981 503.363C59.512 506.847 57.77 515.289 56.162 521.453C53.616 530.9 48.926 544.501 44.906 551.469L50.735 553.412C54.286 546.109 58.775 532.24 61.187 522.726C63.063 516.026 64.47 508.455 65.475 503.631C65.743 502.358 66.212 499.812 66.614 498.338ZM51.807 509.527C49.328 509.527 46.916 509.393 43.767 508.991L43.901 514.217C46.38 514.418 48.725 514.485 51.673 514.485C58.909 514.485 69.026 513.346 77.334 511.47V506.244C69.026 508.321 59.177 509.527 51.807 509.527ZM72.979 518.706V523.731C77.066 523.262 81.22 522.994 85.374 522.994C89.327 522.994 93.213 523.396 96.697 523.798L96.831 518.706C93.213 518.304 89.126 518.17 85.24 518.17C80.952 518.17 76.463 518.371 72.979 518.706ZM74.319 534.987L69.361 534.518C68.758 537.332 68.356 539.878 68.356 542.424C68.356 549.057 74.118 552.273 84.637 552.273C89.528 552.273 94.017 551.871 97.635 551.335L97.836 545.975C93.682 546.779 89.126 547.248 84.704 547.248C75.19 547.248 73.381 544.166 73.381 541.017C73.381 539.275 73.783 537.198 74.319 534.987Z" fill="white"/>
<g filter="url(#filter0_d_325_10388)">
<rect x="1554" y="6" width="22" height="1080" fill="#150B0E"/>
<rect x="1554.5" y="6.5" width="21" height="1079" stroke="#840404"/>
</g>
<path d="M1613.52 71.4597V77.4227C1615.12 77.2887 1618.41 77.1547 1620.89 77.1547H1653.05V112.062C1653.05 114.474 1652.91 116.953 1652.91 117.958H1658.94C1658.88 116.953 1658.67 113.938 1658.67 111.526V76.8867C1658.67 75.3457 1658.74 73.2017 1658.81 71.7277C1657.47 71.7947 1655.53 71.8617 1653.85 71.8617H1620.89C1618.68 71.8617 1615.79 71.6607 1613.52 71.4597ZM1612.71 108.444V114.541C1614.52 114.34 1617.54 114.273 1620.28 114.273H1656.06V108.779H1620.08C1617.34 108.779 1614.39 108.578 1612.71 108.444ZM1680.99 73.7377V79.7677C1683 79.7007 1685.27 79.6337 1687.55 79.6337C1690.83 79.6337 1712.94 79.6337 1716.29 79.6337C1718.51 79.6337 1721.05 79.7007 1722.86 79.7677V73.7377C1721.05 73.9387 1718.71 74.0727 1716.29 74.0727C1712.88 74.0727 1691.77 74.0727 1687.55 74.0727C1685.34 74.0727 1683.13 73.9387 1680.99 73.7377ZM1675.22 106.97V113.402C1677.43 113.201 1679.78 113.067 1682.26 113.067C1686.08 113.067 1718.51 113.067 1722.39 113.067C1724.13 113.067 1726.48 113.201 1728.49 113.402V106.97C1726.55 107.171 1724.33 107.305 1722.39 107.305C1718.51 107.305 1686.08 107.305 1682.26 107.305C1679.78 107.305 1677.5 107.104 1675.22 106.97ZM1747.18 70.7897L1748.52 75.8147C1754.48 75.6807 1763.73 75.4797 1771.23 74.4747C1776.59 73.7377 1782.83 72.5317 1786.71 71.5937C1787.72 71.3257 1788.99 70.9907 1790.46 70.5887L1786.91 65.8987C1783.63 67.3727 1775.79 68.9807 1769.69 69.7847C1762.39 70.7897 1752.21 71.0577 1747.18 70.7897ZM1750.93 116.484L1756.16 120.102C1768.69 112.933 1773.38 103.084 1773.38 88.8127C1773.38 88.8127 1773.38 78.2267 1773.38 73.0007L1768.02 73.7377C1768.02 82.9167 1768.02 88.9467 1768.02 88.9467C1768.02 102.749 1762.32 111.124 1750.93 116.484ZM1741.96 86.7357V92.2967C1743.56 92.1627 1745.77 92.0957 1747.92 92.0957C1752.07 92.0957 1787.98 92.0957 1792 92.0957C1793.68 92.0957 1795.76 92.1627 1797.23 92.2967V86.8027C1795.82 86.9367 1793.34 87.0707 1791.94 87.0707C1787.78 87.0707 1752.14 87.0707 1747.85 87.0707C1745.77 87.0707 1743.43 86.8697 1741.96 86.7357ZM1861.75 72.6657L1857.66 70.1197C1856.46 70.3877 1854.85 70.4547 1853.44 70.4547C1849.62 70.4547 1821.28 70.4547 1819.01 70.4547C1816.12 70.4547 1813.65 70.4547 1811.9 70.3207C1812.04 71.7277 1812.1 73.2017 1812.1 74.7427C1812.1 77.6237 1812.1 86.9367 1812.1 89.0807C1812.1 90.3537 1812.04 91.7607 1811.9 93.3687H1817.93C1817.8 91.6937 1817.8 90.0187 1817.8 89.0807C1817.8 86.9367 1817.8 77.5567 1817.8 75.6807C1822.56 75.6807 1850.96 75.6807 1854.72 75.6807C1854.05 83.5867 1852.17 92.1627 1848.35 98.0587C1842.92 106.635 1833.34 112.464 1823.49 115.144L1828.05 119.7C1838.84 116.216 1847.95 109.382 1853.38 100.873C1858.27 93.3017 1859.67 83.7207 1860.88 75.8147C1860.95 75.1447 1861.42 73.3357 1861.75 72.6657Z" fill="white"/>
<path d="M92.3974 698.105V704.068C94.0054 703.934 97.2884 703.8 99.7674 703.8H131.927V738.707C131.927 741.119 131.793 743.598 131.793 744.603H137.823C137.756 743.598 137.555 740.583 137.555 738.171V703.532C137.555 701.991 137.622 699.847 137.689 698.373C136.349 698.44 134.406 698.507 132.731 698.507H99.7674C97.5564 698.507 94.6754 698.306 92.3974 698.105ZM91.5934 735.089V741.186C93.4024 740.985 96.4174 740.918 99.1644 740.918H134.942V735.424H98.9634C96.2164 735.424 93.2684 735.223 91.5934 735.089ZM159.866 700.383V706.413C161.876 706.346 164.154 706.279 166.432 706.279C169.715 706.279 191.825 706.279 195.175 706.279C197.386 706.279 199.932 706.346 201.741 706.413V700.383C199.932 700.584 197.587 700.718 195.175 700.718C191.758 700.718 170.653 700.718 166.432 700.718C164.221 700.718 162.01 700.584 159.866 700.383ZM154.104 733.615V740.047C156.315 739.846 158.66 739.712 161.139 739.712C164.958 739.712 197.386 739.712 201.272 739.712C203.014 739.712 205.359 739.846 207.369 740.047V733.615C205.426 733.816 203.215 733.95 201.272 733.95C197.386 733.95 164.958 733.95 161.139 733.95C158.66 733.95 156.382 733.749 154.104 733.615ZM226.062 697.435L227.402 702.46C233.365 702.326 242.611 702.125 250.115 701.12C255.475 700.383 261.706 699.177 265.592 698.239C266.597 697.971 267.87 697.636 269.344 697.234L265.793 692.544C262.51 694.018 254.671 695.626 248.574 696.43C241.271 697.435 231.087 697.703 226.062 697.435ZM229.814 743.129L235.04 746.747C247.569 739.578 252.259 729.729 252.259 715.458C252.259 715.458 252.259 704.872 252.259 699.646L246.899 700.383C246.899 709.562 246.899 715.592 246.899 715.592C246.899 729.394 241.204 737.769 229.814 743.129ZM220.836 713.381V718.942C222.444 718.808 224.655 718.741 226.799 718.741C230.953 718.741 266.865 718.741 270.885 718.741C272.56 718.741 274.637 718.808 276.111 718.942V713.448C274.704 713.582 272.225 713.716 270.818 713.716C266.664 713.716 231.02 713.716 226.732 713.716C224.655 713.716 222.31 713.515 220.836 713.381ZM340.632 699.311L336.545 696.765C335.339 697.033 333.731 697.1 332.324 697.1C328.505 697.1 300.164 697.1 297.886 697.1C295.005 697.1 292.526 697.1 290.784 696.966C290.918 698.373 290.985 699.847 290.985 701.388C290.985 704.269 290.985 713.582 290.985 715.726C290.985 716.999 290.918 718.406 290.784 720.014H296.814C296.68 718.339 296.68 716.664 296.68 715.726C296.68 713.582 296.68 704.202 296.68 702.326C301.437 702.326 329.845 702.326 333.597 702.326C332.927 710.232 331.051 718.808 327.232 724.704C321.805 733.28 312.224 739.109 302.375 741.789L306.931 746.345C317.718 742.861 326.83 736.027 332.257 727.518C337.148 719.947 338.555 710.366 339.761 702.46C339.828 701.79 340.297 699.981 340.632 699.311Z" fill="white"/>
<path d="M1191.04 710.814V716.777C1192.65 716.643 1195.93 716.509 1198.41 716.509H1230.57V751.416C1230.57 753.828 1230.43 756.307 1230.43 757.312H1236.46C1236.4 756.307 1236.2 753.292 1236.2 750.88V716.241C1236.2 714.7 1236.26 712.556 1236.33 711.082C1234.99 711.149 1233.05 711.216 1231.37 711.216H1198.41C1196.2 711.216 1193.32 711.015 1191.04 710.814ZM1190.23 747.798V753.895C1192.04 753.694 1195.06 753.627 1197.81 753.627H1233.58V748.133H1197.6C1194.86 748.133 1191.91 747.932 1190.23 747.798ZM1258.51 713.092V719.122C1260.52 719.055 1262.8 718.988 1265.07 718.988C1268.36 718.988 1290.47 718.988 1293.82 718.988C1296.03 718.988 1298.57 719.055 1300.38 719.122V713.092C1298.57 713.293 1296.23 713.427 1293.82 713.427C1290.4 713.427 1269.29 713.427 1265.07 713.427C1262.86 713.427 1260.65 713.293 1258.51 713.092ZM1252.75 746.324V752.756C1254.96 752.555 1257.3 752.421 1259.78 752.421C1263.6 752.421 1296.03 752.421 1299.91 752.421C1301.66 752.421 1304 752.555 1306.01 752.756V746.324C1304.07 746.525 1301.86 746.659 1299.91 746.659C1296.03 746.659 1263.6 746.659 1259.78 746.659C1257.3 746.659 1255.02 746.458 1252.75 746.324ZM1324.7 710.144L1326.04 715.169C1332.01 715.035 1341.25 714.834 1348.76 713.829C1354.12 713.092 1360.35 711.886 1364.23 710.948C1365.24 710.68 1366.51 710.345 1367.99 709.943L1364.43 705.253C1361.15 706.727 1353.31 708.335 1347.22 709.139C1339.91 710.144 1329.73 710.412 1324.7 710.144ZM1328.46 755.838L1333.68 759.456C1346.21 752.287 1350.9 742.438 1350.9 728.167C1350.9 728.167 1350.9 717.581 1350.9 712.355L1345.54 713.092C1345.54 722.271 1345.54 728.301 1345.54 728.301C1345.54 742.103 1339.85 750.478 1328.46 755.838ZM1319.48 726.09V731.651C1321.09 731.517 1323.3 731.45 1325.44 731.45C1329.59 731.45 1365.51 731.45 1369.53 731.45C1371.2 731.45 1373.28 731.517 1374.75 731.651V726.157C1373.35 726.291 1370.87 726.425 1369.46 726.425C1365.31 726.425 1329.66 726.425 1325.37 726.425C1323.3 726.425 1320.95 726.224 1319.48 726.09ZM1439.27 712.02L1435.19 709.474C1433.98 709.742 1432.37 709.809 1430.97 709.809C1427.15 709.809 1398.81 709.809 1396.53 709.809C1393.65 709.809 1391.17 709.809 1389.43 709.675C1389.56 711.082 1389.63 712.556 1389.63 714.097C1389.63 716.978 1389.63 726.291 1389.63 728.435C1389.63 729.708 1389.56 731.115 1389.43 732.723H1395.46C1395.32 731.048 1395.32 729.373 1395.32 728.435C1395.32 726.291 1395.32 716.911 1395.32 715.035C1400.08 715.035 1428.49 715.035 1432.24 715.035C1431.57 722.941 1429.69 731.517 1425.87 737.413C1420.45 745.989 1410.87 751.818 1401.02 754.498L1405.57 759.054C1416.36 755.57 1425.47 748.736 1430.9 740.227C1435.79 732.656 1437.2 723.075 1438.4 715.169C1438.47 714.499 1438.94 712.69 1439.27 712.02Z" fill="white"/>
<path d="M739.99 103.804L733.826 103.201C733.826 108.36 732.888 114.39 731.682 119.683C729.873 127.924 724.513 145.813 716.875 155.997L722.302 158.208C729.873 145.947 734.697 129.264 736.975 119.884C737.846 115.73 738.784 110.236 739.186 107.824C739.454 106.484 739.722 105.077 739.99 103.804ZM763.105 110.973L758.214 113.184C762.904 118.678 768.13 130.537 770.14 137.438L775.299 134.959C773.088 128.728 767.259 116.4 763.105 110.973ZM715.87 118.544L716.473 124.306C718.148 124.038 720.962 123.703 722.503 123.502C726.59 123.1 739.119 121.626 743.608 121.626C747.896 121.626 750.71 122.765 750.71 128.862C750.71 136.098 749.705 144.875 747.561 149.364C746.154 152.312 744.144 152.848 741.665 152.848C739.789 152.848 736.305 152.312 733.491 151.441L734.362 157.069C736.506 157.538 739.655 158.007 742.268 158.007C746.556 158.007 749.906 156.935 752.05 152.446C754.797 146.885 755.869 136.232 755.869 128.259C755.869 119.147 750.978 116.869 745.015 116.869C740.459 116.869 726.858 118.41 721.9 118.544C719.756 118.611 718.014 118.611 715.87 118.544ZM725.652 186.953L725.853 192.447C727.461 192.246 729.404 192.045 730.878 191.978C733.893 191.844 742.067 191.442 744.747 191.375C742.469 196.132 739.454 203.033 736.774 208.862C734.228 214.49 731.213 222.262 728.466 225.88C727.059 227.689 725.92 228.225 724.379 228.225C722.302 228.225 720.359 226.684 720.359 223.669C720.359 217.505 726.724 211.274 737.846 211.274C751.648 211.274 763.909 218.711 771.748 225.478L774.227 219.783C766.991 214.624 753.725 206.584 738.65 206.584C725.049 206.584 715.535 214.289 715.535 224.406C715.535 229.967 719.22 233.585 724.178 233.585C727.662 233.585 730.275 232.312 732.62 228.895C735.501 224.741 739.186 215.629 741.866 209.733C744.948 202.832 748.633 194.256 750.777 190.772C751.313 189.901 751.849 189.231 752.519 188.494L749.169 185.814C748.231 186.149 747.092 186.417 745.819 186.484C743.005 186.752 734.228 187.154 730.677 187.154C729.27 187.154 727.327 187.087 725.652 186.953ZM767.527 201.626L762.033 201.023C762.234 202.966 762.167 205.244 762.033 207.254C761.296 217.17 758.415 229.833 742.67 236.466L747.092 240.151C762.703 232.312 766.589 220.721 767.527 201.626ZM749.035 262.933H743.34C743.541 263.804 743.608 265.814 743.608 266.953C743.608 271.643 743.608 278.678 743.608 284.708C743.608 290.604 744.278 303.468 744.278 308.627C744.278 313.317 740.995 314.456 737.109 314.456C730.476 314.456 727.863 312.178 727.863 309.029C727.863 305.947 731.28 303.468 737.712 303.468C749.638 303.468 759.554 310.168 765.584 315.729L768.666 310.972C763.507 306.751 752.452 299.113 738.315 299.113C728.667 299.113 722.838 303.2 722.838 309.297C722.838 315.796 728.131 319.213 737.779 319.213C746.489 319.213 749.571 314.456 749.571 309.766C749.571 305.277 748.566 293.552 748.566 284.708C748.566 279.08 748.566 270.102 748.7 267.422C748.767 265.412 748.901 264.072 749.035 262.933ZM723.441 270.169L723.508 275.127C727.729 275.663 735.97 276.266 740.593 276.266C749.571 276.266 759.152 275.395 766.723 274.524V269.633C758.013 271.04 749.035 271.643 740.526 271.643C736.104 271.643 727.729 270.973 723.441 270.169ZM723.106 284.44L723.173 289.465C727.93 290.001 735.3 290.336 739.923 290.336C749.973 290.336 758.147 289.867 767.259 288.728V283.703C758.549 284.976 749.638 285.646 739.923 285.646C735.501 285.646 727.863 285.177 723.106 284.44ZM733.491 343.871H726.657C727.059 345.814 727.26 348.159 727.26 350.638C727.26 357.673 726.59 374.624 726.59 384.54C726.59 395.528 733.223 399.481 742.871 399.481C757.544 399.481 766.254 391.106 770.81 384.741L767.058 380.185C762.234 387.153 755.266 393.987 743.005 393.987C736.64 393.987 732.017 391.441 732.017 384.071C732.017 374.088 732.553 358.209 732.821 350.638C732.955 348.427 733.156 346.082 733.491 343.871ZM740.325 423.402L733.96 422.866C734.094 424.273 733.96 426.551 733.692 428.427C733.223 431.911 731.481 440.353 729.873 446.517C727.327 455.964 722.637 469.565 718.617 476.533L724.446 478.476C727.997 471.173 732.486 457.304 734.898 447.79C736.774 441.09 738.181 433.519 739.186 428.695C739.454 427.422 739.923 424.876 740.325 423.402ZM725.518 434.591C723.039 434.591 720.627 434.457 717.478 434.055L717.612 439.281C720.091 439.482 722.436 439.549 725.384 439.549C732.62 439.549 742.737 438.41 751.045 436.534V431.308C742.737 433.385 732.888 434.591 725.518 434.591ZM746.69 443.77V448.795C750.777 448.326 754.931 448.058 759.085 448.058C763.038 448.058 766.924 448.46 770.408 448.862L770.542 443.77C766.924 443.368 762.837 443.234 758.951 443.234C754.663 443.234 750.174 443.435 746.69 443.77ZM748.03 460.051L743.072 459.582C742.469 462.396 742.067 464.942 742.067 467.488C742.067 474.121 747.829 477.337 758.348 477.337C763.239 477.337 767.728 476.935 771.346 476.399L771.547 471.039C767.393 471.843 762.837 472.312 758.415 472.312C748.901 472.312 747.092 469.23 747.092 466.081C747.092 464.339 747.494 462.262 748.03 460.051Z" fill="white"/>
<path d="M140.279 858.74L134.115 858.137C134.115 863.296 133.177 869.326 131.971 874.619C130.162 882.86 124.802 900.749 117.164 910.933L122.591 913.144C130.162 900.883 134.986 884.2 137.264 874.82C138.135 870.666 139.073 865.172 139.475 862.76C139.743 861.42 140.011 860.013 140.279 858.74ZM163.394 865.909L158.503 868.12C163.193 873.614 168.419 885.473 170.429 892.374L175.588 889.895C173.377 883.664 167.548 871.336 163.394 865.909ZM116.159 873.48L116.762 879.242C118.437 878.974 121.251 878.639 122.792 878.438C126.879 878.036 139.408 876.562 143.897 876.562C148.185 876.562 150.999 877.701 150.999 883.798C150.999 891.034 149.994 899.811 147.85 904.3C146.443 907.248 144.433 907.784 141.954 907.784C140.078 907.784 136.594 907.248 133.78 906.377L134.651 912.005C136.795 912.474 139.944 912.943 142.557 912.943C146.845 912.943 150.195 911.871 152.339 907.382C155.086 901.821 156.158 891.168 156.158 883.195C156.158 874.083 151.267 871.805 145.304 871.805C140.748 871.805 127.147 873.346 122.189 873.48C120.045 873.547 118.303 873.547 116.159 873.48ZM192.941 861.889L193.142 867.383C194.75 867.182 196.693 866.981 198.167 866.914C201.182 866.78 209.356 866.378 212.036 866.311C209.758 871.068 206.743 877.969 204.063 883.798C201.517 889.426 198.502 897.198 195.755 900.816C194.348 902.625 193.209 903.161 191.668 903.161C189.591 903.161 187.648 901.62 187.648 898.605C187.648 892.441 194.013 886.21 205.135 886.21C218.937 886.21 231.198 893.647 239.037 900.414L241.516 894.719C234.28 889.56 221.014 881.52 205.939 881.52C192.338 881.52 182.824 889.225 182.824 899.342C182.824 904.903 186.509 908.521 191.467 908.521C194.951 908.521 197.564 907.248 199.909 903.831C202.79 899.677 206.475 890.565 209.155 884.669C212.237 877.768 215.922 869.192 218.066 865.708C218.602 864.837 219.138 864.167 219.808 863.43L216.458 860.75C215.52 861.085 214.381 861.353 213.108 861.42C210.294 861.688 201.517 862.09 197.966 862.09C196.559 862.09 194.616 862.023 192.941 861.889ZM234.816 876.562L229.322 875.959C229.523 877.902 229.456 880.18 229.322 882.19C228.585 892.106 225.704 904.769 209.959 911.402L214.381 915.087C229.992 907.248 233.878 895.657 234.816 876.562ZM283.324 857.869H277.629C277.83 858.74 277.897 860.75 277.897 861.889C277.897 866.579 277.897 873.614 277.897 879.644C277.897 885.54 278.567 898.404 278.567 903.563C278.567 908.253 275.284 909.392 271.398 909.392C264.765 909.392 262.152 907.114 262.152 903.965C262.152 900.883 265.569 898.404 272.001 898.404C283.927 898.404 293.843 905.104 299.873 910.665L302.955 905.908C297.796 901.687 286.741 894.049 272.604 894.049C262.956 894.049 257.127 898.136 257.127 904.233C257.127 910.732 262.42 914.149 272.068 914.149C280.778 914.149 283.86 909.392 283.86 904.702C283.86 900.213 282.855 888.488 282.855 879.644C282.855 874.016 282.855 865.038 282.989 862.358C283.056 860.348 283.19 859.008 283.324 857.869ZM257.73 865.105L257.797 870.063C262.018 870.599 270.259 871.202 274.882 871.202C283.86 871.202 293.441 870.331 301.012 869.46V864.569C292.302 865.976 283.324 866.579 274.815 866.579C270.393 866.579 262.018 865.909 257.73 865.105ZM257.395 879.376L257.462 884.401C262.219 884.937 269.589 885.272 274.212 885.272C284.262 885.272 292.436 884.803 301.548 883.664V878.639C292.838 879.912 283.927 880.582 274.212 880.582C269.79 880.582 262.152 880.113 257.395 879.376ZM334.78 858.807H327.946C328.348 860.75 328.549 863.095 328.549 865.574C328.549 872.609 327.879 889.56 327.879 899.476C327.879 910.464 334.512 914.417 344.16 914.417C358.833 914.417 367.543 906.042 372.099 899.677L368.347 895.121C363.523 902.089 356.555 908.923 344.294 908.923C337.929 908.923 333.306 906.377 333.306 899.007C333.306 889.024 333.842 873.145 334.11 865.574C334.244 863.363 334.445 861.018 334.78 858.807ZM408.614 858.338L402.249 857.802C402.383 859.209 402.249 861.487 401.981 863.363C401.512 866.847 399.77 875.289 398.162 881.453C395.616 890.9 390.926 904.501 386.906 911.469L392.735 913.412C396.286 906.109 400.775 892.24 403.187 882.726C405.063 876.026 406.47 868.455 407.475 863.631C407.743 862.358 408.212 859.812 408.614 858.338ZM393.807 869.527C391.328 869.527 388.916 869.393 385.767 868.991L385.901 874.217C388.38 874.418 390.725 874.485 393.673 874.485C400.909 874.485 411.026 873.346 419.334 871.47V866.244C411.026 868.321 401.177 869.527 393.807 869.527ZM414.979 878.706V883.731C419.066 883.262 423.22 882.994 427.374 882.994C431.327 882.994 435.213 883.396 438.697 883.798L438.831 878.706C435.213 878.304 431.126 878.17 427.24 878.17C422.952 878.17 418.463 878.371 414.979 878.706ZM416.319 894.987L411.361 894.518C410.758 897.332 410.356 899.878 410.356 902.424C410.356 909.057 416.118 912.273 426.637 912.273C431.528 912.273 436.017 911.871 439.635 911.335L439.836 905.975C435.682 906.779 431.126 907.248 426.704 907.248C417.19 907.248 415.381 904.166 415.381 901.017C415.381 899.275 415.783 897.198 416.319 894.987Z" fill="white"/>
<path d="M1487.34 458.805L1481.18 458.202C1481.18 463.361 1480.24 469.391 1479.04 474.684C1477.23 482.925 1471.87 500.814 1464.23 510.998L1469.66 513.209C1477.23 500.948 1482.05 484.265 1484.33 474.885C1485.2 470.731 1486.14 465.237 1486.54 462.825C1486.81 461.485 1487.08 460.078 1487.34 458.805ZM1510.46 465.974L1505.57 468.185C1510.26 473.679 1515.48 485.538 1517.49 492.439L1522.65 489.96C1520.44 483.729 1514.61 471.401 1510.46 465.974ZM1463.22 473.545L1463.83 479.307C1465.5 479.039 1468.32 478.704 1469.86 478.503C1473.94 478.101 1486.47 476.627 1490.96 476.627C1495.25 476.627 1498.06 477.766 1498.06 483.863C1498.06 491.099 1497.06 499.876 1494.92 504.365C1493.51 507.313 1491.5 507.849 1489.02 507.849C1487.14 507.849 1483.66 507.313 1480.85 506.442L1481.72 512.07C1483.86 512.539 1487.01 513.008 1489.62 513.008C1493.91 513.008 1497.26 511.936 1499.4 507.447C1502.15 501.886 1503.22 491.233 1503.22 483.26C1503.22 474.148 1498.33 471.87 1492.37 471.87C1487.81 471.87 1474.21 473.411 1469.25 473.545C1467.11 473.612 1465.37 473.612 1463.22 473.545ZM1540.01 461.954L1540.21 467.448C1541.82 467.247 1543.76 467.046 1545.23 466.979C1548.25 466.845 1556.42 466.443 1559.1 466.376C1556.82 471.133 1553.81 478.034 1551.13 483.863C1548.58 489.491 1545.57 497.263 1542.82 500.881C1541.41 502.69 1540.27 503.226 1538.73 503.226C1536.66 503.226 1534.71 501.685 1534.71 498.67C1534.71 492.506 1541.08 486.275 1552.2 486.275C1566 486.275 1578.26 493.712 1586.1 500.479L1588.58 494.784C1581.35 489.625 1568.08 481.585 1553 481.585C1539.4 481.585 1529.89 489.29 1529.89 499.407C1529.89 504.968 1533.57 508.586 1538.53 508.586C1542.02 508.586 1544.63 507.313 1546.97 503.896C1549.86 499.742 1553.54 490.63 1556.22 484.734C1559.3 477.833 1562.99 469.257 1565.13 465.773C1565.67 464.902 1566.2 464.232 1566.87 463.495L1563.52 460.815C1562.59 461.15 1561.45 461.418 1560.17 461.485C1557.36 461.753 1548.58 462.155 1545.03 462.155C1543.62 462.155 1541.68 462.088 1540.01 461.954ZM1581.88 476.627L1576.39 476.024C1576.59 477.967 1576.52 480.245 1576.39 482.255C1575.65 492.171 1572.77 504.834 1557.02 511.467L1561.45 515.152C1577.06 507.313 1580.94 495.722 1581.88 476.627ZM1630.39 457.934H1624.69C1624.9 458.805 1624.96 460.815 1624.96 461.954C1624.96 466.644 1624.96 473.679 1624.96 479.709C1624.96 485.605 1625.63 498.469 1625.63 503.628C1625.63 508.318 1622.35 509.457 1618.46 509.457C1611.83 509.457 1609.22 507.179 1609.22 504.03C1609.22 500.948 1612.63 498.469 1619.07 498.469C1630.99 498.469 1640.91 505.169 1646.94 510.73L1650.02 505.973C1644.86 501.752 1633.81 494.114 1619.67 494.114C1610.02 494.114 1604.19 498.201 1604.19 504.298C1604.19 510.797 1609.49 514.214 1619.13 514.214C1627.84 514.214 1630.93 509.457 1630.93 504.767C1630.93 500.278 1629.92 488.553 1629.92 479.709C1629.92 474.081 1629.92 465.103 1630.05 462.423C1630.12 460.413 1630.26 459.073 1630.39 457.934ZM1604.8 465.17L1604.86 470.128C1609.08 470.664 1617.32 471.267 1621.95 471.267C1630.93 471.267 1640.51 470.396 1648.08 469.525V464.634C1639.37 466.041 1630.39 466.644 1621.88 466.644C1617.46 466.644 1609.08 465.974 1604.8 465.17ZM1604.46 479.441L1604.53 484.466C1609.28 485.002 1616.65 485.337 1621.28 485.337C1631.33 485.337 1639.5 484.868 1648.61 483.729V478.704C1639.9 479.977 1630.99 480.647 1621.28 480.647C1616.86 480.647 1609.22 480.178 1604.46 479.441ZM1681.85 458.872H1675.01C1675.41 460.815 1675.61 463.16 1675.61 465.639C1675.61 472.674 1674.94 489.625 1674.94 499.541C1674.94 510.529 1681.58 514.482 1691.23 514.482C1705.9 514.482 1714.61 506.107 1719.16 499.742L1715.41 495.186C1710.59 502.154 1703.62 508.988 1691.36 508.988C1684.99 508.988 1680.37 506.442 1680.37 499.072C1680.37 489.089 1680.91 473.21 1681.18 465.639C1681.31 463.428 1681.51 461.083 1681.85 458.872ZM1755.68 458.403L1749.31 457.867C1749.45 459.274 1749.31 461.552 1749.05 463.428C1748.58 466.912 1746.84 475.354 1745.23 481.518C1742.68 490.965 1737.99 504.566 1733.97 511.534L1739.8 513.477C1743.35 506.174 1747.84 492.305 1750.25 482.791C1752.13 476.091 1753.54 468.52 1754.54 463.696C1754.81 462.423 1755.28 459.877 1755.68 458.403ZM1740.87 469.592C1738.39 469.592 1735.98 469.458 1732.83 469.056L1732.97 474.282C1735.45 474.483 1737.79 474.55 1740.74 474.55C1747.97 474.55 1758.09 473.411 1766.4 471.535V466.309C1758.09 468.386 1748.24 469.592 1740.87 469.592ZM1762.04 478.771V483.796C1766.13 483.327 1770.29 483.059 1774.44 483.059C1778.39 483.059 1782.28 483.461 1785.76 483.863L1785.9 478.771C1782.28 478.369 1778.19 478.235 1774.31 478.235C1770.02 478.235 1765.53 478.436 1762.04 478.771ZM1763.38 495.052L1758.43 494.583C1757.82 497.397 1757.42 499.943 1757.42 502.489C1757.42 509.122 1763.18 512.338 1773.7 512.338C1778.59 512.338 1783.08 511.936 1786.7 511.4L1786.9 506.04C1782.75 506.844 1778.19 507.313 1773.77 507.313C1764.26 507.313 1762.45 504.231 1762.45 501.082C1762.45 499.34 1762.85 497.263 1763.38 495.052Z" fill="white"/>
<path d="M1725.44 909.849V914.807H1763.3V909.849H1725.44ZM1728.06 877.019V881.843H1761.89V877.019H1728.06ZM1742.46 855.579V912.261H1747.55V855.579H1742.46ZM1701.99 867.639V872.262H1724.24V867.639H1701.99ZM1712.58 887.739V916.75H1717.54V881.776L1712.58 887.739ZM1712.58 855.11V869.917H1717.54V855.11H1712.58ZM1717.13 883.116L1714.25 885.662C1717 888.074 1723.57 894.439 1726.05 897.32L1729.13 893.233C1727.18 891.558 1719.41 884.724 1717.13 883.116ZM1722.36 867.639V868.711C1718.34 878.895 1708.76 889.079 1699.65 894.439C1700.52 895.31 1701.72 897.655 1702.26 898.928C1711.84 892.764 1722.09 881.642 1727.18 869.314L1724.3 867.438L1723.37 867.639H1722.36ZM1771.81 909.38L1772.48 914.338C1784.34 913.936 1802.49 913.132 1819.38 912.261L1819.58 907.638C1802.16 908.442 1783.46 909.112 1771.81 909.38ZM1771.2 888.677V893.434H1826.75V888.677H1771.2ZM1782.66 875.88V880.57H1814.69V875.88H1782.66ZM1789.56 891.692C1787.55 897.588 1783.6 905.896 1780.45 911.122L1784.94 912.596C1788.22 907.571 1792.11 899.732 1795.19 893.3L1789.56 891.692ZM1805.51 898.794C1811.47 904.154 1818.1 911.859 1821.12 916.884L1825.67 914.137C1822.53 909.045 1815.96 901.809 1809.8 896.516L1805.51 898.794ZM1798.54 860.001C1804.77 868.711 1816.56 877.689 1827.01 882.714C1827.89 881.24 1829.09 879.431 1830.3 878.225C1819.64 873.87 1807.92 865.093 1800.82 855.177H1795.66C1790.43 863.753 1779.24 873.468 1767.72 878.962C1768.79 880.034 1770.06 881.843 1770.67 883.049C1782.06 877.354 1793.05 868.175 1798.54 860.001Z" fill="white"/>
<path d="M1588.31 651.922C1589.11 655.406 1596.28 691.854 1596.95 696.075C1597.42 698.018 1597.62 700.095 1597.96 702.373L1604.12 701.234C1603.45 699.291 1602.92 697.013 1602.45 695.137C1601.51 690.715 1594.14 653.932 1593.74 650.984C1593.47 649.51 1593.2 647.567 1593.07 646.361L1587.1 647.366C1587.57 648.773 1587.98 650.247 1588.31 651.922ZM1569.42 661.637L1570.62 667.6C1572.57 667.131 1574.17 666.796 1575.98 666.461C1581.88 665.456 1604.73 661.838 1611.63 660.766C1613.44 660.498 1615.45 660.163 1616.45 660.096L1615.38 654.468C1614.24 654.803 1612.5 655.205 1610.55 655.54C1604.19 656.813 1581.07 660.498 1575.04 661.168C1572.9 661.369 1571.09 661.503 1569.42 661.637ZM1569.22 680.933L1570.42 686.829C1571.9 686.427 1573.77 686.025 1576.38 685.556C1583.15 684.35 1607.34 680.397 1616.25 679.057C1618.73 678.655 1620.87 678.253 1622.28 678.119L1621.14 672.491C1619.73 672.893 1617.79 673.362 1615.24 673.831C1607.2 675.305 1582.28 679.392 1575.11 680.33C1573.37 680.598 1570.82 680.866 1569.22 680.933ZM1661.47 660.766L1656.52 662.441C1657.92 665.389 1661.01 673.898 1661.74 676.98L1666.7 675.171C1665.9 672.29 1662.61 663.446 1661.47 660.766ZM1685.73 664.518L1679.97 662.642C1678.89 671.218 1675.48 679.794 1670.72 685.623C1665.23 692.457 1656.65 697.549 1648.95 699.827L1653.37 704.316C1660.8 701.502 1668.98 696.276 1675.21 688.437C1679.97 682.407 1682.91 675.171 1684.66 667.801C1684.92 666.93 1685.26 665.858 1685.73 664.518ZM1645.86 664.116L1640.91 665.992C1642.25 668.337 1645.86 677.65 1646.94 681.134L1651.96 679.258C1650.75 675.707 1647.2 666.93 1645.86 664.116ZM1749.65 654.535L1746.3 651.922C1745.22 652.257 1743.42 652.458 1741.27 652.458C1738.73 652.458 1718.02 652.458 1715.41 652.458C1713.33 652.458 1709.51 652.19 1708.64 652.056V658.086C1709.38 658.019 1713 657.751 1715.41 657.751C1717.69 657.751 1739.13 657.751 1741.54 657.751C1739.8 663.312 1734.91 671.285 1730.35 676.444C1723.45 684.082 1713.6 692.122 1702.75 696.276L1707.03 700.765C1717.62 695.941 1727.2 687.968 1734.71 679.593C1740.27 673.429 1745.36 664.049 1748.04 657.416C1748.37 656.545 1749.24 655.071 1749.65 654.535ZM1735.58 676.109L1731.76 679.861C1738.99 686.226 1746.83 694.802 1751.66 701.167L1756.28 697.08C1751.72 691.519 1742.81 682.139 1735.58 676.109Z" fill="white"/>
<path d="M1280.56 912.314V917.875C1282.36 917.741 1284.51 917.674 1286.52 917.674C1290.2 917.674 1309.03 917.674 1312.78 917.674C1315.06 917.674 1317.41 917.741 1318.95 917.875V912.314C1317.34 912.515 1314.99 912.649 1312.92 912.649C1308.96 912.649 1290.14 912.649 1286.52 912.649C1284.37 912.649 1282.3 912.515 1280.56 912.314ZM1323.9 929.935L1320.09 927.59C1319.35 927.925 1317.87 928.126 1316.33 928.126C1312.92 928.126 1284.37 928.126 1281.09 928.126C1279.22 928.126 1276.94 927.925 1274.53 927.724V933.352C1276.94 933.151 1279.48 933.084 1281.09 933.084C1285.11 933.084 1313.32 933.084 1316.6 933.084C1315.4 937.975 1312.72 943.67 1308.7 947.891C1302.93 953.921 1294.56 958.276 1285.11 960.219L1289.27 964.976C1297.77 962.564 1306.22 958.678 1313.18 950.973C1318.21 945.479 1321.22 938.511 1322.97 931.945C1323.1 931.409 1323.57 930.605 1323.9 929.935ZM1347.29 913.118L1343.4 917.205C1348.43 920.488 1356.73 927.724 1360.15 931.208L1364.31 926.92C1360.62 923.235 1351.98 916.267 1347.29 913.118ZM1341.53 958.008L1345.01 963.502C1356.2 961.425 1364.64 957.271 1371.41 953.05C1381.52 946.685 1389.3 937.573 1393.85 929.265L1390.64 923.503C1386.75 931.811 1378.64 941.727 1368.26 948.226C1361.89 952.179 1353.18 956.266 1341.53 958.008ZM1443.03 913.989L1439.28 915.597C1441.49 918.612 1443.63 922.297 1445.31 925.848L1449.13 924.106C1447.59 920.89 1444.71 916.401 1443.03 913.989ZM1451.07 910.639L1447.45 912.381C1449.66 915.329 1451.87 918.88 1453.62 922.431L1457.37 920.555C1455.83 917.406 1452.88 912.984 1451.07 910.639ZM1419.51 957.137C1419.51 959.683 1419.38 962.966 1419.04 965.11H1425.54C1425.28 962.899 1425.14 959.281 1425.14 957.137C1425.14 953.988 1425.07 928.662 1425.07 918.21C1425.07 916.2 1425.34 913.252 1425.54 911.242H1418.98C1419.31 913.319 1419.51 916.267 1419.51 918.21C1419.51 923.838 1419.51 953.452 1419.51 957.137ZM1423.87 928.796V934.692C1431.17 936.97 1443.7 941.727 1451.34 945.814L1453.68 940.186C1446.25 936.501 1432.78 931.342 1423.87 928.796Z" fill="white"/>
<path d="M702.549 775.914V785.093H707.641V775.914H702.549ZM686.67 783.083V787.438H723.922V783.083H686.67ZM683.99 798.761V803.183H725.798V798.761H683.99ZM692.968 788.041C694.375 791.726 695.581 796.55 695.782 799.498L700.338 798.359C700.07 795.478 698.797 790.788 697.323 787.17L692.968 788.041ZM712.867 787.036C712.063 790.386 710.455 795.411 709.115 798.56L713.403 799.297C714.81 796.282 716.418 791.726 717.825 787.773L712.867 787.036ZM684.325 809.816V814.171H725.53V809.816H684.325ZM699.668 801.977C696.72 809.28 692.097 819.196 688.747 825.159L693.102 826.633C696.519 820.469 701.276 810.687 704.693 802.982L699.668 801.977ZM692.164 824.288C702.415 827.37 714.944 833.065 721.108 837.621L724.324 833.802C717.825 829.112 705.229 823.752 695.112 820.871L692.164 824.288ZM712.867 812.63C709.986 825.695 701.946 831.39 682.65 833.333C683.454 834.405 684.325 836.147 684.66 837.554C705.363 834.807 714.542 828.308 717.758 813.367L712.867 812.63ZM663.421 811.558L664.56 816.516C670.523 814.707 678.228 812.295 685.531 810.017L684.928 805.528C677.022 807.806 668.848 810.218 663.421 811.558ZM664.56 789.448V794.138H684.995V789.448H664.56ZM673.672 775.981V831.457C673.672 832.462 673.27 832.73 672.399 832.73C671.595 832.797 668.781 832.797 665.766 832.663C666.436 834.07 667.106 836.281 667.307 837.554C671.662 837.554 674.409 837.42 676.151 836.549C677.893 835.745 678.496 834.338 678.496 831.457V775.981H673.672ZM759.432 786.969V791.525H788.309V786.969H759.432ZM760.839 776.048C758.762 786.768 755.01 796.952 749.717 803.384C750.789 804.054 752.799 805.528 753.536 806.265C758.963 799.23 762.983 788.443 765.462 776.919L760.839 776.048ZM768.008 788.979C764.993 802.312 759.432 813.836 751.191 821.005C752.263 821.809 754.005 823.484 754.675 824.288C763.05 816.382 769.013 804.188 772.43 789.85L768.008 788.979ZM778.326 789.18C775.378 807.672 769.683 822.814 758.896 831.993C759.901 832.797 761.71 834.472 762.38 835.41C773.435 825.293 779.465 809.615 782.882 789.85L778.326 789.18ZM786.835 786.969V788.108C785.495 818.191 783.954 829.179 781.743 831.725C781.006 832.663 780.336 832.797 779.197 832.797C777.924 832.797 775.177 832.797 772.095 832.529C772.832 833.802 773.301 835.812 773.435 837.085C776.383 837.286 779.331 837.286 781.14 837.152C783.15 836.884 784.49 836.348 785.83 834.472C788.51 831.189 789.984 820.737 791.458 789.515C791.458 788.845 791.525 786.969 791.525 786.969H786.835ZM736.451 782.346V786.969H745.764V815.109H736.451V819.799H750.32V782.346H736.451ZM733.771 782.346V826.231H738.394V782.346H733.771Z" fill="white"/>
<path d="M823.673 632.393C824.477 635.877 831.646 672.325 832.316 676.546C832.785 678.489 832.986 680.566 833.321 682.844L839.485 681.705C838.815 679.762 838.279 677.484 837.81 675.608C836.872 671.186 829.502 634.403 829.1 631.455C828.832 629.981 828.564 628.038 828.43 626.832L822.467 627.837C822.936 629.244 823.338 630.718 823.673 632.393ZM804.779 642.108L805.985 648.071C807.928 647.602 809.536 647.267 811.345 646.932C817.241 645.927 840.088 642.309 846.989 641.237C848.798 640.969 850.808 640.634 851.813 640.567L850.741 634.939C849.602 635.274 847.86 635.676 845.917 636.011C839.552 637.284 816.437 640.969 810.407 641.639C808.263 641.84 806.454 641.974 804.779 642.108ZM804.578 661.404L805.784 667.3C807.258 666.898 809.134 666.496 811.747 666.027C818.514 664.821 842.701 660.868 851.612 659.528C854.091 659.126 856.235 658.724 857.642 658.59L856.503 652.962C855.096 653.364 853.153 653.833 850.607 654.302C842.567 655.776 817.643 659.863 810.474 660.801C808.732 661.069 806.186 661.337 804.578 661.404ZM915.981 635.006L912.631 632.393C911.559 632.728 909.75 632.929 907.606 632.929C905.06 632.929 884.357 632.929 881.744 632.929C879.667 632.929 875.848 632.661 874.977 632.527V638.557C875.714 638.49 879.332 638.222 881.744 638.222C884.022 638.222 905.462 638.222 907.874 638.222C906.132 643.783 901.241 651.756 896.685 656.915C889.784 664.553 879.935 672.593 869.081 676.747L873.369 681.236C883.955 676.412 893.536 668.439 901.04 660.064C906.601 653.9 911.693 644.52 914.373 637.887C914.708 637.016 915.579 635.542 915.981 635.006ZM901.911 656.58L898.092 660.332C905.328 666.697 913.167 675.273 917.991 681.638L922.614 677.551C918.058 671.99 909.147 662.61 901.911 656.58ZM944.925 629.914V635.475C946.734 635.341 948.878 635.274 950.888 635.274C954.573 635.274 973.4 635.274 977.152 635.274C979.43 635.274 981.775 635.341 983.316 635.475V629.914C981.708 630.115 979.363 630.249 977.286 630.249C973.333 630.249 954.506 630.249 950.888 630.249C948.744 630.249 946.667 630.115 944.925 629.914ZM988.274 647.535L984.455 645.19C983.718 645.525 982.244 645.726 980.703 645.726C977.286 645.726 948.744 645.726 945.461 645.726C943.585 645.726 941.307 645.525 938.895 645.324V650.952C941.307 650.751 943.853 650.684 945.461 650.684C949.481 650.684 977.688 650.684 980.971 650.684C979.765 655.575 977.085 661.27 973.065 665.491C967.303 671.521 958.928 675.876 949.481 677.819L953.635 682.576C962.144 680.164 970.586 676.278 977.554 668.573C982.579 663.079 985.594 656.111 987.336 649.545C987.47 649.009 987.939 648.205 988.274 647.535ZM1011.66 630.718L1007.77 634.805C1012.8 638.088 1021.1 645.324 1024.52 648.808L1028.67 644.52C1024.99 640.835 1016.35 633.867 1011.66 630.718ZM1005.89 675.608L1009.38 681.102C1020.57 679.025 1029.01 674.871 1035.78 670.65C1045.89 664.285 1053.67 655.173 1058.22 646.865L1055.01 641.103C1051.12 649.411 1043.01 659.327 1032.63 665.826C1026.26 669.779 1017.55 673.866 1005.89 675.608ZM1107.4 631.589L1103.65 633.197C1105.86 636.212 1108 639.897 1109.68 643.448L1113.5 641.706C1111.96 638.49 1109.07 634.001 1107.4 631.589ZM1115.44 628.239L1111.82 629.981C1114.03 632.929 1116.24 636.48 1117.99 640.031L1121.74 638.155C1120.2 635.006 1117.25 630.584 1115.44 628.239ZM1083.88 674.737C1083.88 677.283 1083.75 680.566 1083.41 682.71H1089.91C1089.64 680.499 1089.51 676.881 1089.51 674.737C1089.51 671.588 1089.44 646.262 1089.44 635.81C1089.44 633.8 1089.71 630.852 1089.91 628.842H1083.35C1083.68 630.919 1083.88 633.867 1083.88 635.81C1083.88 641.438 1083.88 671.052 1083.88 674.737ZM1088.24 646.396V652.292C1095.54 654.57 1108.07 659.327 1115.71 663.414L1118.05 657.786C1110.62 654.101 1097.15 648.942 1088.24 646.396Z" fill="white"/>
<path d="M905.673 313.871V319.298C910.966 319.767 916.728 320.035 923.428 320.035C929.592 320.035 936.895 319.566 941.451 319.231V313.737C936.627 314.273 929.86 314.675 923.428 314.675C916.661 314.675 910.497 314.407 905.673 313.871ZM908.353 340.872L902.926 340.336C902.323 343.016 901.586 346.165 901.586 349.649C901.586 358.091 909.492 362.513 923.093 362.513C932.607 362.513 941.116 361.508 945.94 360.235L945.873 354.473C940.781 356.081 932.138 357.086 922.959 357.086C912.239 357.086 907.013 353.602 907.013 348.443C907.013 345.964 907.549 343.485 908.353 340.872ZM993.644 311.124L987.681 308.712C986.877 310.722 986.006 312.33 985.269 313.938C981.584 320.37 966.911 347.84 962.02 361.374L967.782 363.384C968.72 360.101 971.534 352.128 973.611 348.175C976.157 342.882 981.249 337.388 986.609 337.388C989.624 337.388 991.366 339.197 991.5 342.078C991.701 345.763 991.634 350.922 991.835 354.875C992.036 358.828 994.381 363.317 1001.55 363.317C1011.27 363.317 1016.89 355.813 1020.44 345.026L1015.96 341.408C1014.28 348.577 1009.86 357.823 1002.35 357.823C999.473 357.823 997.195 356.349 996.994 352.999C996.726 349.716 996.86 344.624 996.726 340.671C996.525 335.378 993.309 332.497 988.82 332.497C985.604 332.497 982.12 333.77 978.904 336.651C982.321 330.152 988.485 319.03 991.5 314.407C992.237 313.134 993.041 311.928 993.644 311.124ZM1054.48 315.613L1054.55 321.04C1061.85 321.844 1074.85 321.844 1082.02 321.04V315.613C1075.38 316.618 1061.78 316.886 1054.48 315.613ZM1057.09 342.949L1052.27 342.48C1051.53 345.696 1051.2 348.108 1051.2 350.319C1051.2 356.617 1056.22 360.369 1067.41 360.369C1074.38 360.369 1080.01 359.833 1084.16 358.962L1084.03 353.334C1078.67 354.607 1073.44 355.143 1067.48 355.143C1058.3 355.143 1056.16 352.128 1056.16 349.046C1056.16 347.237 1056.49 345.361 1057.09 342.949ZM1041.75 310.454L1035.79 309.985C1035.72 311.459 1035.52 313.134 1035.32 314.675C1034.51 320.236 1032.3 331.693 1032.3 341.542C1032.3 350.654 1033.44 358.359 1034.78 363.116L1039.54 362.781C1039.47 362.044 1039.41 361.106 1039.34 360.436C1039.34 359.632 1039.47 358.359 1039.67 357.421C1040.28 354.205 1042.76 347.17 1044.43 342.413L1041.62 340.202C1040.48 342.949 1038.94 346.969 1037.8 349.984C1037.4 346.701 1037.19 343.887 1037.19 340.671C1037.19 333.1 1039.27 321.174 1040.54 314.943C1040.81 313.737 1041.35 311.593 1041.75 310.454ZM1119.34 308.377L1113.31 308.109C1113.44 309.918 1113.31 311.526 1113.04 313.67C1112.23 320.102 1108.68 336.718 1103.59 346.701L1108.55 348.443C1109.22 347.304 1109.82 346.366 1110.63 345.361C1115.05 340.068 1122.49 337.321 1130.46 337.321C1138.3 337.321 1142.38 341.207 1142.38 346.165C1142.38 357.22 1127.38 359.833 1111.83 357.689L1113.24 363.049C1133.61 365.193 1147.88 360.034 1147.88 346.031C1147.88 338.192 1141.65 332.765 1130.99 332.765C1124.03 332.765 1118 334.44 1112.17 338.527C1114.45 332.296 1117.13 319.365 1118.06 314.005C1118.47 312.263 1118.8 310.186 1119.34 308.377ZM1098.5 316.953L1098.57 322.179C1102.39 322.514 1106.67 322.849 1111.23 322.849C1120.41 322.849 1134.08 321.509 1143.59 319.834L1143.46 314.675C1132.94 317.02 1119.74 318.025 1111.16 318.025C1107.14 318.025 1102.05 317.556 1098.5 316.953ZM1184.66 321.241L1184.73 326.333C1188.61 326.601 1192.1 326.735 1195.98 326.735C1203.82 326.735 1212 326.199 1219.1 324.993V319.834C1212.33 321.241 1204.09 321.844 1196.05 321.844C1192.1 321.844 1188.48 321.643 1184.66 321.241ZM1208.11 309.248H1202.08C1202.28 310.454 1202.35 312.196 1202.35 313.402C1202.35 315.747 1202.42 319.968 1202.42 324.591C1202.42 333.435 1203.29 345.964 1203.29 350.788C1203.29 355.277 1201.68 358.091 1196.05 358.091C1191.16 358.091 1187.88 356.282 1187.88 352.798C1187.88 349.582 1191.36 347.371 1196.39 347.371C1204.9 347.371 1211.66 351.927 1218.7 358.493L1221.58 354.071C1215.95 348.979 1208.11 343.284 1196.86 343.284C1188.01 343.284 1183.05 347.706 1183.05 353.334C1183.05 359.364 1187.94 362.982 1196.92 362.982C1205.97 362.982 1208.51 357.622 1208.51 352.128C1208.51 345.227 1207.51 334.775 1207.51 324.457C1207.51 320.504 1207.58 315.747 1207.71 313.268C1207.78 311.995 1207.91 310.588 1208.11 309.248ZM1175.08 309.717L1169.18 309.181C1169.12 310.655 1168.98 312.397 1168.72 314.005C1167.91 319.499 1165.63 332.296 1165.63 342.145C1165.63 351.19 1166.91 358.56 1168.18 363.384L1172.94 362.982C1172.87 362.312 1172.8 361.307 1172.74 360.637C1172.67 359.9 1172.8 358.56 1173 357.622C1173.67 354.339 1176.15 347.505 1177.83 342.815L1175.08 340.671C1173.94 343.418 1172.27 347.505 1171.19 350.587C1170.73 347.304 1170.52 344.49 1170.52 341.207C1170.52 333.703 1172.53 320.437 1173.87 314.206C1174.14 313 1174.68 310.789 1175.08 309.717Z" fill="white"/>
<path d="M136.113 1015.81V1021.23C141.406 1021.7 147.168 1021.97 153.868 1021.97C160.032 1021.97 167.335 1021.5 171.891 1021.17V1015.67C167.067 1016.21 160.3 1016.61 153.868 1016.61C147.101 1016.61 140.937 1016.34 136.113 1015.81ZM138.793 1042.81L133.366 1042.27C132.763 1044.95 132.026 1048.1 132.026 1051.59C132.026 1060.03 139.932 1064.45 153.533 1064.45C163.047 1064.45 171.556 1063.44 176.38 1062.17L176.313 1056.41C171.221 1058.02 162.578 1059.02 153.399 1059.02C142.679 1059.02 137.453 1055.54 137.453 1050.38C137.453 1047.9 137.989 1045.42 138.793 1042.81ZM224.084 1013.06L218.121 1010.65C217.317 1012.66 216.446 1014.27 215.709 1015.87C212.024 1022.31 197.351 1049.78 192.46 1063.31L198.222 1065.32C199.16 1062.04 201.974 1054.06 204.051 1050.11C206.597 1044.82 211.689 1039.32 217.049 1039.32C220.064 1039.32 221.806 1041.13 221.94 1044.01C222.141 1047.7 222.074 1052.86 222.275 1056.81C222.476 1060.76 224.821 1065.25 231.99 1065.25C241.705 1065.25 247.333 1057.75 250.884 1046.96L246.395 1043.34C244.72 1050.51 240.298 1059.76 232.794 1059.76C229.913 1059.76 227.635 1058.29 227.434 1054.94C227.166 1051.65 227.3 1046.56 227.166 1042.61C226.965 1037.31 223.749 1034.43 219.26 1034.43C216.044 1034.43 212.56 1035.71 209.344 1038.59C212.761 1032.09 218.925 1020.97 221.94 1016.34C222.677 1015.07 223.481 1013.86 224.084 1013.06ZM284.92 1017.55L284.987 1022.98C292.29 1023.78 305.288 1023.78 312.457 1022.98V1017.55C305.824 1018.55 292.223 1018.82 284.92 1017.55ZM287.533 1044.89L282.709 1044.42C281.972 1047.63 281.637 1050.04 281.637 1052.26C281.637 1058.55 286.662 1062.31 297.851 1062.31C304.819 1062.31 310.447 1061.77 314.601 1060.9L314.467 1055.27C309.107 1056.54 303.881 1057.08 297.918 1057.08C288.739 1057.08 286.595 1054.06 286.595 1050.98C286.595 1049.17 286.93 1047.3 287.533 1044.89ZM272.19 1012.39L266.227 1011.92C266.16 1013.4 265.959 1015.07 265.758 1016.61C264.954 1022.17 262.743 1033.63 262.743 1043.48C262.743 1052.59 263.882 1060.3 265.222 1065.05L269.979 1064.72C269.912 1063.98 269.845 1063.04 269.778 1062.37C269.778 1061.57 269.912 1060.3 270.113 1059.36C270.716 1056.14 273.195 1049.11 274.87 1044.35L272.056 1042.14C270.917 1044.89 269.376 1048.91 268.237 1051.92C267.835 1048.64 267.634 1045.82 267.634 1042.61C267.634 1035.04 269.711 1023.11 270.984 1016.88C271.252 1015.67 271.788 1013.53 272.19 1012.39ZM349.776 1010.31L343.746 1010.05C343.88 1011.85 343.746 1013.46 343.478 1015.61C342.674 1022.04 339.123 1038.65 334.031 1048.64L338.989 1050.38C339.659 1049.24 340.262 1048.3 341.066 1047.3C345.488 1042 352.925 1039.26 360.898 1039.26C368.737 1039.26 372.824 1043.14 372.824 1048.1C372.824 1059.16 357.816 1061.77 342.272 1059.63L343.679 1064.99C364.047 1067.13 378.318 1061.97 378.318 1047.97C378.318 1040.13 372.087 1034.7 361.434 1034.7C354.466 1034.7 348.436 1036.38 342.607 1040.46C344.885 1034.23 347.565 1021.3 348.503 1015.94C348.905 1014.2 349.24 1012.12 349.776 1010.31ZM328.939 1018.89L329.006 1024.12C332.825 1024.45 337.113 1024.79 341.669 1024.79C350.848 1024.79 364.516 1023.45 374.03 1021.77L373.896 1016.61C363.377 1018.96 350.178 1019.96 341.602 1019.96C337.582 1019.96 332.49 1019.49 328.939 1018.89ZM415.101 1023.18L415.168 1028.27C419.054 1028.54 422.538 1028.67 426.424 1028.67C434.263 1028.67 442.437 1028.14 449.539 1026.93V1021.77C442.772 1023.18 434.531 1023.78 426.491 1023.78C422.538 1023.78 418.92 1023.58 415.101 1023.18ZM438.551 1011.18H432.521C432.722 1012.39 432.789 1014.13 432.789 1015.34C432.789 1017.68 432.856 1021.9 432.856 1026.53C432.856 1035.37 433.727 1047.9 433.727 1052.72C433.727 1057.21 432.119 1060.03 426.491 1060.03C421.6 1060.03 418.317 1058.22 418.317 1054.73C418.317 1051.52 421.801 1049.31 426.826 1049.31C435.335 1049.31 442.102 1053.86 449.137 1060.43L452.018 1056.01C446.39 1050.92 438.551 1045.22 427.295 1045.22C418.451 1045.22 413.493 1049.64 413.493 1055.27C413.493 1061.3 418.384 1064.92 427.362 1064.92C436.407 1064.92 438.953 1059.56 438.953 1054.06C438.953 1047.16 437.948 1036.71 437.948 1026.39C437.948 1022.44 438.015 1017.68 438.149 1015.2C438.216 1013.93 438.35 1012.52 438.551 1011.18ZM405.52 1011.65L399.624 1011.12C399.557 1012.59 399.423 1014.33 399.155 1015.94C398.351 1021.44 396.073 1034.23 396.073 1044.08C396.073 1053.13 397.346 1060.5 398.619 1065.32L403.376 1064.92C403.309 1064.25 403.242 1063.24 403.175 1062.57C403.108 1061.84 403.242 1060.5 403.443 1059.56C404.113 1056.28 406.592 1049.44 408.267 1044.75L405.52 1042.61C404.381 1045.35 402.706 1049.44 401.634 1052.52C401.165 1049.24 400.964 1046.43 400.964 1043.14C400.964 1035.64 402.974 1022.37 404.314 1016.14C404.582 1014.94 405.118 1012.73 405.52 1011.65Z" fill="white"/>
<path d="M1222.89 41.105V47.068C1224.49 46.934 1227.78 46.8 1230.26 46.8H1262.42V81.707C1262.42 84.119 1262.28 86.598 1262.28 87.603H1268.31C1268.25 86.598 1268.04 83.583 1268.04 81.171V46.532C1268.04 44.991 1268.11 42.847 1268.18 41.373C1266.84 41.44 1264.9 41.507 1263.22 41.507H1230.26C1228.05 41.507 1225.16 41.306 1222.89 41.105ZM1222.08 78.089V84.186C1223.89 83.985 1226.91 83.918 1229.65 83.918H1265.43V78.424H1229.45C1226.71 78.424 1223.76 78.223 1222.08 78.089ZM1290.36 43.383V49.413C1292.37 49.346 1294.64 49.279 1296.92 49.279C1300.2 49.279 1322.31 49.279 1325.66 49.279C1327.88 49.279 1330.42 49.346 1332.23 49.413V43.383C1330.42 43.584 1328.08 43.718 1325.66 43.718C1322.25 43.718 1301.14 43.718 1296.92 43.718C1294.71 43.718 1292.5 43.584 1290.36 43.383ZM1284.59 76.615V83.047C1286.8 82.846 1289.15 82.712 1291.63 82.712C1295.45 82.712 1327.88 82.712 1331.76 82.712C1333.5 82.712 1335.85 82.846 1337.86 83.047V76.615C1335.92 76.816 1333.7 76.95 1331.76 76.95C1327.88 76.95 1295.45 76.95 1291.63 76.95C1289.15 76.95 1286.87 76.749 1284.59 76.615ZM1356.55 40.435L1357.89 45.46C1363.85 45.326 1373.1 45.125 1380.6 44.12C1385.96 43.383 1392.2 42.177 1396.08 41.239C1397.09 40.971 1398.36 40.636 1399.83 40.234L1396.28 35.544C1393 37.018 1385.16 38.626 1379.06 39.43C1371.76 40.435 1361.58 40.703 1356.55 40.435ZM1360.3 86.129L1365.53 89.747C1378.06 82.578 1382.75 72.729 1382.75 58.458C1382.75 58.458 1382.75 47.872 1382.75 42.646L1377.39 43.383C1377.39 52.562 1377.39 58.592 1377.39 58.592C1377.39 72.394 1371.69 80.769 1360.3 86.129ZM1351.33 56.381V61.942C1352.93 61.808 1355.14 61.741 1357.29 61.741C1361.44 61.741 1397.35 61.741 1401.37 61.741C1403.05 61.741 1405.13 61.808 1406.6 61.942V56.448C1405.19 56.582 1402.71 56.716 1401.31 56.716C1397.15 56.716 1361.51 56.716 1357.22 56.716C1355.14 56.716 1352.8 56.515 1351.33 56.381ZM1471.12 42.311L1467.03 39.765C1465.83 40.033 1464.22 40.1 1462.81 40.1C1458.99 40.1 1430.65 40.1 1428.38 40.1C1425.49 40.1 1423.02 40.1 1421.27 39.966C1421.41 41.373 1421.47 42.847 1421.47 44.388C1421.47 47.269 1421.47 56.582 1421.47 58.726C1421.47 59.999 1421.41 61.406 1421.27 63.014H1427.3C1427.17 61.339 1427.17 59.664 1427.17 58.726C1427.17 56.582 1427.17 47.202 1427.17 45.326C1431.93 45.326 1460.33 45.326 1464.09 45.326C1463.42 53.232 1461.54 61.808 1457.72 67.704C1452.29 76.28 1442.71 82.109 1432.86 84.789L1437.42 89.345C1448.21 85.861 1457.32 79.027 1462.75 70.518C1467.64 62.947 1469.04 53.366 1470.25 45.46C1470.32 44.79 1470.79 42.981 1471.12 42.311Z" fill="white"/>
<path d="M972.285 963.946V973.125H977.377V963.946H972.285ZM956.406 971.115V975.47H993.658V971.115H956.406ZM953.726 986.793V991.215H995.534V986.793H953.726ZM962.704 976.073C964.111 979.758 965.317 984.582 965.518 987.53L970.074 986.391C969.806 983.51 968.533 978.82 967.059 975.202L962.704 976.073ZM982.603 975.068C981.799 978.418 980.191 983.443 978.851 986.592L983.139 987.329C984.546 984.314 986.154 979.758 987.561 975.805L982.603 975.068ZM954.061 997.848V1002.2H995.266V997.848H954.061ZM969.404 990.009C966.456 997.312 961.833 1007.23 958.483 1013.19L962.838 1014.66C966.255 1008.5 971.012 998.719 974.429 991.014L969.404 990.009ZM961.9 1012.32C972.151 1015.4 984.68 1021.1 990.844 1025.65L994.06 1021.83C987.561 1017.14 974.965 1011.78 964.848 1008.9L961.9 1012.32ZM982.603 1000.66C979.722 1013.73 971.682 1019.42 952.386 1021.36C953.19 1022.44 954.061 1024.18 954.396 1025.59C975.099 1022.84 984.278 1016.34 987.494 1001.4L982.603 1000.66ZM933.157 999.59L934.296 1004.55C940.259 1002.74 947.964 1000.33 955.267 998.049L954.664 993.56C946.758 995.838 938.584 998.25 933.157 999.59ZM934.296 977.48V982.17H954.731V977.48H934.296ZM943.408 964.013V1019.49C943.408 1020.49 943.006 1020.76 942.135 1020.76C941.331 1020.83 938.517 1020.83 935.502 1020.69C936.172 1022.1 936.842 1024.31 937.043 1025.59C941.398 1025.59 944.145 1025.45 945.887 1024.58C947.629 1023.78 948.232 1022.37 948.232 1019.49V964.013H943.408ZM1029.17 975.001V979.557H1058.04V975.001H1029.17ZM1030.57 964.08C1028.5 974.8 1024.75 984.984 1019.45 991.416C1020.52 992.086 1022.53 993.56 1023.27 994.297C1028.7 987.262 1032.72 976.475 1035.2 964.951L1030.57 964.08ZM1037.74 977.011C1034.73 990.344 1029.17 1001.87 1020.93 1009.04C1022 1009.84 1023.74 1011.52 1024.41 1012.32C1032.79 1004.41 1038.75 992.22 1042.17 977.882L1037.74 977.011ZM1048.06 977.212C1045.11 995.704 1039.42 1010.85 1028.63 1020.02C1029.64 1020.83 1031.45 1022.5 1032.12 1023.44C1043.17 1013.32 1049.2 997.647 1052.62 977.882L1048.06 977.212ZM1056.57 975.001V976.14C1055.23 1006.22 1053.69 1017.21 1051.48 1019.76C1050.74 1020.69 1050.07 1020.83 1048.93 1020.83C1047.66 1020.83 1044.91 1020.83 1041.83 1020.56C1042.57 1021.83 1043.04 1023.84 1043.17 1025.12C1046.12 1025.32 1049.07 1025.32 1050.88 1025.18C1052.89 1024.92 1054.23 1024.38 1055.57 1022.5C1058.25 1019.22 1059.72 1008.77 1061.19 977.547C1061.19 976.877 1061.26 975.001 1061.26 975.001H1056.57ZM1006.19 970.378V975.001H1015.5V1003.14H1006.19V1007.83H1020.06V970.378H1006.19ZM1003.51 970.378V1014.26H1008.13V970.378H1003.51Z" fill="white"/>
<path d="M270.715 498.74L264.551 498.137C264.551 503.296 263.613 509.326 262.407 514.619C260.598 522.86 255.238 540.749 247.6 550.933L253.027 553.144C260.598 540.883 265.422 524.2 267.7 514.82C268.571 510.666 269.509 505.172 269.911 502.76C270.179 501.42 270.447 500.013 270.715 498.74ZM293.83 505.909L288.939 508.12C293.629 513.614 298.855 525.473 300.865 532.374L306.024 529.895C303.813 523.664 297.984 511.336 293.83 505.909ZM246.595 513.48L247.198 519.242C248.873 518.974 251.687 518.639 253.228 518.438C257.315 518.036 269.844 516.562 274.333 516.562C278.621 516.562 281.435 517.701 281.435 523.798C281.435 531.034 280.43 539.811 278.286 544.3C276.879 547.248 274.869 547.784 272.39 547.784C270.514 547.784 267.03 547.248 264.216 546.377L265.087 552.005C267.231 552.474 270.38 552.943 272.993 552.943C277.281 552.943 280.631 551.871 282.775 547.382C285.522 541.821 286.594 531.168 286.594 523.195C286.594 514.083 281.703 511.805 275.74 511.805C271.184 511.805 257.583 513.346 252.625 513.48C250.481 513.547 248.739 513.547 246.595 513.48ZM323.377 501.889L323.578 507.383C325.186 507.182 327.129 506.981 328.603 506.914C331.618 506.78 339.792 506.378 342.472 506.311C340.194 511.068 337.179 517.969 334.499 523.798C331.953 529.426 328.938 537.198 326.191 540.816C324.784 542.625 323.645 543.161 322.104 543.161C320.027 543.161 318.084 541.62 318.084 538.605C318.084 532.441 324.449 526.21 335.571 526.21C349.373 526.21 361.634 533.647 369.473 540.414L371.952 534.719C364.716 529.56 351.45 521.52 336.375 521.52C322.774 521.52 313.26 529.225 313.26 539.342C313.26 544.903 316.945 548.521 321.903 548.521C325.387 548.521 328 547.248 330.345 543.831C333.226 539.677 336.911 530.565 339.591 524.669C342.673 517.768 346.358 509.192 348.502 505.708C349.038 504.837 349.574 504.167 350.244 503.43L346.894 500.75C345.956 501.085 344.817 501.353 343.544 501.42C340.73 501.688 331.953 502.09 328.402 502.09C326.995 502.09 325.052 502.023 323.377 501.889ZM365.252 516.562L359.758 515.959C359.959 517.902 359.892 520.18 359.758 522.19C359.021 532.106 356.14 544.769 340.395 551.402L344.817 555.087C360.428 547.248 364.314 535.657 365.252 516.562ZM413.76 497.869H408.065C408.266 498.74 408.333 500.75 408.333 501.889C408.333 506.579 408.333 513.614 408.333 519.644C408.333 525.54 409.003 538.404 409.003 543.563C409.003 548.253 405.72 549.392 401.834 549.392C395.201 549.392 392.588 547.114 392.588 543.965C392.588 540.883 396.005 538.404 402.437 538.404C414.363 538.404 424.279 545.104 430.309 550.665L433.391 545.908C428.232 541.687 417.177 534.049 403.04 534.049C393.392 534.049 387.563 538.136 387.563 544.233C387.563 550.732 392.856 554.149 402.504 554.149C411.214 554.149 414.296 549.392 414.296 544.702C414.296 540.213 413.291 528.488 413.291 519.644C413.291 514.016 413.291 505.038 413.425 502.358C413.492 500.348 413.626 499.008 413.76 497.869ZM388.166 505.105L388.233 510.063C392.454 510.599 400.695 511.202 405.318 511.202C414.296 511.202 423.877 510.331 431.448 509.46V504.569C422.738 505.976 413.76 506.579 405.251 506.579C400.829 506.579 392.454 505.909 388.166 505.105ZM387.831 519.376L387.898 524.401C392.655 524.937 400.025 525.272 404.648 525.272C414.698 525.272 422.872 524.803 431.984 523.664V518.639C423.274 519.912 414.363 520.582 404.648 520.582C400.226 520.582 392.588 520.113 387.831 519.376ZM465.216 498.807H458.382C458.784 500.75 458.985 503.095 458.985 505.574C458.985 512.609 458.315 529.56 458.315 539.476C458.315 550.464 464.948 554.417 474.596 554.417C489.269 554.417 497.979 546.042 502.535 539.677L498.783 535.121C493.959 542.089 486.991 548.923 474.73 548.923C468.365 548.923 463.742 546.377 463.742 539.007C463.742 529.024 464.278 513.145 464.546 505.574C464.68 503.363 464.881 501.018 465.216 498.807ZM539.05 498.338L532.685 497.802C532.819 499.209 532.685 501.487 532.417 503.363C531.948 506.847 530.206 515.289 528.598 521.453C526.052 530.9 521.362 544.501 517.342 551.469L523.171 553.412C526.722 546.109 531.211 532.24 533.623 522.726C535.499 516.026 536.906 508.455 537.911 503.631C538.179 502.358 538.648 499.812 539.05 498.338ZM524.243 509.527C521.764 509.527 519.352 509.393 516.203 508.991L516.337 514.217C518.816 514.418 521.161 514.485 524.109 514.485C531.345 514.485 541.462 513.346 549.77 511.47V506.244C541.462 508.321 531.613 509.527 524.243 509.527ZM545.415 518.706V523.731C549.502 523.262 553.656 522.994 557.81 522.994C561.763 522.994 565.649 523.396 569.133 523.798L569.267 518.706C565.649 518.304 561.562 518.17 557.676 518.17C553.388 518.17 548.899 518.371 545.415 518.706ZM546.755 534.987L541.797 534.518C541.194 537.332 540.792 539.878 540.792 542.424C540.792 549.057 546.554 552.273 557.073 552.273C561.964 552.273 566.453 551.871 570.071 551.335L570.272 545.975C566.118 546.779 561.562 547.248 557.14 547.248C547.626 547.248 545.817 544.166 545.817 541.017C545.817 539.275 546.219 537.198 546.755 534.987Z" fill="white"/>
<path d="M154.992 71.4597V77.4227C156.6 77.2887 159.883 77.1547 162.362 77.1547H194.522V112.062C194.522 114.474 194.388 116.953 194.388 117.958H200.418C200.351 116.953 200.15 113.938 200.15 111.526V76.8867C200.15 75.3457 200.217 73.2017 200.284 71.7277C198.944 71.7947 197.001 71.8617 195.326 71.8617H162.362C160.151 71.8617 157.27 71.6607 154.992 71.4597ZM154.188 108.444V114.541C155.997 114.34 159.012 114.273 161.759 114.273H197.537V108.779H161.558C158.811 108.779 155.863 108.578 154.188 108.444ZM222.461 73.7377V79.7677C224.471 79.7007 226.749 79.6337 229.027 79.6337C232.31 79.6337 254.42 79.6337 257.77 79.6337C259.981 79.6337 262.527 79.7007 264.336 79.7677V73.7377C262.527 73.9387 260.182 74.0727 257.77 74.0727C254.353 74.0727 233.248 74.0727 229.027 74.0727C226.816 74.0727 224.605 73.9387 222.461 73.7377ZM216.699 106.97V113.402C218.91 113.201 221.255 113.067 223.734 113.067C227.553 113.067 259.981 113.067 263.867 113.067C265.609 113.067 267.954 113.201 269.964 113.402V106.97C268.021 107.171 265.81 107.305 263.867 107.305C259.981 107.305 227.553 107.305 223.734 107.305C221.255 107.305 218.977 107.104 216.699 106.97ZM288.657 70.7897L289.997 75.8147C295.96 75.6807 305.206 75.4797 312.71 74.4747C318.07 73.7377 324.301 72.5317 328.187 71.5937C329.192 71.3257 330.465 70.9907 331.939 70.5887L328.388 65.8987C325.105 67.3727 317.266 68.9807 311.169 69.7847C303.866 70.7897 293.682 71.0577 288.657 70.7897ZM292.409 116.484L297.635 120.102C310.164 112.933 314.854 103.084 314.854 88.8127C314.854 88.8127 314.854 78.2267 314.854 73.0007L309.494 73.7377C309.494 82.9167 309.494 88.9467 309.494 88.9467C309.494 102.749 303.799 111.124 292.409 116.484ZM283.431 86.7357V92.2967C285.039 92.1627 287.25 92.0957 289.394 92.0957C293.548 92.0957 329.46 92.0957 333.48 92.0957C335.155 92.0957 337.232 92.1627 338.706 92.2967V86.8027C337.299 86.9367 334.82 87.0707 333.413 87.0707C329.259 87.0707 293.615 87.0707 289.327 87.0707C287.25 87.0707 284.905 86.8697 283.431 86.7357ZM403.227 72.6657L399.14 70.1197C397.934 70.3877 396.326 70.4547 394.919 70.4547C391.1 70.4547 362.759 70.4547 360.481 70.4547C357.6 70.4547 355.121 70.4547 353.379 70.3207C353.513 71.7277 353.58 73.2017 353.58 74.7427C353.58 77.6237 353.58 86.9367 353.58 89.0807C353.58 90.3537 353.513 91.7607 353.379 93.3687H359.409C359.275 91.6937 359.275 90.0187 359.275 89.0807C359.275 86.9367 359.275 77.5567 359.275 75.6807C364.032 75.6807 392.44 75.6807 396.192 75.6807C395.522 83.5867 393.646 92.1627 389.827 98.0587C384.4 106.635 374.819 112.464 364.97 115.144L369.526 119.7C380.313 116.216 389.425 109.382 394.852 100.873C399.743 93.3017 401.15 83.7207 402.356 75.8147C402.423 75.1447 402.892 73.3357 403.227 72.6657Z" fill="white"/>
<defs>
<filter id="filter0_d_325_10388" x="1544" y="0" width="42" height="1100" filterUnits="userSpaceOnUse" color-interpolation-filters="sRGB">
<feFlood flood-opacity="0" result="BackgroundImageFix"/>
<feColorMatrix in="SourceAlpha" type="matrix" values="0 0 0 0 0 0 0 0 0 0 0 0 0 0 0 0 0 0 127 0" result="hardAlpha"/>
<feOffset dy="4"/>
<feGaussianBlur stdDeviation="5"/>
<feComposite in2="hardAlpha" operator="out"/>
<feColorMatrix type="matrix" values="0 0 0 0 1 0 0 0 0 0 0 0 0 0 0 0 0 0 1 0"/>
<feBlend mode="normal" in2="BackgroundImageFix" result="effect1_dropShadow_325_10388"/>
<feBlend mode="normal" in="SourceGraphic" in2="effect1_dropShadow_325_10388" result="shape"/>
</filter>
</defs>
</svg>
