<svg width="1920" height="1080" viewBox="0 0 1920 1080" fill="none" xmlns="http://www.w3.org/2000/svg">
<rect width="1920" height="1080" fill="#840404"/>
<path d="M66.279 167.74L60.115 167.137C60.115 172.296 59.177 178.326 57.971 183.619C56.162 191.86 50.802 209.749 43.164 219.933L48.591 222.144C56.162 209.883 60.986 193.2 63.264 183.82C64.135 179.666 65.073 174.172 65.475 171.76C65.743 170.42 66.011 169.013 66.279 167.74ZM89.394 174.909L84.503 177.12C89.193 182.614 94.419 194.473 96.429 201.374L101.588 198.895C99.377 192.664 93.548 180.336 89.394 174.909ZM42.159 182.48L42.762 188.242C44.437 187.974 47.251 187.639 48.792 187.438C52.879 187.036 65.408 185.562 69.897 185.562C74.185 185.562 76.999 186.701 76.999 192.798C76.999 200.034 75.994 208.811 73.85 213.3C72.443 216.248 70.433 216.784 67.954 216.784C66.078 216.784 62.594 216.248 59.78 215.377L60.651 221.005C62.795 221.474 65.944 221.943 68.557 221.943C72.845 221.943 76.195 220.871 78.339 216.382C81.086 210.821 82.158 200.168 82.158 192.195C82.158 183.083 77.267 180.805 71.304 180.805C66.748 180.805 53.147 182.346 48.189 182.48C46.045 182.547 44.303 182.547 42.159 182.48ZM51.941 250.889L52.142 256.383C53.75 256.182 55.693 255.981 57.167 255.914C60.182 255.78 68.356 255.378 71.036 255.311C68.758 260.068 65.743 266.969 63.063 272.798C60.517 278.426 57.502 286.198 54.755 289.816C53.348 291.625 52.209 292.161 50.668 292.161C48.591 292.161 46.648 290.62 46.648 287.605C46.648 281.441 53.013 275.21 64.135 275.21C77.937 275.21 90.198 282.647 98.037 289.414L100.516 283.719C93.28 278.56 80.014 270.52 64.939 270.52C51.338 270.52 41.824 278.225 41.824 288.342C41.824 293.903 45.509 297.521 50.467 297.521C53.951 297.521 56.564 296.248 58.909 292.831C61.79 288.677 65.475 279.565 68.155 273.669C71.237 266.768 74.922 258.192 77.066 254.708C77.602 253.837 78.138 253.167 78.808 252.43L75.458 249.75C74.52 250.085 73.381 250.353 72.108 250.42C69.294 250.688 60.517 251.09 56.966 251.09C55.559 251.09 53.616 251.023 51.941 250.889ZM93.816 265.562L88.322 264.959C88.523 266.902 88.456 269.18 88.322 271.19C87.585 281.106 84.704 293.769 68.959 300.402L73.381 304.087C88.992 296.248 92.878 284.657 93.816 265.562ZM75.324 326.869H69.629C69.83 327.74 69.897 329.75 69.897 330.889C69.897 335.579 69.897 342.614 69.897 348.644C69.897 354.54 70.567 367.404 70.567 372.563C70.567 377.253 67.284 378.392 63.398 378.392C56.765 378.392 54.152 376.114 54.152 372.965C54.152 369.883 57.569 367.404 64.001 367.404C75.927 367.404 85.843 374.104 91.873 379.665L94.955 374.908C89.796 370.687 78.741 363.049 64.604 363.049C54.956 363.049 49.127 367.136 49.127 373.233C49.127 379.732 54.42 383.149 64.068 383.149C72.778 383.149 75.86 378.392 75.86 373.702C75.86 369.213 74.855 357.488 74.855 348.644C74.855 343.016 74.855 334.038 74.989 331.358C75.056 329.348 75.19 328.008 75.324 326.869ZM49.73 334.105L49.797 339.063C54.018 339.599 62.259 340.202 66.882 340.202C75.86 340.202 85.441 339.331 93.012 338.46V333.569C84.302 334.976 75.324 335.579 66.815 335.579C62.393 335.579 54.018 334.909 49.73 334.105ZM49.395 348.376L49.462 353.401C54.219 353.937 61.589 354.272 66.212 354.272C76.262 354.272 84.436 353.803 93.548 352.664V347.639C84.838 348.912 75.927 349.582 66.212 349.582C61.79 349.582 54.152 349.113 49.395 348.376ZM59.78 407.807H52.946C53.348 409.75 53.549 412.095 53.549 414.574C53.549 421.609 52.879 438.56 52.879 448.476C52.879 459.464 59.512 463.417 69.16 463.417C83.833 463.417 92.543 455.042 97.099 448.677L93.347 444.121C88.523 451.089 81.555 457.923 69.294 457.923C62.929 457.923 58.306 455.377 58.306 448.007C58.306 438.024 58.842 422.145 59.11 414.574C59.244 412.363 59.445 410.018 59.78 407.807ZM66.614 487.338L60.249 486.802C60.383 488.209 60.249 490.487 59.981 492.363C59.512 495.847 57.77 504.289 56.162 510.453C53.616 519.9 48.926 533.501 44.906 540.469L50.735 542.412C54.286 535.109 58.775 521.24 61.187 511.726C63.063 505.026 64.47 497.455 65.475 492.631C65.743 491.358 66.212 488.812 66.614 487.338ZM51.807 498.527C49.328 498.527 46.916 498.393 43.767 497.991L43.901 503.217C46.38 503.418 48.725 503.485 51.673 503.485C58.909 503.485 69.026 502.346 77.334 500.47V495.244C69.026 497.321 59.177 498.527 51.807 498.527ZM72.979 507.706V512.731C77.066 512.262 81.22 511.994 85.374 511.994C89.327 511.994 93.213 512.396 96.697 512.798L96.831 507.706C93.213 507.304 89.126 507.17 85.24 507.17C80.952 507.17 76.463 507.371 72.979 507.706ZM74.319 523.987L69.361 523.518C68.758 526.332 68.356 528.878 68.356 531.424C68.356 538.057 74.118 541.273 84.637 541.273C89.528 541.273 94.017 540.871 97.635 540.335L97.836 534.975C93.682 535.779 89.126 536.248 84.704 536.248C75.19 536.248 73.381 533.166 73.381 530.017C73.381 528.275 73.783 526.198 74.319 523.987Z" fill="#150B0E"/>
<path d="M1613.52 60.4599V66.4229C1615.12 66.2889 1618.41 66.1549 1620.89 66.1549H1653.05V101.062C1653.05 103.474 1652.91 105.953 1652.91 106.958H1658.94C1658.88 105.953 1658.67 102.938 1658.67 100.526V65.8869C1658.67 64.3459 1658.74 62.2019 1658.81 60.7279C1657.47 60.7949 1655.53 60.8619 1653.85 60.8619H1620.89C1618.68 60.8619 1615.79 60.6609 1613.52 60.4599ZM1612.71 97.4439V103.541C1614.52 103.34 1617.54 103.273 1620.28 103.273H1656.06V97.7789H1620.08C1617.34 97.7789 1614.39 97.5779 1612.71 97.4439ZM1680.99 62.7379V68.7679C1683 68.7009 1685.27 68.6339 1687.55 68.6339C1690.83 68.6339 1712.94 68.6339 1716.29 68.6339C1718.51 68.6339 1721.05 68.7009 1722.86 68.7679V62.7379C1721.05 62.9389 1718.71 63.0729 1716.29 63.0729C1712.88 63.0729 1691.77 63.0729 1687.55 63.0729C1685.34 63.0729 1683.13 62.9389 1680.99 62.7379ZM1675.22 95.9699V102.402C1677.43 102.201 1679.78 102.067 1682.26 102.067C1686.08 102.067 1718.51 102.067 1722.39 102.067C1724.13 102.067 1726.48 102.201 1728.49 102.402V95.9699C1726.55 96.1709 1724.33 96.3049 1722.39 96.3049C1718.51 96.3049 1686.08 96.3049 1682.26 96.3049C1679.78 96.3049 1677.5 96.1039 1675.22 95.9699ZM1747.18 59.7899L1748.52 64.8149C1754.48 64.6809 1763.73 64.4799 1771.23 63.4749C1776.59 62.7379 1782.83 61.5319 1786.71 60.5939C1787.72 60.3259 1788.99 59.9909 1790.46 59.5889L1786.91 54.8989C1783.63 56.3729 1775.79 57.9809 1769.69 58.7849C1762.39 59.7899 1752.21 60.0579 1747.18 59.7899ZM1750.93 105.484L1756.16 109.102C1768.69 101.933 1773.38 92.0839 1773.38 77.8129C1773.38 77.8129 1773.38 67.2269 1773.38 62.0009L1768.02 62.7379C1768.02 71.9169 1768.02 77.9469 1768.02 77.9469C1768.02 91.7489 1762.32 100.124 1750.93 105.484ZM1741.96 75.7359V81.2969C1743.56 81.1629 1745.77 81.0959 1747.92 81.0959C1752.07 81.0959 1787.98 81.0959 1792 81.0959C1793.68 81.0959 1795.76 81.1629 1797.23 81.2969V75.8029C1795.82 75.9369 1793.34 76.0709 1791.94 76.0709C1787.78 76.0709 1752.14 76.0709 1747.85 76.0709C1745.77 76.0709 1743.43 75.8699 1741.96 75.7359ZM1861.75 61.6659L1857.66 59.1199C1856.46 59.3879 1854.85 59.4549 1853.44 59.4549C1849.62 59.4549 1821.28 59.4549 1819.01 59.4549C1816.12 59.4549 1813.65 59.4549 1811.9 59.3209C1812.04 60.7279 1812.1 62.2019 1812.1 63.7429C1812.1 66.6239 1812.1 75.9369 1812.1 78.0809C1812.1 79.3539 1812.04 80.7609 1811.9 82.3689H1817.93C1817.8 80.6939 1817.8 79.0189 1817.8 78.0809C1817.8 75.9369 1817.8 66.5569 1817.8 64.6809C1822.56 64.6809 1850.96 64.6809 1854.72 64.6809C1854.05 72.5869 1852.17 81.1629 1848.35 87.0589C1842.92 95.6349 1833.34 101.464 1823.49 104.144L1828.05 108.7C1838.84 105.216 1847.95 98.3819 1853.38 89.8729C1858.27 82.3019 1859.67 72.7209 1860.88 64.8149C1860.95 64.1449 1861.42 62.3359 1861.75 61.6659Z" fill="#150B0E"/>
<path d="M92.3974 687.105V693.068C94.0054 692.934 97.2884 692.8 99.7674 692.8H131.927V727.707C131.927 730.119 131.793 732.598 131.793 733.603H137.823C137.756 732.598 137.555 729.583 137.555 727.171V692.532C137.555 690.991 137.622 688.847 137.689 687.373C136.349 687.44 134.406 687.507 132.731 687.507H99.7674C97.5564 687.507 94.6754 687.306 92.3974 687.105ZM91.5934 724.089V730.186C93.4024 729.985 96.4174 729.918 99.1644 729.918H134.942V724.424H98.9634C96.2164 724.424 93.2684 724.223 91.5934 724.089ZM159.866 689.383V695.413C161.876 695.346 164.154 695.279 166.432 695.279C169.715 695.279 191.825 695.279 195.175 695.279C197.386 695.279 199.932 695.346 201.741 695.413V689.383C199.932 689.584 197.587 689.718 195.175 689.718C191.758 689.718 170.653 689.718 166.432 689.718C164.221 689.718 162.01 689.584 159.866 689.383ZM154.104 722.615V729.047C156.315 728.846 158.66 728.712 161.139 728.712C164.958 728.712 197.386 728.712 201.272 728.712C203.014 728.712 205.359 728.846 207.369 729.047V722.615C205.426 722.816 203.215 722.95 201.272 722.95C197.386 722.95 164.958 722.95 161.139 722.95C158.66 722.95 156.382 722.749 154.104 722.615ZM226.062 686.435L227.402 691.46C233.365 691.326 242.611 691.125 250.115 690.12C255.475 689.383 261.706 688.177 265.592 687.239C266.597 686.971 267.87 686.636 269.344 686.234L265.793 681.544C262.51 683.018 254.671 684.626 248.574 685.43C241.271 686.435 231.087 686.703 226.062 686.435ZM229.814 732.129L235.04 735.747C247.569 728.578 252.259 718.729 252.259 704.458C252.259 704.458 252.259 693.872 252.259 688.646L246.899 689.383C246.899 698.562 246.899 704.592 246.899 704.592C246.899 718.394 241.204 726.769 229.814 732.129ZM220.836 702.381V707.942C222.444 707.808 224.655 707.741 226.799 707.741C230.953 707.741 266.865 707.741 270.885 707.741C272.56 707.741 274.637 707.808 276.111 707.942V702.448C274.704 702.582 272.225 702.716 270.818 702.716C266.664 702.716 231.02 702.716 226.732 702.716C224.655 702.716 222.31 702.515 220.836 702.381ZM340.632 688.311L336.545 685.765C335.339 686.033 333.731 686.1 332.324 686.1C328.505 686.1 300.164 686.1 297.886 686.1C295.005 686.1 292.526 686.1 290.784 685.966C290.918 687.373 290.985 688.847 290.985 690.388C290.985 693.269 290.985 702.582 290.985 704.726C290.985 705.999 290.918 707.406 290.784 709.014H296.814C296.68 707.339 296.68 705.664 296.68 704.726C296.68 702.582 296.68 693.202 296.68 691.326C301.437 691.326 329.845 691.326 333.597 691.326C332.927 699.232 331.051 707.808 327.232 713.704C321.805 722.28 312.224 728.109 302.375 730.789L306.931 735.345C317.718 731.861 326.83 725.027 332.257 716.518C337.148 708.947 338.555 699.366 339.761 691.46C339.828 690.79 340.297 688.981 340.632 688.311Z" fill="#150B0E"/>
<path d="M1191.04 699.814V705.777C1192.65 705.643 1195.93 705.509 1198.41 705.509H1230.57V740.416C1230.57 742.828 1230.43 745.307 1230.43 746.312H1236.46C1236.4 745.307 1236.2 742.292 1236.2 739.88V705.241C1236.2 703.7 1236.26 701.556 1236.33 700.082C1234.99 700.149 1233.05 700.216 1231.37 700.216H1198.41C1196.2 700.216 1193.32 700.015 1191.04 699.814ZM1190.23 736.798V742.895C1192.04 742.694 1195.06 742.627 1197.81 742.627H1233.58V737.133H1197.6C1194.86 737.133 1191.91 736.932 1190.23 736.798ZM1258.51 702.092V708.122C1260.52 708.055 1262.8 707.988 1265.07 707.988C1268.36 707.988 1290.47 707.988 1293.82 707.988C1296.03 707.988 1298.57 708.055 1300.38 708.122V702.092C1298.57 702.293 1296.23 702.427 1293.82 702.427C1290.4 702.427 1269.29 702.427 1265.07 702.427C1262.86 702.427 1260.65 702.293 1258.51 702.092ZM1252.75 735.324V741.756C1254.96 741.555 1257.3 741.421 1259.78 741.421C1263.6 741.421 1296.03 741.421 1299.91 741.421C1301.66 741.421 1304 741.555 1306.01 741.756V735.324C1304.07 735.525 1301.86 735.659 1299.91 735.659C1296.03 735.659 1263.6 735.659 1259.78 735.659C1257.3 735.659 1255.02 735.458 1252.75 735.324ZM1324.7 699.144L1326.04 704.169C1332.01 704.035 1341.25 703.834 1348.76 702.829C1354.12 702.092 1360.35 700.886 1364.23 699.948C1365.24 699.68 1366.51 699.345 1367.99 698.943L1364.43 694.253C1361.15 695.727 1353.31 697.335 1347.22 698.139C1339.91 699.144 1329.73 699.412 1324.7 699.144ZM1328.46 744.838L1333.68 748.456C1346.21 741.287 1350.9 731.438 1350.9 717.167C1350.9 717.167 1350.9 706.581 1350.9 701.355L1345.54 702.092C1345.54 711.271 1345.54 717.301 1345.54 717.301C1345.54 731.103 1339.85 739.478 1328.46 744.838ZM1319.48 715.09V720.651C1321.09 720.517 1323.3 720.45 1325.44 720.45C1329.59 720.45 1365.51 720.45 1369.53 720.45C1371.2 720.45 1373.28 720.517 1374.75 720.651V715.157C1373.35 715.291 1370.87 715.425 1369.46 715.425C1365.31 715.425 1329.66 715.425 1325.37 715.425C1323.3 715.425 1320.95 715.224 1319.48 715.09ZM1439.27 701.02L1435.19 698.474C1433.98 698.742 1432.37 698.809 1430.97 698.809C1427.15 698.809 1398.81 698.809 1396.53 698.809C1393.65 698.809 1391.17 698.809 1389.43 698.675C1389.56 700.082 1389.63 701.556 1389.63 703.097C1389.63 705.978 1389.63 715.291 1389.63 717.435C1389.63 718.708 1389.56 720.115 1389.43 721.723H1395.46C1395.32 720.048 1395.32 718.373 1395.32 717.435C1395.32 715.291 1395.32 705.911 1395.32 704.035C1400.08 704.035 1428.49 704.035 1432.24 704.035C1431.57 711.941 1429.69 720.517 1425.87 726.413C1420.45 734.989 1410.87 740.818 1401.02 743.498L1405.57 748.054C1416.36 744.57 1425.47 737.736 1430.9 729.227C1435.79 721.656 1437.2 712.075 1438.4 704.169C1438.47 703.499 1438.94 701.69 1439.27 701.02Z" fill="#150B0E"/>
<path d="M739.99 92.8045L733.826 92.2015C733.826 97.3605 732.888 103.39 731.682 108.683C729.873 116.924 724.513 134.813 716.875 144.997L722.302 147.208C729.873 134.947 734.697 118.264 736.975 108.884C737.846 104.73 738.784 99.2365 739.186 96.8245C739.454 95.4845 739.722 94.0775 739.99 92.8045ZM763.105 99.9735L758.214 102.184C762.904 107.678 768.13 119.537 770.14 126.438L775.299 123.959C773.088 117.728 767.259 105.4 763.105 99.9735ZM715.87 107.544L716.473 113.306C718.148 113.038 720.962 112.703 722.503 112.502C726.59 112.1 739.119 110.626 743.608 110.626C747.896 110.626 750.71 111.765 750.71 117.862C750.71 125.098 749.705 133.875 747.561 138.364C746.154 141.312 744.144 141.848 741.665 141.848C739.789 141.848 736.305 141.312 733.491 140.441L734.362 146.069C736.506 146.538 739.655 147.007 742.268 147.007C746.556 147.007 749.906 145.935 752.05 141.446C754.797 135.885 755.869 125.232 755.869 117.259C755.869 108.147 750.978 105.869 745.015 105.869C740.459 105.869 726.858 107.41 721.9 107.544C719.756 107.611 718.014 107.611 715.87 107.544ZM725.652 175.953L725.853 181.447C727.461 181.246 729.404 181.045 730.878 180.978C733.893 180.844 742.067 180.442 744.747 180.375C742.469 185.132 739.454 192.033 736.774 197.862C734.228 203.49 731.213 211.262 728.466 214.88C727.059 216.689 725.92 217.225 724.379 217.225C722.302 217.225 720.359 215.684 720.359 212.669C720.359 206.505 726.724 200.274 737.846 200.274C751.648 200.274 763.909 207.711 771.748 214.478L774.227 208.783C766.991 203.624 753.725 195.584 738.65 195.584C725.049 195.584 715.535 203.289 715.535 213.406C715.535 218.967 719.22 222.585 724.178 222.585C727.662 222.585 730.275 221.312 732.62 217.895C735.501 213.741 739.186 204.629 741.866 198.733C744.948 191.832 748.633 183.256 750.777 179.772C751.313 178.901 751.849 178.231 752.519 177.494L749.169 174.814C748.231 175.149 747.092 175.417 745.819 175.484C743.005 175.752 734.228 176.154 730.677 176.154C729.27 176.154 727.327 176.087 725.652 175.953ZM767.527 190.626L762.033 190.023C762.234 191.966 762.167 194.244 762.033 196.254C761.296 206.17 758.415 218.833 742.67 225.466L747.092 229.151C762.703 221.312 766.589 209.721 767.527 190.626ZM749.035 251.933H743.34C743.541 252.804 743.608 254.814 743.608 255.953C743.608 260.643 743.608 267.678 743.608 273.708C743.608 279.604 744.278 292.468 744.278 297.627C744.278 302.317 740.995 303.456 737.109 303.456C730.476 303.456 727.863 301.178 727.863 298.029C727.863 294.947 731.28 292.468 737.712 292.468C749.638 292.468 759.554 299.168 765.584 304.729L768.666 299.972C763.507 295.751 752.452 288.113 738.315 288.113C728.667 288.113 722.838 292.2 722.838 298.297C722.838 304.796 728.131 308.213 737.779 308.213C746.489 308.213 749.571 303.456 749.571 298.766C749.571 294.277 748.566 282.552 748.566 273.708C748.566 268.08 748.566 259.102 748.7 256.422C748.767 254.412 748.901 253.072 749.035 251.933ZM723.441 259.169L723.508 264.127C727.729 264.663 735.97 265.266 740.593 265.266C749.571 265.266 759.152 264.395 766.723 263.524V258.633C758.013 260.04 749.035 260.643 740.526 260.643C736.104 260.643 727.729 259.973 723.441 259.169ZM723.106 273.44L723.173 278.465C727.93 279.001 735.3 279.336 739.923 279.336C749.973 279.336 758.147 278.867 767.259 277.728V272.703C758.549 273.976 749.638 274.646 739.923 274.646C735.501 274.646 727.863 274.177 723.106 273.44ZM733.491 332.871H726.657C727.059 334.814 727.26 337.159 727.26 339.638C727.26 346.673 726.59 363.624 726.59 373.54C726.59 384.528 733.223 388.481 742.871 388.481C757.544 388.481 766.254 380.106 770.81 373.741L767.058 369.185C762.234 376.153 755.266 382.987 743.005 382.987C736.64 382.987 732.017 380.441 732.017 373.071C732.017 363.088 732.553 347.209 732.821 339.638C732.955 337.427 733.156 335.082 733.491 332.871ZM740.325 412.402L733.96 411.866C734.094 413.273 733.96 415.551 733.692 417.427C733.223 420.911 731.481 429.353 729.873 435.517C727.327 444.964 722.637 458.565 718.617 465.533L724.446 467.476C727.997 460.173 732.486 446.304 734.898 436.79C736.774 430.09 738.181 422.519 739.186 417.695C739.454 416.422 739.923 413.876 740.325 412.402ZM725.518 423.591C723.039 423.591 720.627 423.457 717.478 423.055L717.612 428.281C720.091 428.482 722.436 428.549 725.384 428.549C732.62 428.549 742.737 427.41 751.045 425.534V420.308C742.737 422.385 732.888 423.591 725.518 423.591ZM746.69 432.77V437.795C750.777 437.326 754.931 437.058 759.085 437.058C763.038 437.058 766.924 437.46 770.408 437.862L770.542 432.77C766.924 432.368 762.837 432.234 758.951 432.234C754.663 432.234 750.174 432.435 746.69 432.77ZM748.03 449.051L743.072 448.582C742.469 451.396 742.067 453.942 742.067 456.488C742.067 463.121 747.829 466.337 758.348 466.337C763.239 466.337 767.728 465.935 771.346 465.399L771.547 460.039C767.393 460.843 762.837 461.312 758.415 461.312C748.901 461.312 747.092 458.23 747.092 455.081C747.092 453.339 747.494 451.262 748.03 449.051Z" fill="#150B0E"/>
<path d="M140.279 847.74L134.115 847.137C134.115 852.296 133.177 858.326 131.971 863.619C130.162 871.86 124.802 889.749 117.164 899.933L122.591 902.144C130.162 889.883 134.986 873.2 137.264 863.82C138.135 859.666 139.073 854.172 139.475 851.76C139.743 850.42 140.011 849.013 140.279 847.74ZM163.394 854.909L158.503 857.12C163.193 862.614 168.419 874.473 170.429 881.374L175.588 878.895C173.377 872.664 167.548 860.336 163.394 854.909ZM116.159 862.48L116.762 868.242C118.437 867.974 121.251 867.639 122.792 867.438C126.879 867.036 139.408 865.562 143.897 865.562C148.185 865.562 150.999 866.701 150.999 872.798C150.999 880.034 149.994 888.811 147.85 893.3C146.443 896.248 144.433 896.784 141.954 896.784C140.078 896.784 136.594 896.248 133.78 895.377L134.651 901.005C136.795 901.474 139.944 901.943 142.557 901.943C146.845 901.943 150.195 900.871 152.339 896.382C155.086 890.821 156.158 880.168 156.158 872.195C156.158 863.083 151.267 860.805 145.304 860.805C140.748 860.805 127.147 862.346 122.189 862.48C120.045 862.547 118.303 862.547 116.159 862.48ZM192.941 850.889L193.142 856.383C194.75 856.182 196.693 855.981 198.167 855.914C201.182 855.78 209.356 855.378 212.036 855.311C209.758 860.068 206.743 866.969 204.063 872.798C201.517 878.426 198.502 886.198 195.755 889.816C194.348 891.625 193.209 892.161 191.668 892.161C189.591 892.161 187.648 890.62 187.648 887.605C187.648 881.441 194.013 875.21 205.135 875.21C218.937 875.21 231.198 882.647 239.037 889.414L241.516 883.719C234.28 878.56 221.014 870.52 205.939 870.52C192.338 870.52 182.824 878.225 182.824 888.342C182.824 893.903 186.509 897.521 191.467 897.521C194.951 897.521 197.564 896.248 199.909 892.831C202.79 888.677 206.475 879.565 209.155 873.669C212.237 866.768 215.922 858.192 218.066 854.708C218.602 853.837 219.138 853.167 219.808 852.43L216.458 849.75C215.52 850.085 214.381 850.353 213.108 850.42C210.294 850.688 201.517 851.09 197.966 851.09C196.559 851.09 194.616 851.023 192.941 850.889ZM234.816 865.562L229.322 864.959C229.523 866.902 229.456 869.18 229.322 871.19C228.585 881.106 225.704 893.769 209.959 900.402L214.381 904.087C229.992 896.248 233.878 884.657 234.816 865.562ZM283.324 846.869H277.629C277.83 847.74 277.897 849.75 277.897 850.889C277.897 855.579 277.897 862.614 277.897 868.644C277.897 874.54 278.567 887.404 278.567 892.563C278.567 897.253 275.284 898.392 271.398 898.392C264.765 898.392 262.152 896.114 262.152 892.965C262.152 889.883 265.569 887.404 272.001 887.404C283.927 887.404 293.843 894.104 299.873 899.665L302.955 894.908C297.796 890.687 286.741 883.049 272.604 883.049C262.956 883.049 257.127 887.136 257.127 893.233C257.127 899.732 262.42 903.149 272.068 903.149C280.778 903.149 283.86 898.392 283.86 893.702C283.86 889.213 282.855 877.488 282.855 868.644C282.855 863.016 282.855 854.038 282.989 851.358C283.056 849.348 283.19 848.008 283.324 846.869ZM257.73 854.105L257.797 859.063C262.018 859.599 270.259 860.202 274.882 860.202C283.86 860.202 293.441 859.331 301.012 858.46V853.569C292.302 854.976 283.324 855.579 274.815 855.579C270.393 855.579 262.018 854.909 257.73 854.105ZM257.395 868.376L257.462 873.401C262.219 873.937 269.589 874.272 274.212 874.272C284.262 874.272 292.436 873.803 301.548 872.664V867.639C292.838 868.912 283.927 869.582 274.212 869.582C269.79 869.582 262.152 869.113 257.395 868.376ZM334.78 847.807H327.946C328.348 849.75 328.549 852.095 328.549 854.574C328.549 861.609 327.879 878.56 327.879 888.476C327.879 899.464 334.512 903.417 344.16 903.417C358.833 903.417 367.543 895.042 372.099 888.677L368.347 884.121C363.523 891.089 356.555 897.923 344.294 897.923C337.929 897.923 333.306 895.377 333.306 888.007C333.306 878.024 333.842 862.145 334.11 854.574C334.244 852.363 334.445 850.018 334.78 847.807ZM408.614 847.338L402.249 846.802C402.383 848.209 402.249 850.487 401.981 852.363C401.512 855.847 399.77 864.289 398.162 870.453C395.616 879.9 390.926 893.501 386.906 900.469L392.735 902.412C396.286 895.109 400.775 881.24 403.187 871.726C405.063 865.026 406.47 857.455 407.475 852.631C407.743 851.358 408.212 848.812 408.614 847.338ZM393.807 858.527C391.328 858.527 388.916 858.393 385.767 857.991L385.901 863.217C388.38 863.418 390.725 863.485 393.673 863.485C400.909 863.485 411.026 862.346 419.334 860.47V855.244C411.026 857.321 401.177 858.527 393.807 858.527ZM414.979 867.706V872.731C419.066 872.262 423.22 871.994 427.374 871.994C431.327 871.994 435.213 872.396 438.697 872.798L438.831 867.706C435.213 867.304 431.126 867.17 427.24 867.17C422.952 867.17 418.463 867.371 414.979 867.706ZM416.319 883.987L411.361 883.518C410.758 886.332 410.356 888.878 410.356 891.424C410.356 898.057 416.118 901.273 426.637 901.273C431.528 901.273 436.017 900.871 439.635 900.335L439.836 894.975C435.682 895.779 431.126 896.248 426.704 896.248C417.19 896.248 415.381 893.166 415.381 890.017C415.381 888.275 415.783 886.198 416.319 883.987Z" fill="#150B0E"/>
<path d="M1487.34 447.805L1481.18 447.202C1481.18 452.361 1480.24 458.391 1479.04 463.684C1477.23 471.925 1471.87 489.814 1464.23 499.998L1469.66 502.209C1477.23 489.948 1482.05 473.265 1484.33 463.885C1485.2 459.731 1486.14 454.237 1486.54 451.825C1486.81 450.485 1487.08 449.078 1487.34 447.805ZM1510.46 454.974L1505.57 457.185C1510.26 462.679 1515.48 474.538 1517.49 481.439L1522.65 478.96C1520.44 472.729 1514.61 460.401 1510.46 454.974ZM1463.22 462.545L1463.83 468.307C1465.5 468.039 1468.32 467.704 1469.86 467.503C1473.94 467.101 1486.47 465.627 1490.96 465.627C1495.25 465.627 1498.06 466.766 1498.06 472.863C1498.06 480.099 1497.06 488.876 1494.92 493.365C1493.51 496.313 1491.5 496.849 1489.02 496.849C1487.14 496.849 1483.66 496.313 1480.85 495.442L1481.72 501.07C1483.86 501.539 1487.01 502.008 1489.62 502.008C1493.91 502.008 1497.26 500.936 1499.4 496.447C1502.15 490.886 1503.22 480.233 1503.22 472.26C1503.22 463.148 1498.33 460.87 1492.37 460.87C1487.81 460.87 1474.21 462.411 1469.25 462.545C1467.11 462.612 1465.37 462.612 1463.22 462.545ZM1540.01 450.954L1540.21 456.448C1541.82 456.247 1543.76 456.046 1545.23 455.979C1548.25 455.845 1556.42 455.443 1559.1 455.376C1556.82 460.133 1553.81 467.034 1551.13 472.863C1548.58 478.491 1545.57 486.263 1542.82 489.881C1541.41 491.69 1540.27 492.226 1538.73 492.226C1536.66 492.226 1534.71 490.685 1534.71 487.67C1534.71 481.506 1541.08 475.275 1552.2 475.275C1566 475.275 1578.26 482.712 1586.1 489.479L1588.58 483.784C1581.35 478.625 1568.08 470.585 1553 470.585C1539.4 470.585 1529.89 478.29 1529.89 488.407C1529.89 493.968 1533.57 497.586 1538.53 497.586C1542.02 497.586 1544.63 496.313 1546.97 492.896C1549.86 488.742 1553.54 479.63 1556.22 473.734C1559.3 466.833 1562.99 458.257 1565.13 454.773C1565.67 453.902 1566.2 453.232 1566.87 452.495L1563.52 449.815C1562.59 450.15 1561.45 450.418 1560.17 450.485C1557.36 450.753 1548.58 451.155 1545.03 451.155C1543.62 451.155 1541.68 451.088 1540.01 450.954ZM1581.88 465.627L1576.39 465.024C1576.59 466.967 1576.52 469.245 1576.39 471.255C1575.65 481.171 1572.77 493.834 1557.02 500.467L1561.45 504.152C1577.06 496.313 1580.94 484.722 1581.88 465.627ZM1630.39 446.934H1624.69C1624.9 447.805 1624.96 449.815 1624.96 450.954C1624.96 455.644 1624.96 462.679 1624.96 468.709C1624.96 474.605 1625.63 487.469 1625.63 492.628C1625.63 497.318 1622.35 498.457 1618.46 498.457C1611.83 498.457 1609.22 496.179 1609.22 493.03C1609.22 489.948 1612.63 487.469 1619.07 487.469C1630.99 487.469 1640.91 494.169 1646.94 499.73L1650.02 494.973C1644.86 490.752 1633.81 483.114 1619.67 483.114C1610.02 483.114 1604.19 487.201 1604.19 493.298C1604.19 499.797 1609.49 503.214 1619.13 503.214C1627.84 503.214 1630.93 498.457 1630.93 493.767C1630.93 489.278 1629.92 477.553 1629.92 468.709C1629.92 463.081 1629.92 454.103 1630.05 451.423C1630.12 449.413 1630.26 448.073 1630.39 446.934ZM1604.8 454.17L1604.86 459.128C1609.08 459.664 1617.32 460.267 1621.95 460.267C1630.93 460.267 1640.51 459.396 1648.08 458.525V453.634C1639.37 455.041 1630.39 455.644 1621.88 455.644C1617.46 455.644 1609.08 454.974 1604.8 454.17ZM1604.46 468.441L1604.53 473.466C1609.28 474.002 1616.65 474.337 1621.28 474.337C1631.33 474.337 1639.5 473.868 1648.61 472.729V467.704C1639.9 468.977 1630.99 469.647 1621.28 469.647C1616.86 469.647 1609.22 469.178 1604.46 468.441ZM1681.85 447.872H1675.01C1675.41 449.815 1675.61 452.16 1675.61 454.639C1675.61 461.674 1674.94 478.625 1674.94 488.541C1674.94 499.529 1681.58 503.482 1691.23 503.482C1705.9 503.482 1714.61 495.107 1719.16 488.742L1715.41 484.186C1710.59 491.154 1703.62 497.988 1691.36 497.988C1684.99 497.988 1680.37 495.442 1680.37 488.072C1680.37 478.089 1680.91 462.21 1681.18 454.639C1681.31 452.428 1681.51 450.083 1681.85 447.872ZM1755.68 447.403L1749.31 446.867C1749.45 448.274 1749.31 450.552 1749.05 452.428C1748.58 455.912 1746.84 464.354 1745.23 470.518C1742.68 479.965 1737.99 493.566 1733.97 500.534L1739.8 502.477C1743.35 495.174 1747.84 481.305 1750.25 471.791C1752.13 465.091 1753.54 457.52 1754.54 452.696C1754.81 451.423 1755.28 448.877 1755.68 447.403ZM1740.87 458.592C1738.39 458.592 1735.98 458.458 1732.83 458.056L1732.97 463.282C1735.45 463.483 1737.79 463.55 1740.74 463.55C1747.97 463.55 1758.09 462.411 1766.4 460.535V455.309C1758.09 457.386 1748.24 458.592 1740.87 458.592ZM1762.04 467.771V472.796C1766.13 472.327 1770.29 472.059 1774.44 472.059C1778.39 472.059 1782.28 472.461 1785.76 472.863L1785.9 467.771C1782.28 467.369 1778.19 467.235 1774.31 467.235C1770.02 467.235 1765.53 467.436 1762.04 467.771ZM1763.38 484.052L1758.43 483.583C1757.82 486.397 1757.42 488.943 1757.42 491.489C1757.42 498.122 1763.18 501.338 1773.7 501.338C1778.59 501.338 1783.08 500.936 1786.7 500.4L1786.9 495.04C1782.75 495.844 1778.19 496.313 1773.77 496.313C1764.26 496.313 1762.45 493.231 1762.45 490.082C1762.45 488.34 1762.85 486.263 1763.38 484.052Z" fill="#150B0E"/>
<path d="M1725.44 898.849V903.807H1763.3V898.849H1725.44ZM1728.06 866.019V870.843H1761.89V866.019H1728.06ZM1742.46 844.579V901.261H1747.55V844.579H1742.46ZM1701.99 856.639V861.262H1724.24V856.639H1701.99ZM1712.58 876.739V905.75H1717.54V870.776L1712.58 876.739ZM1712.58 844.11V858.917H1717.54V844.11H1712.58ZM1717.13 872.116L1714.25 874.662C1717 877.074 1723.57 883.439 1726.05 886.32L1729.13 882.233C1727.18 880.558 1719.41 873.724 1717.13 872.116ZM1722.36 856.639V857.711C1718.34 867.895 1708.76 878.079 1699.65 883.439C1700.52 884.31 1701.72 886.655 1702.26 887.928C1711.84 881.764 1722.09 870.642 1727.18 858.314L1724.3 856.438L1723.37 856.639H1722.36ZM1771.81 898.38L1772.48 903.338C1784.34 902.936 1802.49 902.132 1819.38 901.261L1819.58 896.638C1802.16 897.442 1783.46 898.112 1771.81 898.38ZM1771.2 877.677V882.434H1826.75V877.677H1771.2ZM1782.66 864.88V869.57H1814.69V864.88H1782.66ZM1789.56 880.692C1787.55 886.588 1783.6 894.896 1780.45 900.122L1784.94 901.596C1788.22 896.571 1792.11 888.732 1795.19 882.3L1789.56 880.692ZM1805.51 887.794C1811.47 893.154 1818.1 900.859 1821.12 905.884L1825.67 903.137C1822.53 898.045 1815.96 890.809 1809.8 885.516L1805.51 887.794ZM1798.54 849.001C1804.77 857.711 1816.56 866.689 1827.01 871.714C1827.89 870.24 1829.09 868.431 1830.3 867.225C1819.64 862.87 1807.92 854.093 1800.82 844.177H1795.66C1790.43 852.753 1779.24 862.468 1767.72 867.962C1768.79 869.034 1770.06 870.843 1770.67 872.049C1782.06 866.354 1793.05 857.175 1798.54 849.001Z" fill="#150B0E"/>
<path d="M1588.31 640.921C1589.11 644.405 1596.28 680.853 1596.95 685.074C1597.42 687.017 1597.62 689.094 1597.96 691.372L1604.12 690.233C1603.45 688.29 1602.92 686.012 1602.45 684.136C1601.51 679.714 1594.14 642.931 1593.74 639.983C1593.47 638.509 1593.2 636.566 1593.07 635.36L1587.1 636.365C1587.57 637.772 1587.98 639.246 1588.31 640.921ZM1569.42 650.636L1570.62 656.599C1572.57 656.13 1574.17 655.795 1575.98 655.46C1581.88 654.455 1604.73 650.837 1611.63 649.765C1613.44 649.497 1615.45 649.162 1616.45 649.095L1615.38 643.467C1614.24 643.802 1612.5 644.204 1610.55 644.539C1604.19 645.812 1581.07 649.497 1575.04 650.167C1572.9 650.368 1571.09 650.502 1569.42 650.636ZM1569.22 669.932L1570.42 675.828C1571.9 675.426 1573.77 675.024 1576.38 674.555C1583.15 673.349 1607.34 669.396 1616.25 668.056C1618.73 667.654 1620.87 667.252 1622.28 667.118L1621.14 661.49C1619.73 661.892 1617.79 662.361 1615.24 662.83C1607.2 664.304 1582.28 668.391 1575.11 669.329C1573.37 669.597 1570.82 669.865 1569.22 669.932ZM1661.47 649.765L1656.52 651.44C1657.92 654.388 1661.01 662.897 1661.74 665.979L1666.7 664.17C1665.9 661.289 1662.61 652.445 1661.47 649.765ZM1685.73 653.517L1679.97 651.641C1678.89 660.217 1675.48 668.793 1670.72 674.622C1665.23 681.456 1656.65 686.548 1648.95 688.826L1653.37 693.315C1660.8 690.501 1668.98 685.275 1675.21 677.436C1679.97 671.406 1682.91 664.17 1684.66 656.8C1684.92 655.929 1685.26 654.857 1685.73 653.517ZM1645.86 653.115L1640.91 654.991C1642.25 657.336 1645.86 666.649 1646.94 670.133L1651.96 668.257C1650.75 664.706 1647.2 655.929 1645.86 653.115ZM1749.65 643.534L1746.3 640.921C1745.22 641.256 1743.42 641.457 1741.27 641.457C1738.73 641.457 1718.02 641.457 1715.41 641.457C1713.33 641.457 1709.51 641.189 1708.64 641.055V647.085C1709.38 647.018 1713 646.75 1715.41 646.75C1717.69 646.75 1739.13 646.75 1741.54 646.75C1739.8 652.311 1734.91 660.284 1730.35 665.443C1723.45 673.081 1713.6 681.121 1702.75 685.275L1707.03 689.764C1717.62 684.94 1727.2 676.967 1734.71 668.592C1740.27 662.428 1745.36 653.048 1748.04 646.415C1748.37 645.544 1749.24 644.07 1749.65 643.534ZM1735.58 665.108L1731.76 668.86C1738.99 675.225 1746.83 683.801 1751.66 690.166L1756.28 686.079C1751.72 680.518 1742.81 671.138 1735.58 665.108Z" fill="#150B0E"/>
<path d="M1280.56 901.314V906.875C1282.36 906.741 1284.51 906.674 1286.52 906.674C1290.2 906.674 1309.03 906.674 1312.78 906.674C1315.06 906.674 1317.41 906.741 1318.95 906.875V901.314C1317.34 901.515 1314.99 901.649 1312.92 901.649C1308.96 901.649 1290.14 901.649 1286.52 901.649C1284.37 901.649 1282.3 901.515 1280.56 901.314ZM1323.9 918.935L1320.09 916.59C1319.35 916.925 1317.87 917.126 1316.33 917.126C1312.92 917.126 1284.37 917.126 1281.09 917.126C1279.22 917.126 1276.94 916.925 1274.53 916.724V922.352C1276.94 922.151 1279.48 922.084 1281.09 922.084C1285.11 922.084 1313.32 922.084 1316.6 922.084C1315.4 926.975 1312.72 932.67 1308.7 936.891C1302.93 942.921 1294.56 947.276 1285.11 949.219L1289.27 953.976C1297.77 951.564 1306.22 947.678 1313.18 939.973C1318.21 934.479 1321.22 927.511 1322.97 920.945C1323.1 920.409 1323.57 919.605 1323.9 918.935ZM1347.29 902.118L1343.4 906.205C1348.43 909.488 1356.73 916.724 1360.15 920.208L1364.31 915.92C1360.62 912.235 1351.98 905.267 1347.29 902.118ZM1341.53 947.008L1345.01 952.502C1356.2 950.425 1364.64 946.271 1371.41 942.05C1381.52 935.685 1389.3 926.573 1393.85 918.265L1390.64 912.503C1386.75 920.811 1378.64 930.727 1368.26 937.226C1361.89 941.179 1353.18 945.266 1341.53 947.008ZM1443.03 902.989L1439.28 904.597C1441.49 907.612 1443.63 911.297 1445.31 914.848L1449.13 913.106C1447.59 909.89 1444.71 905.401 1443.03 902.989ZM1451.07 899.639L1447.45 901.381C1449.66 904.329 1451.87 907.88 1453.62 911.431L1457.37 909.555C1455.83 906.406 1452.88 901.984 1451.07 899.639ZM1419.51 946.137C1419.51 948.683 1419.38 951.966 1419.04 954.11H1425.54C1425.28 951.899 1425.14 948.281 1425.14 946.137C1425.14 942.988 1425.07 917.662 1425.07 907.21C1425.07 905.2 1425.34 902.252 1425.54 900.242H1418.98C1419.31 902.319 1419.51 905.267 1419.51 907.21C1419.51 912.838 1419.51 942.452 1419.51 946.137ZM1423.87 917.796V923.692C1431.17 925.97 1443.7 930.727 1451.34 934.814L1453.68 929.186C1446.25 925.501 1432.78 920.342 1423.87 917.796Z" fill="#150B0E"/>
<path d="M702.549 764.914V774.093H707.641V764.914H702.549ZM686.67 772.083V776.438H723.922V772.083H686.67ZM683.99 787.761V792.183H725.798V787.761H683.99ZM692.968 777.041C694.375 780.726 695.581 785.55 695.782 788.498L700.338 787.359C700.07 784.478 698.797 779.788 697.323 776.17L692.968 777.041ZM712.867 776.036C712.063 779.386 710.455 784.411 709.115 787.56L713.403 788.297C714.81 785.282 716.418 780.726 717.825 776.773L712.867 776.036ZM684.325 798.816V803.171H725.53V798.816H684.325ZM699.668 790.977C696.72 798.28 692.097 808.196 688.747 814.159L693.102 815.633C696.519 809.469 701.276 799.687 704.693 791.982L699.668 790.977ZM692.164 813.288C702.415 816.37 714.944 822.065 721.108 826.621L724.324 822.802C717.825 818.112 705.229 812.752 695.112 809.871L692.164 813.288ZM712.867 801.63C709.986 814.695 701.946 820.39 682.65 822.333C683.454 823.405 684.325 825.147 684.66 826.554C705.363 823.807 714.542 817.308 717.758 802.367L712.867 801.63ZM663.421 800.558L664.56 805.516C670.523 803.707 678.228 801.295 685.531 799.017L684.928 794.528C677.022 796.806 668.848 799.218 663.421 800.558ZM664.56 778.448V783.138H684.995V778.448H664.56ZM673.672 764.981V820.457C673.672 821.462 673.27 821.73 672.399 821.73C671.595 821.797 668.781 821.797 665.766 821.663C666.436 823.07 667.106 825.281 667.307 826.554C671.662 826.554 674.409 826.42 676.151 825.549C677.893 824.745 678.496 823.338 678.496 820.457V764.981H673.672ZM759.432 775.969V780.525H788.309V775.969H759.432ZM760.839 765.048C758.762 775.768 755.01 785.952 749.717 792.384C750.789 793.054 752.799 794.528 753.536 795.265C758.963 788.23 762.983 777.443 765.462 765.919L760.839 765.048ZM768.008 777.979C764.993 791.312 759.432 802.836 751.191 810.005C752.263 810.809 754.005 812.484 754.675 813.288C763.05 805.382 769.013 793.188 772.43 778.85L768.008 777.979ZM778.326 778.18C775.378 796.672 769.683 811.814 758.896 820.993C759.901 821.797 761.71 823.472 762.38 824.41C773.435 814.293 779.465 798.615 782.882 778.85L778.326 778.18ZM786.835 775.969V777.108C785.495 807.191 783.954 818.179 781.743 820.725C781.006 821.663 780.336 821.797 779.197 821.797C777.924 821.797 775.177 821.797 772.095 821.529C772.832 822.802 773.301 824.812 773.435 826.085C776.383 826.286 779.331 826.286 781.14 826.152C783.15 825.884 784.49 825.348 785.83 823.472C788.51 820.189 789.984 809.737 791.458 778.515C791.458 777.845 791.525 775.969 791.525 775.969H786.835ZM736.451 771.346V775.969H745.764V804.109H736.451V808.799H750.32V771.346H736.451ZM733.771 771.346V815.231H738.394V771.346H733.771Z" fill="#150B0E"/>
<path d="M823.673 621.393C824.477 624.877 831.646 661.325 832.316 665.546C832.785 667.489 832.986 669.566 833.321 671.844L839.485 670.705C838.815 668.762 838.279 666.484 837.81 664.608C836.872 660.186 829.502 623.403 829.1 620.455C828.832 618.981 828.564 617.038 828.43 615.832L822.467 616.837C822.936 618.244 823.338 619.718 823.673 621.393ZM804.779 631.108L805.985 637.071C807.928 636.602 809.536 636.267 811.345 635.932C817.241 634.927 840.088 631.309 846.989 630.237C848.798 629.969 850.808 629.634 851.813 629.567L850.741 623.939C849.602 624.274 847.86 624.676 845.917 625.011C839.552 626.284 816.437 629.969 810.407 630.639C808.263 630.84 806.454 630.974 804.779 631.108ZM804.578 650.404L805.784 656.3C807.258 655.898 809.134 655.496 811.747 655.027C818.514 653.821 842.701 649.868 851.612 648.528C854.091 648.126 856.235 647.724 857.642 647.59L856.503 641.962C855.096 642.364 853.153 642.833 850.607 643.302C842.567 644.776 817.643 648.863 810.474 649.801C808.732 650.069 806.186 650.337 804.578 650.404ZM915.981 624.006L912.631 621.393C911.559 621.728 909.75 621.929 907.606 621.929C905.06 621.929 884.357 621.929 881.744 621.929C879.667 621.929 875.848 621.661 874.977 621.527V627.557C875.714 627.49 879.332 627.222 881.744 627.222C884.022 627.222 905.462 627.222 907.874 627.222C906.132 632.783 901.241 640.756 896.685 645.915C889.784 653.553 879.935 661.593 869.081 665.747L873.369 670.236C883.955 665.412 893.536 657.439 901.04 649.064C906.601 642.9 911.693 633.52 914.373 626.887C914.708 626.016 915.579 624.542 915.981 624.006ZM901.911 645.58L898.092 649.332C905.328 655.697 913.167 664.273 917.991 670.638L922.614 666.551C918.058 660.99 909.147 651.61 901.911 645.58ZM944.925 618.914V624.475C946.734 624.341 948.878 624.274 950.888 624.274C954.573 624.274 973.4 624.274 977.152 624.274C979.43 624.274 981.775 624.341 983.316 624.475V618.914C981.708 619.115 979.363 619.249 977.286 619.249C973.333 619.249 954.506 619.249 950.888 619.249C948.744 619.249 946.667 619.115 944.925 618.914ZM988.274 636.535L984.455 634.19C983.718 634.525 982.244 634.726 980.703 634.726C977.286 634.726 948.744 634.726 945.461 634.726C943.585 634.726 941.307 634.525 938.895 634.324V639.952C941.307 639.751 943.853 639.684 945.461 639.684C949.481 639.684 977.688 639.684 980.971 639.684C979.765 644.575 977.085 650.27 973.065 654.491C967.303 660.521 958.928 664.876 949.481 666.819L953.635 671.576C962.144 669.164 970.586 665.278 977.554 657.573C982.579 652.079 985.594 645.111 987.336 638.545C987.47 638.009 987.939 637.205 988.274 636.535ZM1011.66 619.718L1007.77 623.805C1012.8 627.088 1021.1 634.324 1024.52 637.808L1028.67 633.52C1024.99 629.835 1016.35 622.867 1011.66 619.718ZM1005.89 664.608L1009.38 670.102C1020.57 668.025 1029.01 663.871 1035.78 659.65C1045.89 653.285 1053.67 644.173 1058.22 635.865L1055.01 630.103C1051.12 638.411 1043.01 648.327 1032.63 654.826C1026.26 658.779 1017.55 662.866 1005.89 664.608ZM1107.4 620.589L1103.65 622.197C1105.86 625.212 1108 628.897 1109.68 632.448L1113.5 630.706C1111.96 627.49 1109.07 623.001 1107.4 620.589ZM1115.44 617.239L1111.82 618.981C1114.03 621.929 1116.24 625.48 1117.99 629.031L1121.74 627.155C1120.2 624.006 1117.25 619.584 1115.44 617.239ZM1083.88 663.737C1083.88 666.283 1083.75 669.566 1083.41 671.71H1089.91C1089.64 669.499 1089.51 665.881 1089.51 663.737C1089.51 660.588 1089.44 635.262 1089.44 624.81C1089.44 622.8 1089.71 619.852 1089.91 617.842H1083.35C1083.68 619.919 1083.88 622.867 1083.88 624.81C1083.88 630.438 1083.88 660.052 1083.88 663.737ZM1088.24 635.396V641.292C1095.54 643.57 1108.07 648.327 1115.71 652.414L1118.05 646.786C1110.62 643.101 1097.15 637.942 1088.24 635.396Z" fill="#150B0E"/>
<path d="M905.673 302.871V308.298C910.966 308.767 916.728 309.035 923.428 309.035C929.592 309.035 936.895 308.566 941.451 308.231V302.737C936.627 303.273 929.86 303.675 923.428 303.675C916.661 303.675 910.497 303.407 905.673 302.871ZM908.353 329.872L902.926 329.336C902.323 332.016 901.586 335.165 901.586 338.649C901.586 347.091 909.492 351.513 923.093 351.513C932.607 351.513 941.116 350.508 945.94 349.235L945.873 343.473C940.781 345.081 932.138 346.086 922.959 346.086C912.239 346.086 907.013 342.602 907.013 337.443C907.013 334.964 907.549 332.485 908.353 329.872ZM993.644 300.124L987.681 297.712C986.877 299.722 986.006 301.33 985.269 302.938C981.584 309.37 966.911 336.84 962.02 350.374L967.782 352.384C968.72 349.101 971.534 341.128 973.611 337.175C976.157 331.882 981.249 326.388 986.609 326.388C989.624 326.388 991.366 328.197 991.5 331.078C991.701 334.763 991.634 339.922 991.835 343.875C992.036 347.828 994.381 352.317 1001.55 352.317C1011.27 352.317 1016.89 344.813 1020.44 334.026L1015.96 330.408C1014.28 337.577 1009.86 346.823 1002.35 346.823C999.473 346.823 997.195 345.349 996.994 341.999C996.726 338.716 996.86 333.624 996.726 329.671C996.525 324.378 993.309 321.497 988.82 321.497C985.604 321.497 982.12 322.77 978.904 325.651C982.321 319.152 988.485 308.03 991.5 303.407C992.237 302.134 993.041 300.928 993.644 300.124ZM1054.48 304.613L1054.55 310.04C1061.85 310.844 1074.85 310.844 1082.02 310.04V304.613C1075.38 305.618 1061.78 305.886 1054.48 304.613ZM1057.09 331.949L1052.27 331.48C1051.53 334.696 1051.2 337.108 1051.2 339.319C1051.2 345.617 1056.22 349.369 1067.41 349.369C1074.38 349.369 1080.01 348.833 1084.16 347.962L1084.03 342.334C1078.67 343.607 1073.44 344.143 1067.48 344.143C1058.3 344.143 1056.16 341.128 1056.16 338.046C1056.16 336.237 1056.49 334.361 1057.09 331.949ZM1041.75 299.454L1035.79 298.985C1035.72 300.459 1035.52 302.134 1035.32 303.675C1034.51 309.236 1032.3 320.693 1032.3 330.542C1032.3 339.654 1033.44 347.359 1034.78 352.116L1039.54 351.781C1039.47 351.044 1039.41 350.106 1039.34 349.436C1039.34 348.632 1039.47 347.359 1039.67 346.421C1040.28 343.205 1042.76 336.17 1044.43 331.413L1041.62 329.202C1040.48 331.949 1038.94 335.969 1037.8 338.984C1037.4 335.701 1037.19 332.887 1037.19 329.671C1037.19 322.1 1039.27 310.174 1040.54 303.943C1040.81 302.737 1041.35 300.593 1041.75 299.454ZM1119.34 297.377L1113.31 297.109C1113.44 298.918 1113.31 300.526 1113.04 302.67C1112.23 309.102 1108.68 325.718 1103.59 335.701L1108.55 337.443C1109.22 336.304 1109.82 335.366 1110.63 334.361C1115.05 329.068 1122.49 326.321 1130.46 326.321C1138.3 326.321 1142.38 330.207 1142.38 335.165C1142.38 346.22 1127.38 348.833 1111.83 346.689L1113.24 352.049C1133.61 354.193 1147.88 349.034 1147.88 335.031C1147.88 327.192 1141.65 321.765 1130.99 321.765C1124.03 321.765 1118 323.44 1112.17 327.527C1114.45 321.296 1117.13 308.365 1118.06 303.005C1118.47 301.263 1118.8 299.186 1119.34 297.377ZM1098.5 305.953L1098.57 311.179C1102.39 311.514 1106.67 311.849 1111.23 311.849C1120.41 311.849 1134.08 310.509 1143.59 308.834L1143.46 303.675C1132.94 306.02 1119.74 307.025 1111.16 307.025C1107.14 307.025 1102.05 306.556 1098.5 305.953ZM1184.66 310.241L1184.73 315.333C1188.61 315.601 1192.1 315.735 1195.98 315.735C1203.82 315.735 1212 315.199 1219.1 313.993V308.834C1212.33 310.241 1204.09 310.844 1196.05 310.844C1192.1 310.844 1188.48 310.643 1184.66 310.241ZM1208.11 298.248H1202.08C1202.28 299.454 1202.35 301.196 1202.35 302.402C1202.35 304.747 1202.42 308.968 1202.42 313.591C1202.42 322.435 1203.29 334.964 1203.29 339.788C1203.29 344.277 1201.68 347.091 1196.05 347.091C1191.16 347.091 1187.88 345.282 1187.88 341.798C1187.88 338.582 1191.36 336.371 1196.39 336.371C1204.9 336.371 1211.66 340.927 1218.7 347.493L1221.58 343.071C1215.95 337.979 1208.11 332.284 1196.86 332.284C1188.01 332.284 1183.05 336.706 1183.05 342.334C1183.05 348.364 1187.94 351.982 1196.92 351.982C1205.97 351.982 1208.51 346.622 1208.51 341.128C1208.51 334.227 1207.51 323.775 1207.51 313.457C1207.51 309.504 1207.58 304.747 1207.71 302.268C1207.78 300.995 1207.91 299.588 1208.11 298.248ZM1175.08 298.717L1169.18 298.181C1169.12 299.655 1168.98 301.397 1168.72 303.005C1167.91 308.499 1165.63 321.296 1165.63 331.145C1165.63 340.19 1166.91 347.56 1168.18 352.384L1172.94 351.982C1172.87 351.312 1172.8 350.307 1172.74 349.637C1172.67 348.9 1172.8 347.56 1173 346.622C1173.67 343.339 1176.15 336.505 1177.83 331.815L1175.08 329.671C1173.94 332.418 1172.27 336.505 1171.19 339.587C1170.73 336.304 1170.52 333.49 1170.52 330.207C1170.52 322.703 1172.53 309.437 1173.87 303.206C1174.14 302 1174.68 299.789 1175.08 298.717Z" fill="#150B0E"/>
<path d="M136.113 1004.81V1010.23C141.406 1010.7 147.168 1010.97 153.868 1010.97C160.032 1010.97 167.335 1010.5 171.891 1010.17V1004.67C167.067 1005.21 160.3 1005.61 153.868 1005.61C147.101 1005.61 140.937 1005.34 136.113 1004.81ZM138.793 1031.81L133.366 1031.27C132.763 1033.95 132.026 1037.1 132.026 1040.59C132.026 1049.03 139.932 1053.45 153.533 1053.45C163.047 1053.45 171.556 1052.44 176.38 1051.17L176.313 1045.41C171.221 1047.02 162.578 1048.02 153.399 1048.02C142.679 1048.02 137.453 1044.54 137.453 1039.38C137.453 1036.9 137.989 1034.42 138.793 1031.81ZM224.084 1002.06L218.121 999.648C217.317 1001.66 216.446 1003.27 215.709 1004.87C212.024 1011.31 197.351 1038.78 192.46 1052.31L198.222 1054.32C199.16 1051.04 201.974 1043.06 204.051 1039.11C206.597 1033.82 211.689 1028.32 217.049 1028.32C220.064 1028.32 221.806 1030.13 221.94 1033.01C222.141 1036.7 222.074 1041.86 222.275 1045.81C222.476 1049.76 224.821 1054.25 231.99 1054.25C241.705 1054.25 247.333 1046.75 250.884 1035.96L246.395 1032.34C244.72 1039.51 240.298 1048.76 232.794 1048.76C229.913 1048.76 227.635 1047.29 227.434 1043.94C227.166 1040.65 227.3 1035.56 227.166 1031.61C226.965 1026.31 223.749 1023.43 219.26 1023.43C216.044 1023.43 212.56 1024.71 209.344 1027.59C212.761 1021.09 218.925 1009.97 221.94 1005.34C222.677 1004.07 223.481 1002.86 224.084 1002.06ZM284.92 1006.55L284.987 1011.98C292.29 1012.78 305.288 1012.78 312.457 1011.98V1006.55C305.824 1007.55 292.223 1007.82 284.92 1006.55ZM287.533 1033.89L282.709 1033.42C281.972 1036.63 281.637 1039.04 281.637 1041.26C281.637 1047.55 286.662 1051.31 297.851 1051.31C304.819 1051.31 310.447 1050.77 314.601 1049.9L314.467 1044.27C309.107 1045.54 303.881 1046.08 297.918 1046.08C288.739 1046.08 286.595 1043.06 286.595 1039.98C286.595 1038.17 286.93 1036.3 287.533 1033.89ZM272.19 1001.39L266.227 1000.92C266.16 1002.4 265.959 1004.07 265.758 1005.61C264.954 1011.17 262.743 1022.63 262.743 1032.48C262.743 1041.59 263.882 1049.3 265.222 1054.05L269.979 1053.72C269.912 1052.98 269.845 1052.04 269.778 1051.37C269.778 1050.57 269.912 1049.3 270.113 1048.36C270.716 1045.14 273.195 1038.11 274.87 1033.35L272.056 1031.14C270.917 1033.89 269.376 1037.91 268.237 1040.92C267.835 1037.64 267.634 1034.82 267.634 1031.61C267.634 1024.04 269.711 1012.11 270.984 1005.88C271.252 1004.67 271.788 1002.53 272.19 1001.39ZM349.776 999.313L343.746 999.045C343.88 1000.85 343.746 1002.46 343.478 1004.61C342.674 1011.04 339.123 1027.65 334.031 1037.64L338.989 1039.38C339.659 1038.24 340.262 1037.3 341.066 1036.3C345.488 1031 352.925 1028.26 360.898 1028.26C368.737 1028.26 372.824 1032.14 372.824 1037.1C372.824 1048.16 357.816 1050.77 342.272 1048.63L343.679 1053.99C364.047 1056.13 378.318 1050.97 378.318 1036.97C378.318 1029.13 372.087 1023.7 361.434 1023.7C354.466 1023.7 348.436 1025.38 342.607 1029.46C344.885 1023.23 347.565 1010.3 348.503 1004.94C348.905 1003.2 349.24 1001.12 349.776 999.313ZM328.939 1007.89L329.006 1013.12C332.825 1013.45 337.113 1013.79 341.669 1013.79C350.848 1013.79 364.516 1012.45 374.03 1010.77L373.896 1005.61C363.377 1007.96 350.178 1008.96 341.602 1008.96C337.582 1008.96 332.49 1008.49 328.939 1007.89ZM415.101 1012.18L415.168 1017.27C419.054 1017.54 422.538 1017.67 426.424 1017.67C434.263 1017.67 442.437 1017.14 449.539 1015.93V1010.77C442.772 1012.18 434.531 1012.78 426.491 1012.78C422.538 1012.78 418.92 1012.58 415.101 1012.18ZM438.551 1000.18H432.521C432.722 1001.39 432.789 1003.13 432.789 1004.34C432.789 1006.68 432.856 1010.9 432.856 1015.53C432.856 1024.37 433.727 1036.9 433.727 1041.72C433.727 1046.21 432.119 1049.03 426.491 1049.03C421.6 1049.03 418.317 1047.22 418.317 1043.73C418.317 1040.52 421.801 1038.31 426.826 1038.31C435.335 1038.31 442.102 1042.86 449.137 1049.43L452.018 1045.01C446.39 1039.92 438.551 1034.22 427.295 1034.22C418.451 1034.22 413.493 1038.64 413.493 1044.27C413.493 1050.3 418.384 1053.92 427.362 1053.92C436.407 1053.92 438.953 1048.56 438.953 1043.06C438.953 1036.16 437.948 1025.71 437.948 1015.39C437.948 1011.44 438.015 1006.68 438.149 1004.2C438.216 1002.93 438.35 1001.52 438.551 1000.18ZM405.52 1000.65L399.624 1000.12C399.557 1001.59 399.423 1003.33 399.155 1004.94C398.351 1010.44 396.073 1023.23 396.073 1033.08C396.073 1042.13 397.346 1049.5 398.619 1054.32L403.376 1053.92C403.309 1053.25 403.242 1052.24 403.175 1051.57C403.108 1050.84 403.242 1049.5 403.443 1048.56C404.113 1045.28 406.592 1038.44 408.267 1033.75L405.52 1031.61C404.381 1034.35 402.706 1038.44 401.634 1041.52C401.165 1038.24 400.964 1035.43 400.964 1032.14C400.964 1024.64 402.974 1011.37 404.314 1005.14C404.582 1003.94 405.118 1001.73 405.52 1000.65Z" fill="#150B0E"/>
<path d="M1222.89 30.105V36.068C1224.49 35.934 1227.78 35.8 1230.26 35.8H1262.42V70.707C1262.42 73.119 1262.28 75.598 1262.28 76.603H1268.31C1268.25 75.598 1268.04 72.583 1268.04 70.171V35.532C1268.04 33.991 1268.11 31.847 1268.18 30.373C1266.84 30.44 1264.9 30.507 1263.22 30.507H1230.26C1228.05 30.507 1225.16 30.306 1222.89 30.105ZM1222.08 67.089V73.186C1223.89 72.985 1226.91 72.918 1229.65 72.918H1265.43V67.424H1229.45C1226.71 67.424 1223.76 67.223 1222.08 67.089ZM1290.36 32.383V38.413C1292.37 38.346 1294.64 38.279 1296.92 38.279C1300.2 38.279 1322.31 38.279 1325.66 38.279C1327.88 38.279 1330.42 38.346 1332.23 38.413V32.383C1330.42 32.584 1328.08 32.718 1325.66 32.718C1322.25 32.718 1301.14 32.718 1296.92 32.718C1294.71 32.718 1292.5 32.584 1290.36 32.383ZM1284.59 65.615V72.047C1286.8 71.846 1289.15 71.712 1291.63 71.712C1295.45 71.712 1327.88 71.712 1331.76 71.712C1333.5 71.712 1335.85 71.846 1337.86 72.047V65.615C1335.92 65.816 1333.7 65.95 1331.76 65.95C1327.88 65.95 1295.45 65.95 1291.63 65.95C1289.15 65.95 1286.87 65.749 1284.59 65.615ZM1356.55 29.435L1357.89 34.46C1363.85 34.326 1373.1 34.125 1380.6 33.12C1385.96 32.383 1392.2 31.177 1396.08 30.239C1397.09 29.971 1398.36 29.636 1399.83 29.234L1396.28 24.544C1393 26.018 1385.16 27.626 1379.06 28.43C1371.76 29.435 1361.58 29.703 1356.55 29.435ZM1360.3 75.129L1365.53 78.747C1378.06 71.578 1382.75 61.729 1382.75 47.458C1382.75 47.458 1382.75 36.872 1382.75 31.646L1377.39 32.383C1377.39 41.562 1377.39 47.592 1377.39 47.592C1377.39 61.394 1371.69 69.769 1360.3 75.129ZM1351.33 45.381V50.942C1352.93 50.808 1355.14 50.741 1357.29 50.741C1361.44 50.741 1397.35 50.741 1401.37 50.741C1403.05 50.741 1405.13 50.808 1406.6 50.942V45.448C1405.19 45.582 1402.71 45.716 1401.31 45.716C1397.15 45.716 1361.51 45.716 1357.22 45.716C1355.14 45.716 1352.8 45.515 1351.33 45.381ZM1471.12 31.311L1467.03 28.765C1465.83 29.033 1464.22 29.1 1462.81 29.1C1458.99 29.1 1430.65 29.1 1428.38 29.1C1425.49 29.1 1423.02 29.1 1421.27 28.966C1421.41 30.373 1421.47 31.847 1421.47 33.388C1421.47 36.269 1421.47 45.582 1421.47 47.726C1421.47 48.999 1421.41 50.406 1421.27 52.014H1427.3C1427.17 50.339 1427.17 48.664 1427.17 47.726C1427.17 45.582 1427.17 36.202 1427.17 34.326C1431.93 34.326 1460.33 34.326 1464.09 34.326C1463.42 42.232 1461.54 50.808 1457.72 56.704C1452.29 65.28 1442.71 71.109 1432.86 73.789L1437.42 78.345C1448.21 74.861 1457.32 68.027 1462.75 59.518C1467.64 51.947 1469.04 42.366 1470.25 34.46C1470.32 33.79 1470.79 31.981 1471.12 31.311Z" fill="#150B0E"/>
<path d="M972.285 952.946V962.125H977.377V952.946H972.285ZM956.406 960.115V964.47H993.658V960.115H956.406ZM953.726 975.793V980.215H995.534V975.793H953.726ZM962.704 965.073C964.111 968.758 965.317 973.582 965.518 976.53L970.074 975.391C969.806 972.51 968.533 967.82 967.059 964.202L962.704 965.073ZM982.603 964.068C981.799 967.418 980.191 972.443 978.851 975.592L983.139 976.329C984.546 973.314 986.154 968.758 987.561 964.805L982.603 964.068ZM954.061 986.848V991.203H995.266V986.848H954.061ZM969.404 979.009C966.456 986.312 961.833 996.228 958.483 1002.19L962.838 1003.66C966.255 997.501 971.012 987.719 974.429 980.014L969.404 979.009ZM961.9 1001.32C972.151 1004.4 984.68 1010.1 990.844 1014.65L994.06 1010.83C987.561 1006.14 974.965 1000.78 964.848 997.903L961.9 1001.32ZM982.603 989.662C979.722 1002.73 971.682 1008.42 952.386 1010.36C953.19 1011.44 954.061 1013.18 954.396 1014.59C975.099 1011.84 984.278 1005.34 987.494 990.399L982.603 989.662ZM933.157 988.59L934.296 993.548C940.259 991.739 947.964 989.327 955.267 987.049L954.664 982.56C946.758 984.838 938.584 987.25 933.157 988.59ZM934.296 966.48V971.17H954.731V966.48H934.296ZM943.408 953.013V1008.49C943.408 1009.49 943.006 1009.76 942.135 1009.76C941.331 1009.83 938.517 1009.83 935.502 1009.69C936.172 1011.1 936.842 1013.31 937.043 1014.59C941.398 1014.59 944.145 1014.45 945.887 1013.58C947.629 1012.78 948.232 1011.37 948.232 1008.49V953.013H943.408ZM1029.17 964.001V968.557H1058.04V964.001H1029.17ZM1030.57 953.08C1028.5 963.8 1024.75 973.984 1019.45 980.416C1020.52 981.086 1022.53 982.56 1023.27 983.297C1028.7 976.262 1032.72 965.475 1035.2 953.951L1030.57 953.08ZM1037.74 966.011C1034.73 979.344 1029.17 990.868 1020.93 998.037C1022 998.841 1023.74 1000.52 1024.41 1001.32C1032.79 993.414 1038.75 981.22 1042.17 966.882L1037.74 966.011ZM1048.06 966.212C1045.11 984.704 1039.42 999.846 1028.63 1009.02C1029.64 1009.83 1031.45 1011.5 1032.12 1012.44C1043.17 1002.32 1049.2 986.647 1052.62 966.882L1048.06 966.212ZM1056.57 964.001V965.14C1055.23 995.223 1053.69 1006.21 1051.48 1008.76C1050.74 1009.69 1050.07 1009.83 1048.93 1009.83C1047.66 1009.83 1044.91 1009.83 1041.83 1009.56C1042.57 1010.83 1043.04 1012.84 1043.17 1014.12C1046.12 1014.32 1049.07 1014.32 1050.88 1014.18C1052.89 1013.92 1054.23 1013.38 1055.57 1011.5C1058.25 1008.22 1059.72 997.769 1061.19 966.547C1061.19 965.877 1061.26 964.001 1061.26 964.001H1056.57ZM1006.19 959.378V964.001H1015.5V992.141H1006.19V996.831H1020.06V959.378H1006.19ZM1003.51 959.378V1003.26H1008.13V959.378H1003.51Z" fill="#150B0E"/>
<path d="M270.715 487.74L264.551 487.137C264.551 492.296 263.613 498.326 262.407 503.619C260.598 511.86 255.238 529.749 247.6 539.933L253.027 542.144C260.598 529.883 265.422 513.2 267.7 503.82C268.571 499.666 269.509 494.172 269.911 491.76C270.179 490.42 270.447 489.013 270.715 487.74ZM293.83 494.909L288.939 497.12C293.629 502.614 298.855 514.473 300.865 521.374L306.024 518.895C303.813 512.664 297.984 500.336 293.83 494.909ZM246.595 502.48L247.198 508.242C248.873 507.974 251.687 507.639 253.228 507.438C257.315 507.036 269.844 505.562 274.333 505.562C278.621 505.562 281.435 506.701 281.435 512.798C281.435 520.034 280.43 528.811 278.286 533.3C276.879 536.248 274.869 536.784 272.39 536.784C270.514 536.784 267.03 536.248 264.216 535.377L265.087 541.005C267.231 541.474 270.38 541.943 272.993 541.943C277.281 541.943 280.631 540.871 282.775 536.382C285.522 530.821 286.594 520.168 286.594 512.195C286.594 503.083 281.703 500.805 275.74 500.805C271.184 500.805 257.583 502.346 252.625 502.48C250.481 502.547 248.739 502.547 246.595 502.48ZM323.377 490.889L323.578 496.383C325.186 496.182 327.129 495.981 328.603 495.914C331.618 495.78 339.792 495.378 342.472 495.311C340.194 500.068 337.179 506.969 334.499 512.798C331.953 518.426 328.938 526.198 326.191 529.816C324.784 531.625 323.645 532.161 322.104 532.161C320.027 532.161 318.084 530.62 318.084 527.605C318.084 521.441 324.449 515.21 335.571 515.21C349.373 515.21 361.634 522.647 369.473 529.414L371.952 523.719C364.716 518.56 351.45 510.52 336.375 510.52C322.774 510.52 313.26 518.225 313.26 528.342C313.26 533.903 316.945 537.521 321.903 537.521C325.387 537.521 328 536.248 330.345 532.831C333.226 528.677 336.911 519.565 339.591 513.669C342.673 506.768 346.358 498.192 348.502 494.708C349.038 493.837 349.574 493.167 350.244 492.43L346.894 489.75C345.956 490.085 344.817 490.353 343.544 490.42C340.73 490.688 331.953 491.09 328.402 491.09C326.995 491.09 325.052 491.023 323.377 490.889ZM365.252 505.562L359.758 504.959C359.959 506.902 359.892 509.18 359.758 511.19C359.021 521.106 356.14 533.769 340.395 540.402L344.817 544.087C360.428 536.248 364.314 524.657 365.252 505.562ZM413.76 486.869H408.065C408.266 487.74 408.333 489.75 408.333 490.889C408.333 495.579 408.333 502.614 408.333 508.644C408.333 514.54 409.003 527.404 409.003 532.563C409.003 537.253 405.72 538.392 401.834 538.392C395.201 538.392 392.588 536.114 392.588 532.965C392.588 529.883 396.005 527.404 402.437 527.404C414.363 527.404 424.279 534.104 430.309 539.665L433.391 534.908C428.232 530.687 417.177 523.049 403.04 523.049C393.392 523.049 387.563 527.136 387.563 533.233C387.563 539.732 392.856 543.149 402.504 543.149C411.214 543.149 414.296 538.392 414.296 533.702C414.296 529.213 413.291 517.488 413.291 508.644C413.291 503.016 413.291 494.038 413.425 491.358C413.492 489.348 413.626 488.008 413.76 486.869ZM388.166 494.105L388.233 499.063C392.454 499.599 400.695 500.202 405.318 500.202C414.296 500.202 423.877 499.331 431.448 498.46V493.569C422.738 494.976 413.76 495.579 405.251 495.579C400.829 495.579 392.454 494.909 388.166 494.105ZM387.831 508.376L387.898 513.401C392.655 513.937 400.025 514.272 404.648 514.272C414.698 514.272 422.872 513.803 431.984 512.664V507.639C423.274 508.912 414.363 509.582 404.648 509.582C400.226 509.582 392.588 509.113 387.831 508.376ZM465.216 487.807H458.382C458.784 489.75 458.985 492.095 458.985 494.574C458.985 501.609 458.315 518.56 458.315 528.476C458.315 539.464 464.948 543.417 474.596 543.417C489.269 543.417 497.979 535.042 502.535 528.677L498.783 524.121C493.959 531.089 486.991 537.923 474.73 537.923C468.365 537.923 463.742 535.377 463.742 528.007C463.742 518.024 464.278 502.145 464.546 494.574C464.68 492.363 464.881 490.018 465.216 487.807ZM539.05 487.338L532.685 486.802C532.819 488.209 532.685 490.487 532.417 492.363C531.948 495.847 530.206 504.289 528.598 510.453C526.052 519.9 521.362 533.501 517.342 540.469L523.171 542.412C526.722 535.109 531.211 521.24 533.623 511.726C535.499 505.026 536.906 497.455 537.911 492.631C538.179 491.358 538.648 488.812 539.05 487.338ZM524.243 498.527C521.764 498.527 519.352 498.393 516.203 497.991L516.337 503.217C518.816 503.418 521.161 503.485 524.109 503.485C531.345 503.485 541.462 502.346 549.77 500.47V495.244C541.462 497.321 531.613 498.527 524.243 498.527ZM545.415 507.706V512.731C549.502 512.262 553.656 511.994 557.81 511.994C561.763 511.994 565.649 512.396 569.133 512.798L569.267 507.706C565.649 507.304 561.562 507.17 557.676 507.17C553.388 507.17 548.899 507.371 545.415 507.706ZM546.755 523.987L541.797 523.518C541.194 526.332 540.792 528.878 540.792 531.424C540.792 538.057 546.554 541.273 557.073 541.273C561.964 541.273 566.453 540.871 570.071 540.335L570.272 534.975C566.118 535.779 561.562 536.248 557.14 536.248C547.626 536.248 545.817 533.166 545.817 530.017C545.817 528.275 546.219 526.198 546.755 523.987Z" fill="#150B0E"/>
<path d="M154.992 60.4599V66.4229C156.6 66.2889 159.883 66.1549 162.362 66.1549H194.522V101.062C194.522 103.474 194.388 105.953 194.388 106.958H200.418C200.351 105.953 200.15 102.938 200.15 100.526V65.8869C200.15 64.3459 200.217 62.2019 200.284 60.7279C198.944 60.7949 197.001 60.8619 195.326 60.8619H162.362C160.151 60.8619 157.27 60.6609 154.992 60.4599ZM154.188 97.4439V103.541C155.997 103.34 159.012 103.273 161.759 103.273H197.537V97.7789H161.558C158.811 97.7789 155.863 97.5779 154.188 97.4439ZM222.461 62.7379V68.7679C224.471 68.7009 226.749 68.6339 229.027 68.6339C232.31 68.6339 254.42 68.6339 257.77 68.6339C259.981 68.6339 262.527 68.7009 264.336 68.7679V62.7379C262.527 62.9389 260.182 63.0729 257.77 63.0729C254.353 63.0729 233.248 63.0729 229.027 63.0729C226.816 63.0729 224.605 62.9389 222.461 62.7379ZM216.699 95.9699V102.402C218.91 102.201 221.255 102.067 223.734 102.067C227.553 102.067 259.981 102.067 263.867 102.067C265.609 102.067 267.954 102.201 269.964 102.402V95.9699C268.021 96.1709 265.81 96.3049 263.867 96.3049C259.981 96.3049 227.553 96.3049 223.734 96.3049C221.255 96.3049 218.977 96.1039 216.699 95.9699ZM288.657 59.7899L289.997 64.8149C295.96 64.6809 305.206 64.4799 312.71 63.4749C318.07 62.7379 324.301 61.5319 328.187 60.5939C329.192 60.3259 330.465 59.9909 331.939 59.5889L328.388 54.8989C325.105 56.3729 317.266 57.9809 311.169 58.7849C303.866 59.7899 293.682 60.0579 288.657 59.7899ZM292.409 105.484L297.635 109.102C310.164 101.933 314.854 92.0839 314.854 77.8129C314.854 77.8129 314.854 67.2269 314.854 62.0009L309.494 62.7379C309.494 71.9169 309.494 77.9469 309.494 77.9469C309.494 91.7489 303.799 100.124 292.409 105.484ZM283.431 75.7359V81.2969C285.039 81.1629 287.25 81.0959 289.394 81.0959C293.548 81.0959 329.46 81.0959 333.48 81.0959C335.155 81.0959 337.232 81.1629 338.706 81.2969V75.8029C337.299 75.9369 334.82 76.0709 333.413 76.0709C329.259 76.0709 293.615 76.0709 289.327 76.0709C287.25 76.0709 284.905 75.8699 283.431 75.7359ZM403.227 61.6659L399.14 59.1199C397.934 59.3879 396.326 59.4549 394.919 59.4549C391.1 59.4549 362.759 59.4549 360.481 59.4549C357.6 59.4549 355.121 59.4549 353.379 59.3209C353.513 60.7279 353.58 62.2019 353.58 63.7429C353.58 66.6239 353.58 75.9369 353.58 78.0809C353.58 79.3539 353.513 80.7609 353.379 82.3689H359.409C359.275 80.6939 359.275 79.0189 359.275 78.0809C359.275 75.9369 359.275 66.5569 359.275 64.6809C364.032 64.6809 392.44 64.6809 396.192 64.6809C395.522 72.5869 393.646 81.1629 389.827 87.0589C384.4 95.6349 374.819 101.464 364.97 104.144L369.526 108.7C380.313 105.216 389.425 98.3819 394.852 89.8729C399.743 82.3019 401.15 72.7209 402.356 64.8149C402.423 64.1449 402.892 62.3359 403.227 61.6659Z" fill="#150B0E"/>
</svg>
