<svg width="690" height="657" viewBox="0 0 690 657" fill="none" xmlns="http://www.w3.org/2000/svg">
<path d="M345 0L643.779 164.25V492.75L345 657L46.2212 492.75V164.25L345 0Z" fill="#6B7FD7"/>
<path d="M345 16.425L629.551 172.462V484.538L345 640.575L60.4488 484.538V172.462L345 16.425Z" fill="white"/>
<path d="M346.643 32.85L616.966 180.675V476.325L346.643 624.15L76.3192 476.325V180.675L346.643 32.85Z" fill="black"/>
<path d="M345 65.7L586.869 197.1V459.9L345 591.3L103.131 459.9V197.1L345 65.7Z" fill="#EEEEEE"/>
<line y1="-0.5" x2="266.077" y2="-0.5" transform="matrix(-0.907632 0.419766 -0.419916 -0.907563 586.5 195.458)" stroke="black"/>
<line y1="-0.5" x2="267.569" y2="-0.5" transform="matrix(0.908711 0.417425 -0.417575 0.908642 103.5 197.1)" stroke="black"/>
<line x1="346.143" y1="591.3" x2="346.133" y2="307.147" stroke="black"/>
<path d="M231.331 357.945L217.651 325.785L203.251 357.945H191.971L212.371 314.505L193.771 273.945H205.171L217.771 302.865L230.731 273.945H241.891L222.931 314.385L243.091 357.945H231.331ZM291.13 357.945C290.09 357.945 288.93 357.625 287.65 356.985C286.45 356.345 285.41 355.465 284.53 354.345C282.69 356.745 280.25 357.945 277.21 357.945H268.93C262.85 357.945 258.41 356.745 255.61 354.345C252.89 351.865 251.53 347.665 251.53 341.745V339.345C251.53 326.945 257.37 320.745 269.05 320.745H281.53V314.745C281.53 312.265 280.77 310.345 279.25 308.985C277.73 307.625 275.49 306.945 272.53 306.945H256.33V297.945H271.33C278.29 297.945 283.41 299.465 286.69 302.505C290.05 305.545 291.73 310.425 291.73 317.145V345.945C291.73 347.145 292.17 348.065 293.05 348.705C294.01 349.265 295.57 349.545 297.73 349.545V357.945H291.13ZM276.01 348.945C278.41 348.945 279.93 348.385 280.57 347.265C281.21 346.145 281.53 344.705 281.53 342.945V329.745H268.93C266.85 329.745 265.13 330.425 263.77 331.785C262.41 333.145 261.73 334.865 261.73 336.945V342.945C261.73 345.025 262.21 346.545 263.17 347.505C264.13 348.465 265.65 348.945 267.73 348.945H276.01ZM312.097 297.945H321.697V300.825C324.177 298.905 327.377 297.945 331.297 297.945H334.417C340.897 297.945 345.697 299.465 348.817 302.505C352.017 305.545 353.617 310.425 353.617 317.145V357.945H343.417V314.745C343.417 312.345 342.697 310.465 341.257 309.105C339.897 307.665 338.017 306.945 335.617 306.945H330.097C327.457 306.945 325.497 307.665 324.217 309.105C322.937 310.465 322.297 311.945 322.297 313.545V357.945H312.097V297.945ZM403.534 355.185C400.894 357.025 397.694 357.945 393.934 357.945H391.414C384.374 357.945 379.214 356.465 375.934 353.505C372.654 350.465 371.014 345.545 371.014 338.745V317.145C371.014 310.425 372.654 305.545 375.934 302.505C379.294 299.465 384.454 297.945 391.414 297.945H402.934V273.945H413.134V357.945H403.534V355.185ZM395.134 348.945C397.774 348.945 399.734 348.265 401.014 346.905C402.294 345.465 402.934 343.945 402.934 342.345V306.945H390.214C387.254 306.945 385.014 307.625 383.494 308.985C381.974 310.345 381.214 312.265 381.214 314.745V341.145C381.214 343.625 381.974 345.545 383.494 346.905C385.014 348.265 387.254 348.945 390.214 348.945H395.134ZM432.332 297.945H441.932V301.185C444.572 299.025 447.772 297.945 451.532 297.945H460.292V307.545H450.332C447.692 307.545 445.732 308.425 444.452 310.185C443.172 311.945 442.532 313.665 442.532 315.345V357.945H432.332V297.945ZM488.493 282.945C487.213 282.945 486.173 283.305 485.373 284.025C484.653 284.665 484.293 285.505 484.293 286.545V297.945H498.813V306.945H484.293V357.945H474.093V306.945H466.293V297.945H474.093V287.145C474.093 283.065 475.253 279.865 477.573 277.545C479.893 275.145 482.893 273.945 486.573 273.945H500.013V282.945H488.493Z" fill="black"/>
<path d="M231.331 357.945L230.41 358.336L230.669 358.945H231.331V357.945ZM217.651 325.785L218.571 325.394L217.674 323.286L216.738 325.376L217.651 325.785ZM203.251 357.945V358.945H203.899L204.163 358.354L203.251 357.945ZM191.971 357.945L191.065 357.52L190.396 358.945H191.971V357.945ZM212.371 314.505L213.276 314.93L213.473 314.51L213.28 314.088L212.371 314.505ZM193.771 273.945V272.945H192.212L192.862 274.362L193.771 273.945ZM205.171 273.945L206.087 273.546L205.826 272.945H205.171V273.945ZM217.771 302.865L216.854 303.264L217.758 305.339L218.683 303.274L217.771 302.865ZM230.731 273.945V272.945H230.083L229.818 273.536L230.731 273.945ZM241.891 273.945L242.796 274.37L243.464 272.945H241.891V273.945ZM222.931 314.385L222.025 313.961L221.827 314.382L222.023 314.805L222.931 314.385ZM243.091 357.945V358.945H244.655L243.998 357.525L243.091 357.945ZM232.251 357.554L218.571 325.394L216.73 326.176L230.41 358.336L232.251 357.554ZM216.738 325.376L202.338 357.536L204.163 358.354L218.563 326.194L216.738 325.376ZM203.251 356.945H191.971V358.945H203.251V356.945ZM192.876 358.37L213.276 314.93L211.465 314.08L191.065 357.52L192.876 358.37ZM213.28 314.088L194.68 273.528L192.862 274.362L211.462 314.922L213.28 314.088ZM193.771 274.945H205.171V272.945H193.771V274.945ZM204.254 274.344L216.854 303.264L218.687 302.466L206.087 273.546L204.254 274.344ZM218.683 303.274L231.643 274.354L229.818 273.536L216.858 302.456L218.683 303.274ZM230.731 274.945H241.891V272.945H230.731V274.945ZM240.985 273.52L222.025 313.961L223.836 314.81L242.796 274.37L240.985 273.52ZM222.023 314.805L242.183 358.365L243.998 357.525L223.838 313.965L222.023 314.805ZM243.091 356.945H231.331V358.945H243.091V356.945ZM287.65 356.985L287.179 357.867L287.191 357.874L287.203 357.879L287.65 356.985ZM284.53 354.345L285.316 353.727L284.52 352.714L283.736 353.737L284.53 354.345ZM255.61 354.345L254.936 355.084L254.948 355.094L254.959 355.104L255.61 354.345ZM281.53 320.745V321.745H282.53V320.745H281.53ZM279.25 308.985L279.917 308.24L279.25 308.985ZM256.33 306.945H255.33V307.945H256.33V306.945ZM256.33 297.945V296.945H255.33V297.945H256.33ZM286.69 302.505L286.01 303.238L286.019 303.247L286.69 302.505ZM293.05 348.705L292.462 349.514L292.503 349.543L292.546 349.569L293.05 348.705ZM297.73 349.545H298.73V348.545H297.73V349.545ZM297.73 357.945V358.945H298.73V357.945H297.73ZM280.57 347.265L279.702 346.769L280.57 347.265ZM281.53 329.745H282.53V328.745H281.53V329.745ZM263.77 331.785L263.063 331.078L263.77 331.785ZM263.17 347.505L262.463 348.212L263.17 347.505ZM291.13 356.945C290.292 356.945 289.288 356.686 288.097 356.091L287.203 357.879C288.572 358.564 289.888 358.945 291.13 358.945V356.945ZM288.121 356.103C287.049 355.531 286.115 354.743 285.316 353.727L283.744 354.963C284.705 356.187 285.851 357.159 287.179 357.867L288.121 356.103ZM283.736 353.737C282.087 355.888 279.941 356.945 277.21 356.945V358.945C280.559 358.945 283.293 357.602 285.324 354.953L283.736 353.737ZM277.21 356.945H268.93V358.945H277.21V356.945ZM268.93 356.945C262.945 356.945 258.794 355.757 256.261 353.586L254.959 355.104C258.026 357.733 262.755 358.945 268.93 358.945V356.945ZM256.284 353.606C253.869 351.404 252.53 347.55 252.53 341.745H250.53C250.53 347.78 251.911 352.326 254.936 355.084L256.284 353.606ZM252.53 341.745V339.345H250.53V341.745H252.53ZM252.53 339.345C252.53 333.285 253.958 328.926 256.638 326.081C259.307 323.247 263.38 321.745 269.05 321.745V319.745C263.04 319.745 258.353 321.343 255.182 324.709C252.022 328.064 250.53 333.005 250.53 339.345H252.53ZM269.05 321.745H281.53V319.745H269.05V321.745ZM282.53 320.745V314.745H280.53V320.745H282.53ZM282.53 314.745C282.53 312.047 281.694 309.83 279.917 308.24L278.583 309.73C279.846 310.86 280.53 312.483 280.53 314.745H282.53ZM279.917 308.24C278.146 306.655 275.627 305.945 272.53 305.945V307.945C275.353 307.945 277.314 308.595 278.583 309.73L279.917 308.24ZM272.53 305.945H256.33V307.945H272.53V305.945ZM257.33 306.945V297.945H255.33V306.945H257.33ZM256.33 298.945H271.33V296.945H256.33V298.945ZM271.33 298.945C278.173 298.945 282.995 300.444 286.01 303.238L287.37 301.772C283.825 298.486 278.407 296.945 271.33 296.945V298.945ZM286.019 303.247C289.086 306.021 290.73 310.57 290.73 317.145H292.73C292.73 310.28 291.014 305.069 287.361 301.763L286.019 303.247ZM290.73 317.145V345.945H292.73V317.145H290.73ZM290.73 345.945C290.73 347.427 291.294 348.664 292.462 349.514L293.638 347.896C293.046 347.466 292.73 346.863 292.73 345.945H290.73ZM292.546 349.569C293.746 350.268 295.531 350.545 297.73 350.545V348.545C295.609 348.545 294.274 348.262 293.554 347.841L292.546 349.569ZM296.73 349.545V357.945H298.73V349.545H296.73ZM297.73 356.945H291.13V358.945H297.73V356.945ZM276.01 349.945C278.464 349.945 280.508 349.389 281.438 347.761L279.702 346.769C279.352 347.381 278.356 347.945 276.01 347.945V349.945ZM281.438 347.761C282.19 346.445 282.53 344.818 282.53 342.945H280.53C280.53 344.592 280.23 345.845 279.702 346.769L281.438 347.761ZM282.53 342.945V329.745H280.53V342.945H282.53ZM281.53 328.745H268.93V330.745H281.53V328.745ZM268.93 328.745C266.609 328.745 264.627 329.514 263.063 331.078L264.477 332.492C265.633 331.336 267.091 330.745 268.93 330.745V328.745ZM263.063 331.078C261.499 332.642 260.73 334.624 260.73 336.945H262.73C262.73 335.106 263.321 333.648 264.477 332.492L263.063 331.078ZM260.73 336.945V342.945H262.73V336.945H260.73ZM260.73 342.945C260.73 345.152 261.236 346.985 262.463 348.212L263.877 346.798C263.184 346.105 262.73 344.898 262.73 342.945H260.73ZM262.463 348.212C263.69 349.439 265.523 349.945 267.73 349.945V347.945C265.777 347.945 264.57 347.491 263.877 346.798L262.463 348.212ZM267.73 349.945H276.01V347.945H267.73V349.945ZM312.097 297.945V296.945H311.097V297.945H312.097ZM321.697 297.945H322.697V296.945H321.697V297.945ZM321.697 300.825H320.697V302.864L322.309 301.616L321.697 300.825ZM348.817 302.505L348.119 303.221L348.128 303.23L348.817 302.505ZM353.617 357.945V358.945H354.617V357.945H353.617ZM343.417 357.945H342.417V358.945H343.417V357.945ZM341.257 309.105L340.53 309.792L340.55 309.812L340.571 309.832L341.257 309.105ZM324.217 309.105L324.945 309.79L324.955 309.78L324.965 309.769L324.217 309.105ZM322.297 357.945V358.945H323.297V357.945H322.297ZM312.097 357.945H311.097V358.945H312.097V357.945ZM312.097 298.945H321.697V296.945H312.097V298.945ZM320.697 297.945V300.825H322.697V297.945H320.697ZM322.309 301.616C324.574 299.862 327.542 298.945 331.297 298.945V296.945C327.212 296.945 323.78 297.948 321.085 300.034L322.309 301.616ZM331.297 298.945H334.417V296.945H331.297V298.945ZM334.417 298.945C340.762 298.945 345.26 300.435 348.119 303.221L349.515 301.789C346.134 298.495 341.032 296.945 334.417 296.945V298.945ZM348.128 303.23C351.046 306.002 352.617 310.557 352.617 317.145H354.617C354.617 310.293 352.988 305.088 349.506 301.78L348.128 303.23ZM352.617 317.145V357.945H354.617V317.145H352.617ZM353.617 356.945H343.417V358.945H353.617V356.945ZM344.417 357.945V314.745H342.417V357.945H344.417ZM344.417 314.745C344.417 312.133 343.625 309.966 341.944 308.378L340.571 309.832C341.769 310.964 342.417 312.557 342.417 314.745H344.417ZM341.984 308.418C340.396 306.737 338.23 305.945 335.617 305.945V307.945C337.805 307.945 339.398 308.593 340.53 309.792L341.984 308.418ZM335.617 305.945H330.097V307.945H335.617V305.945ZM330.097 305.945C327.282 305.945 325.002 306.717 323.47 308.441L324.965 309.769C325.992 308.613 327.633 307.945 330.097 307.945V305.945ZM323.489 308.42C322.066 309.932 321.297 311.648 321.297 313.545H323.297C323.297 312.242 323.809 310.998 324.945 309.79L323.489 308.42ZM321.297 313.545V357.945H323.297V313.545H321.297ZM322.297 356.945H312.097V358.945H322.297V356.945ZM313.097 357.945V297.945H311.097V357.945H313.097ZM403.534 355.185H404.534V353.269L402.963 354.365L403.534 355.185ZM375.934 353.505L375.255 354.239L375.264 354.247L375.934 353.505ZM375.934 302.505L375.263 301.763L375.255 301.772L375.934 302.505ZM402.934 297.945V298.945H403.934V297.945H402.934ZM402.934 273.945V272.945H401.934V273.945H402.934ZM413.134 273.945H414.134V272.945H413.134V273.945ZM413.134 357.945V358.945H414.134V357.945H413.134ZM403.534 357.945H402.534V358.945H403.534V357.945ZM401.014 346.905L401.743 347.59L401.752 347.58L401.762 347.569L401.014 346.905ZM402.934 306.945H403.934V305.945H402.934V306.945ZM383.494 308.985L384.161 309.73L383.494 308.985ZM383.494 346.905L384.161 346.16L383.494 346.905ZM402.963 354.365C400.517 356.069 397.525 356.945 393.934 356.945V358.945C397.863 358.945 401.272 357.981 404.106 356.005L402.963 354.365ZM393.934 356.945H391.414V358.945H393.934V356.945ZM391.414 356.945C384.482 356.945 379.618 355.482 376.604 352.763L375.264 354.247C378.811 357.448 384.266 358.945 391.414 358.945V356.945ZM376.614 352.772C373.624 350 372.014 345.411 372.014 338.745H370.014C370.014 345.679 371.684 350.93 375.255 354.238L376.614 352.772ZM372.014 338.745V317.145H370.014V338.745H372.014ZM372.014 317.145C372.014 310.564 373.622 306.011 376.614 303.238L375.255 301.772C371.687 305.079 370.014 310.286 370.014 317.145H372.014ZM376.605 303.247C379.705 300.442 384.574 298.945 391.414 298.945V296.945C384.335 296.945 378.884 298.488 375.263 301.763L376.605 303.247ZM391.414 298.945H402.934V296.945H391.414V298.945ZM403.934 297.945V273.945H401.934V297.945H403.934ZM402.934 274.945H413.134V272.945H402.934V274.945ZM412.134 273.945V357.945H414.134V273.945H412.134ZM413.134 356.945H403.534V358.945H413.134V356.945ZM404.534 357.945V355.185H402.534V357.945H404.534ZM395.134 349.945C397.934 349.945 400.206 349.223 401.743 347.59L400.286 346.22C399.262 347.307 397.615 347.945 395.134 347.945V349.945ZM401.762 347.569C403.17 345.986 403.934 344.238 403.934 342.345H401.934C401.934 343.652 401.419 344.944 400.267 346.241L401.762 347.569ZM403.934 342.345V306.945H401.934V342.345H403.934ZM402.934 305.945H390.214V307.945H402.934V305.945ZM390.214 305.945C387.118 305.945 384.599 306.655 382.828 308.24L384.161 309.73C385.43 308.595 387.391 307.945 390.214 307.945V305.945ZM382.828 308.24C381.05 309.83 380.214 312.047 380.214 314.745H382.214C382.214 312.483 382.898 310.86 384.161 309.73L382.828 308.24ZM380.214 314.745V341.145H382.214V314.745H380.214ZM380.214 341.145C380.214 343.843 381.05 346.06 382.828 347.65L384.161 346.16C382.898 345.03 382.214 343.407 382.214 341.145H380.214ZM382.828 347.65C384.599 349.235 387.118 349.945 390.214 349.945V347.945C387.391 347.945 385.43 347.295 384.161 346.16L382.828 347.65ZM390.214 349.945H395.134V347.945H390.214V349.945ZM432.332 297.945V296.945H431.332V297.945H432.332ZM441.932 297.945H442.932V296.945H441.932V297.945ZM441.932 301.185H440.932V303.295L442.565 301.959L441.932 301.185ZM460.292 297.945H461.292V296.945H460.292V297.945ZM460.292 307.545V308.545H461.292V307.545H460.292ZM444.452 310.185L443.643 309.597L444.452 310.185ZM442.532 357.945V358.945H443.532V357.945H442.532ZM432.332 357.945H431.332V358.945H432.332V357.945ZM432.332 298.945H441.932V296.945H432.332V298.945ZM440.932 297.945V301.185H442.932V297.945H440.932ZM442.565 301.959C445.008 299.96 447.977 298.945 451.532 298.945V296.945C447.566 296.945 444.136 298.09 441.298 300.411L442.565 301.959ZM451.532 298.945H460.292V296.945H451.532V298.945ZM459.292 297.945V307.545H461.292V297.945H459.292ZM460.292 306.545H450.332V308.545H460.292V306.545ZM450.332 306.545C447.448 306.545 445.152 307.522 443.643 309.597L445.26 310.773C446.311 309.328 447.935 308.545 450.332 308.545V306.545ZM443.643 309.597C442.275 311.477 441.532 313.399 441.532 315.345H443.532C443.532 313.931 444.068 312.413 445.26 310.773L443.643 309.597ZM441.532 315.345V357.945H443.532V315.345H441.532ZM442.532 356.945H432.332V358.945H442.532V356.945ZM433.332 357.945V297.945H431.332V357.945H433.332ZM485.372 284.025L486.037 284.772L486.041 284.768L485.372 284.025ZM484.293 297.945H483.293V298.945H484.293V297.945ZM498.812 297.945H499.812V296.945H498.812V297.945ZM498.812 306.945V307.945H499.812V306.945H498.812ZM484.293 306.945V305.945H483.293V306.945H484.293ZM484.293 357.945V358.945H485.293V357.945H484.293ZM474.092 357.945H473.092V358.945H474.092V357.945ZM474.092 306.945H475.092V305.945H474.092V306.945ZM466.293 306.945H465.293V307.945H466.293V306.945ZM466.293 297.945V296.945H465.293V297.945H466.293ZM474.092 297.945V298.945H475.092V297.945H474.092ZM477.573 277.545L478.28 278.252L478.286 278.246L478.292 278.24L477.573 277.545ZM500.013 273.945H501.013V272.945H500.013V273.945ZM500.013 282.945V283.945H501.013V282.945H500.013ZM488.492 281.945C487.015 281.945 485.721 282.366 484.704 283.282L486.041 284.768C486.624 284.244 487.41 283.945 488.492 283.945V281.945ZM484.708 283.278C483.756 284.124 483.293 285.245 483.293 286.545H485.293C485.293 285.765 485.549 285.206 486.037 284.772L484.708 283.278ZM483.293 286.545V297.945H485.293V286.545H483.293ZM484.293 298.945H498.812V296.945H484.293V298.945ZM497.812 297.945V306.945H499.812V297.945H497.812ZM498.812 305.945H484.293V307.945H498.812V305.945ZM483.293 306.945V357.945H485.293V306.945H483.293ZM484.293 356.945H474.092V358.945H484.293V356.945ZM475.092 357.945V306.945H473.092V357.945H475.092ZM474.092 305.945H466.293V307.945H474.092V305.945ZM467.293 306.945V297.945H465.293V306.945H467.293ZM466.293 298.945H474.092V296.945H466.293V298.945ZM475.092 297.945V287.145H473.092V297.945H475.092ZM475.092 287.145C475.092 283.262 476.19 280.341 478.28 278.252L476.865 276.838C474.315 279.389 473.092 282.868 473.092 287.145H475.092ZM478.292 278.24C480.403 276.056 483.133 274.945 486.573 274.945V272.945C482.652 272.945 479.382 274.234 476.854 276.85L478.292 278.24ZM486.573 274.945H500.013V272.945H486.573V274.945ZM499.013 273.945V282.945H501.013V273.945H499.013ZM500.013 281.945H488.492V283.945H500.013V281.945Z" fill="black"/>
<path d="M314.467 444.105C314.467 450.985 312.867 455.865 309.667 458.745C306.547 461.625 301.347 463.065 294.067 463.065H270.547V379.065H292.627C299.827 379.065 305.267 380.545 308.947 383.505C312.627 386.385 314.467 391.145 314.467 397.785V444.105ZM304.027 396.705C304.027 394.065 303.227 391.985 301.627 390.465C300.027 388.865 297.907 388.065 295.267 388.065H280.987V454.065H295.147C298.187 454.065 300.427 453.385 301.867 452.025C303.307 450.585 304.027 448.345 304.027 445.305V396.705ZM352.311 463.065C345.271 463.065 340.111 461.585 336.831 458.625C333.551 455.585 331.911 450.665 331.911 443.865V422.265C331.911 415.385 333.391 410.465 336.351 407.505C339.311 404.545 344.231 403.065 351.111 403.065H354.351C360.031 403.065 364.311 404.665 367.191 407.865C370.151 410.985 371.631 415.585 371.631 421.665V437.265H342.111V446.265C342.111 448.745 342.871 450.665 344.391 452.025C345.911 453.385 348.151 454.065 351.111 454.065H367.791V463.065H352.311ZM361.671 428.265V419.265C361.671 417.185 360.991 415.465 359.631 414.105C358.271 412.745 356.551 412.065 354.471 412.065H349.911C347.031 412.065 344.991 412.745 343.791 414.105C342.671 415.385 342.111 417.305 342.111 419.865V428.265H361.671ZM412.812 463.065H398.052L381.852 403.065H392.772L405.732 454.545L418.332 403.065H428.892L412.812 463.065Z" fill="black"/>
<path d="M309.667 458.745L308.998 458.002L308.989 458.01L309.667 458.745ZM270.547 463.065H269.547V464.065H270.547V463.065ZM270.547 379.065V378.065H269.547V379.065H270.547ZM308.947 383.505L308.32 384.284L308.331 384.293L308.947 383.505ZM301.627 390.465L300.92 391.172L300.929 391.181L300.938 391.19L301.627 390.465ZM280.987 388.065V387.065H279.987V388.065H280.987ZM280.987 454.065H279.987V455.065H280.987V454.065ZM301.867 452.025L302.554 452.752L302.564 452.742L302.574 452.732L301.867 452.025ZM313.467 444.105C313.467 450.867 311.89 455.399 308.998 458.002L310.336 459.488C313.845 456.331 315.467 451.103 315.467 444.105H313.467ZM308.989 458.01C306.147 460.633 301.262 462.065 294.067 462.065V464.065C301.433 464.065 306.947 462.617 310.345 459.48L308.989 458.01ZM294.067 462.065H270.547V464.065H294.067V462.065ZM271.547 463.065V379.065H269.547V463.065H271.547ZM270.547 380.065H292.627V378.065H270.547V380.065ZM292.627 380.065C299.713 380.065 304.89 381.525 308.32 384.284L309.574 382.726C305.644 379.565 299.941 378.065 292.627 378.065V380.065ZM308.331 384.293C311.679 386.913 313.467 391.316 313.467 397.785H315.467C315.467 390.974 313.576 385.857 309.563 382.717L308.331 384.293ZM313.467 397.785V444.105H315.467V397.785H313.467ZM305.027 396.705C305.027 393.849 304.153 391.485 302.316 389.74L300.938 391.19C302.301 392.485 303.027 394.281 303.027 396.705H305.027ZM302.334 389.758C300.515 387.939 298.125 387.065 295.267 387.065V389.065C297.69 389.065 299.539 389.791 300.92 391.172L302.334 389.758ZM295.267 387.065H280.987V389.065H295.267V387.065ZM279.987 388.065V454.065H281.987V388.065H279.987ZM280.987 455.065H295.147V453.065H280.987V455.065ZM295.147 455.065C298.31 455.065 300.85 454.361 302.554 452.752L301.181 451.298C300.004 452.409 298.064 453.065 295.147 453.065V455.065ZM302.574 452.732C304.277 451.03 305.027 448.481 305.027 445.305H303.027C303.027 448.209 302.337 450.14 301.16 451.318L302.574 452.732ZM305.027 445.305V396.705H303.027V445.305H305.027ZM336.831 458.625L336.151 459.358L336.161 459.367L336.831 458.625ZM336.351 407.505L335.644 406.798L336.351 407.505ZM367.191 407.865L366.448 408.534L366.457 408.544L366.466 408.553L367.191 407.865ZM371.631 437.265V438.265H372.631V437.265H371.631ZM342.111 437.265V436.265H341.111V437.265H342.111ZM344.391 452.025L345.058 451.28L344.391 452.025ZM367.791 454.065H368.791V453.065H367.791V454.065ZM367.791 463.065V464.065H368.791V463.065H367.791ZM361.671 428.265V429.265H362.671V428.265H361.671ZM359.631 414.105L360.338 413.398L359.631 414.105ZM343.791 414.105L343.041 413.443L343.039 413.446L343.791 414.105ZM342.111 428.265H341.111V429.265H342.111V428.265ZM352.311 462.065C345.379 462.065 340.515 460.602 337.501 457.883L336.161 459.367C339.707 462.568 345.163 464.065 352.311 464.065V462.065ZM337.511 457.892C334.521 455.12 332.911 450.531 332.911 443.865H330.911C330.911 450.799 332.581 456.05 336.151 459.358L337.511 457.892ZM332.911 443.865V422.265H330.911V443.865H332.911ZM332.911 422.265C332.911 415.488 334.376 410.895 337.058 408.212L335.644 406.798C332.407 410.035 330.911 415.282 330.911 422.265H332.911ZM337.058 408.212C339.741 405.53 344.334 404.065 351.111 404.065V402.065C344.128 402.065 338.882 403.56 335.644 406.798L337.058 408.212ZM351.111 404.065H354.351V402.065H351.111V404.065ZM354.351 404.065C359.843 404.065 363.813 405.607 366.448 408.534L367.935 407.196C364.809 403.723 360.219 402.065 354.351 402.065V404.065ZM366.466 408.553C369.188 411.423 370.631 415.735 370.631 421.665H372.631C372.631 415.435 371.115 410.547 367.917 407.177L366.466 408.553ZM370.631 421.665V437.265H372.631V421.665H370.631ZM371.631 436.265H342.111V438.265H371.631V436.265ZM341.111 437.265V446.265H343.111V437.265H341.111ZM341.111 446.265C341.111 448.963 341.947 451.18 343.724 452.77L345.058 451.28C343.795 450.15 343.111 448.527 343.111 446.265H341.111ZM343.724 452.77C345.496 454.355 348.015 455.065 351.111 455.065V453.065C348.288 453.065 346.327 452.415 345.058 451.28L343.724 452.77ZM351.111 455.065H367.791V453.065H351.111V455.065ZM366.791 454.065V463.065H368.791V454.065H366.791ZM367.791 462.065H352.311V464.065H367.791V462.065ZM362.671 428.265V419.265H360.671V428.265H362.671ZM362.671 419.265C362.671 416.944 361.902 414.962 360.338 413.398L358.924 414.812C360.08 415.968 360.671 417.426 360.671 419.265H362.671ZM360.338 413.398C358.775 411.834 356.793 411.065 354.471 411.065V413.065C356.31 413.065 357.768 413.656 358.924 414.812L360.338 413.398ZM354.471 411.065H349.911V413.065H354.471V411.065ZM349.911 411.065C346.91 411.065 344.519 411.769 343.041 413.443L344.541 414.767C345.464 413.721 347.152 413.065 349.911 413.065V411.065ZM343.039 413.446C341.695 414.982 341.111 417.181 341.111 419.865H343.111C343.111 417.429 343.647 415.788 344.544 414.764L343.039 413.446ZM341.111 419.865V428.265H343.111V419.865H341.111ZM342.111 429.265H361.671V427.265H342.111V429.265ZM412.812 463.065V464.065H413.579L413.778 463.324L412.812 463.065ZM398.052 463.065L397.086 463.326L397.286 464.065H398.052V463.065ZM381.852 403.065V402.065H380.546L380.886 403.326L381.852 403.065ZM392.772 403.065L393.742 402.821L393.551 402.065H392.772V403.065ZM405.732 454.545L404.762 454.789L406.703 454.783L405.732 454.545ZM418.332 403.065V402.065H417.547L417.361 402.827L418.332 403.065ZM428.892 403.065L429.858 403.324L430.195 402.065H428.892V403.065ZM412.812 462.065H398.052V464.065H412.812V462.065ZM399.017 462.804L382.817 402.804L380.886 403.326L397.086 463.326L399.017 462.804ZM381.852 404.065H392.772V402.065H381.852V404.065ZM391.802 403.309L404.762 454.789L406.702 454.301L393.742 402.821L391.802 403.309ZM406.703 454.783L419.303 403.303L417.361 402.827L404.761 454.307L406.703 454.783ZM418.332 404.065H428.892V402.065H418.332V404.065ZM427.926 402.806L411.846 462.806L413.778 463.324L429.858 403.324L427.926 402.806Z" fill="black"/>
</svg>
