<svg width="690" height="657" viewBox="0 0 690 657" fill="none" xmlns="http://www.w3.org/2000/svg">
<path d="M345 0L643.779 164.25V492.75L345 657L46.2212 492.75V164.25L345 0Z" fill="#FF0000"/>
<path d="M345 16.425L629.551 172.463V484.538L345 640.575L60.4489 484.538V172.463L345 16.425Z" fill="white"/>
<path d="M346.643 32.8501L616.966 180.675V476.325L346.643 624.15L76.3192 476.325V180.675L346.643 32.8501Z" fill="#171A21"/>
<path d="M345 65.7L586.869 197.1V459.9L345 591.3L103.132 459.9V197.1L345 65.7Z" fill="white"/>
<line y1="-0.5" x2="266.077" y2="-0.5" transform="matrix(-0.907632 0.419766 -0.419916 -0.907563 586.5 195.458)" stroke="black"/>
<line y1="-0.5" x2="267.569" y2="-0.5" transform="matrix(0.908711 0.417425 -0.417575 0.908642 103.5 197.1)" stroke="black"/>
<line x1="346.143" y1="591.3" x2="346.134" y2="307.148" stroke="black"/>
</svg>
