<svg width="170" height="162" viewBox="0 0 170 162" fill="none" xmlns="http://www.w3.org/2000/svg">
<path d="M85 0L158.612 40.5V121.5L85 162L11.3878 121.5V40.5L85 0Z" fill="#FF0000"/>
<path d="M85 4.05005L155.107 42.525V119.475L85 157.95L14.8932 119.475V42.525L85 4.05005Z" fill="black"/>
<path d="M85 16.2L144.591 48.6V113.4L85 145.8L25.4092 113.4V48.6L85 16.2Z" fill="white"/>
<line y1="-0.5" x2="65.5645" y2="-0.5" transform="matrix(-0.907503 0.420044 -0.419638 -0.907692 144.5 48.1949)" stroke="black"/>
<line y1="-0.5" x2="65.932" y2="-0.5" transform="matrix(0.908584 0.417703 -0.417298 0.90877 25.5 48.6)" stroke="black"/>
<line x1="84.9048" y1="145.8" x2="84.9024" y2="75.735" stroke="black"/>
<path d="M55.8922 88.37L52.4722 80.33L48.8722 88.37H46.0522L51.1522 77.51L46.5022 67.37H49.3522L52.5022 74.6L55.7422 67.37H58.5322L53.7922 77.48L58.8322 88.37H55.8922ZM70.842 88.37C70.582 88.37 70.292 88.29 69.972 88.13C69.672 87.97 69.412 87.75 69.192 87.47C68.732 88.07 68.122 88.37 67.362 88.37H65.292C63.772 88.37 62.662 88.07 61.962 87.47C61.282 86.85 60.942 85.8 60.942 84.32V83.72C60.942 80.62 62.402 79.07 65.322 79.07H68.442V77.57C68.442 76.95 68.252 76.47 67.872 76.13C67.492 75.79 66.932 75.62 66.192 75.62H62.142V73.37H65.892C67.632 73.37 68.912 73.75 69.732 74.51C70.572 75.27 70.992 76.49 70.992 78.17V85.37C70.992 85.67 71.102 85.9 71.322 86.06C71.562 86.2 71.952 86.27 72.492 86.27V88.37H70.842ZM67.062 86.12C67.662 86.12 68.042 85.98 68.202 85.7C68.362 85.42 68.442 85.06 68.442 84.62V81.32H65.292C64.772 81.32 64.342 81.49 64.002 81.83C63.662 82.17 63.492 82.6 63.492 83.12V84.62C63.492 85.14 63.612 85.52 63.852 85.76C64.092 86 64.472 86.12 64.992 86.12H67.062ZM76.0838 73.37H78.4838V74.09C79.1038 73.61 79.9038 73.37 80.8838 73.37H81.6638C83.2838 73.37 84.4838 73.75 85.2638 74.51C86.0638 75.27 86.4638 76.49 86.4638 78.17V88.37H83.9138V77.57C83.9138 76.97 83.7338 76.5 83.3738 76.16C83.0338 75.8 82.5638 75.62 81.9638 75.62H80.5838C79.9238 75.62 79.4338 75.8 79.1138 76.16C78.7938 76.5 78.6338 76.87 78.6338 77.27V88.37H76.0838V73.37ZM98.9431 87.68C98.2831 88.14 97.4831 88.37 96.5431 88.37H95.9131C94.1531 88.37 92.8631 88 92.0431 87.26C91.2231 86.5 90.8131 85.27 90.8131 83.57V78.17C90.8131 76.49 91.2231 75.27 92.0431 74.51C92.8831 73.75 94.1731 73.37 95.9131 73.37H98.7931V67.37H101.343V88.37H98.9431V87.68ZM96.8431 86.12C97.5031 86.12 97.9931 85.95 98.3131 85.61C98.6331 85.25 98.7931 84.87 98.7931 84.47V75.62H95.6131C94.8731 75.62 94.3131 75.79 93.9331 76.13C93.5531 76.47 93.3631 76.95 93.3631 77.57V84.17C93.3631 84.79 93.5531 85.27 93.9331 85.61C94.3131 85.95 94.8731 86.12 95.6131 86.12H96.8431ZM106.142 73.37H108.542V74.18C109.202 73.64 110.002 73.37 110.942 73.37H113.132V75.77H110.642C109.982 75.77 109.492 75.99 109.172 76.43C108.852 76.87 108.692 77.3 108.692 77.72V88.37H106.142V73.37ZM120.183 69.62C119.863 69.62 119.603 69.71 119.403 69.89C119.223 70.05 119.133 70.26 119.133 70.52V73.37H122.763V75.62H119.133V88.37H116.583V75.62H114.633V73.37H116.583V70.67C116.583 69.65 116.873 68.85 117.453 68.27C118.033 67.67 118.783 67.37 119.703 67.37H123.063V69.62H120.183Z" fill="black"/>
<path d="M55.8922 88.37L54.972 88.7614L55.2308 89.37H55.8922V88.37ZM52.4722 80.33L53.3924 79.9386L52.4957 77.8305L51.5595 79.9213L52.4722 80.33ZM48.8722 88.37V89.37H49.5201L49.7849 88.7787L48.8722 88.37ZM46.0522 88.37L45.147 87.9449L44.4778 89.37H46.0522V88.37ZM51.1522 77.51L52.0573 77.9351L52.2546 77.515L52.0612 77.0932L51.1522 77.51ZM46.5022 67.37V66.37H44.9435L45.5932 67.7868L46.5022 67.37ZM49.3522 67.37L50.269 66.9706L50.0073 66.37H49.3522V67.37ZM52.5022 74.6L51.5854 74.9994L52.4893 77.074L53.4147 75.0089L52.5022 74.6ZM55.7422 67.37V66.37H55.0945L54.8296 66.961L55.7422 67.37ZM58.5322 67.37L59.4376 67.7945L60.1055 66.37H58.5322V67.37ZM53.7922 77.48L52.8868 77.0555L52.689 77.4773L52.8847 77.9L53.7922 77.48ZM58.8322 88.37V89.37H60.3969L59.7397 87.95L58.8322 88.37ZM56.8124 87.9786L53.3924 79.9386L51.552 80.7214L54.972 88.7614L56.8124 87.9786ZM51.5595 79.9213L47.9595 87.9613L49.7849 88.7787L53.3849 80.7387L51.5595 79.9213ZM48.8722 87.37H46.0522V89.37H48.8722V87.37ZM46.9573 88.7951L52.0573 77.9351L50.247 77.0849L45.147 87.9449L46.9573 88.7951ZM52.0612 77.0932L47.4112 66.9532L45.5932 67.7868L50.2432 77.9268L52.0612 77.0932ZM46.5022 68.37H49.3522V66.37H46.5022V68.37ZM48.4354 67.7694L51.5854 74.9994L53.419 74.2006L50.269 66.9706L48.4354 67.7694ZM53.4147 75.0089L56.6547 67.7789L54.8296 66.961L51.5896 74.191L53.4147 75.0089ZM55.7422 68.37H58.5322V66.37H55.7422V68.37ZM57.6268 66.9455L52.8868 77.0555L54.6976 77.9045L59.4376 67.7945L57.6268 66.9455ZM52.8847 77.9L57.9247 88.79L59.7397 87.95L54.6997 77.06L52.8847 77.9ZM58.8322 87.37H55.8922V89.37H58.8322V87.37ZM69.972 88.13L69.5014 89.0123L69.513 89.0185L69.5248 89.0244L69.972 88.13ZM69.192 87.47L69.9783 86.8522L69.1823 85.8391L68.3984 86.8616L69.192 87.47ZM61.962 87.47L61.2883 88.209L61.2996 88.2193L61.3112 88.2293L61.962 87.47ZM68.442 79.07V80.07H69.442V79.07H68.442ZM67.872 76.13L68.5388 75.3848L68.5388 75.3848L67.872 76.13ZM62.142 75.62H61.142V76.62H62.142V75.62ZM62.142 73.37V72.37H61.142V73.37H62.142ZM69.732 74.51L69.0522 75.2435L69.0611 75.2515L69.732 74.51ZM71.322 86.06L70.7339 86.8687L70.7746 86.8984L70.8182 86.9238L71.322 86.06ZM72.492 86.27H73.492V85.27H72.492V86.27ZM72.492 88.37V89.37H73.492V88.37H72.492ZM68.202 85.7L67.3338 85.2039L67.3338 85.2039L68.202 85.7ZM68.442 81.32H69.442V80.32H68.442V81.32ZM64.002 81.83L63.2949 81.1229L63.2949 81.1229L64.002 81.83ZM63.852 85.76L63.1449 86.4671L63.1449 86.4671L63.852 85.76ZM70.842 87.37C70.7844 87.37 70.6498 87.3508 70.4192 87.2356L69.5248 89.0244C69.9343 89.2292 70.3797 89.37 70.842 89.37V87.37ZM70.4426 87.2476C70.2709 87.156 70.1167 87.0283 69.9783 86.8522L68.4057 88.0878C68.7073 88.4717 69.0732 88.784 69.5014 89.0123L70.4426 87.2476ZM68.3984 86.8616C68.1288 87.2132 67.8129 87.37 67.362 87.37V89.37C68.4311 89.37 69.3352 88.9268 69.9856 88.0784L68.3984 86.8616ZM67.362 87.37H65.292V89.37H67.362V87.37ZM65.292 87.37C63.8668 87.37 63.0461 87.0821 62.6128 86.7107L61.3112 88.2293C62.278 89.0579 63.6773 89.37 65.292 89.37V87.37ZM62.6358 86.731C62.2611 86.3894 61.942 85.6854 61.942 84.32H59.942C59.942 85.9146 60.303 87.3106 61.2883 88.209L62.6358 86.731ZM61.942 84.32V83.72H59.942V84.32H61.942ZM61.942 83.72C61.942 82.3097 62.2753 81.438 62.765 80.9182C63.2441 80.4095 64.032 80.07 65.322 80.07V78.07C63.6921 78.07 62.29 78.5055 61.3091 79.5468C60.3388 80.577 59.942 82.0303 59.942 83.72H61.942ZM65.322 80.07H68.442V78.07H65.322V80.07ZM69.442 79.07V77.57H67.442V79.07H69.442ZM69.442 77.57C69.442 76.7322 69.1759 75.9548 68.5388 75.3848L67.2052 76.8752C67.3281 76.9852 67.442 77.1678 67.442 77.57H69.442ZM68.5388 75.3848C67.9077 74.8201 67.0687 74.62 66.192 74.62V76.62C66.7953 76.62 67.0764 76.7599 67.2052 76.8752L68.5388 75.3848ZM66.192 74.62H62.142V76.62H66.192V74.62ZM63.142 75.62V73.37H61.142V75.62H63.142ZM62.142 74.37H65.892V72.37H62.142V74.37ZM65.892 74.37C67.5149 74.37 68.4968 74.7286 69.0523 75.2434L70.4118 73.7766C69.3273 72.7714 67.7491 72.37 65.892 72.37V74.37ZM69.0611 75.2515C69.6076 75.7459 69.992 76.6349 69.992 78.17H71.992C71.992 76.3451 71.5365 74.7941 70.4029 73.7685L69.0611 75.2515ZM69.992 78.17V85.37H71.992V78.17H69.992ZM69.992 85.37C69.992 85.9518 70.2257 86.4992 70.7339 86.8687L71.9102 85.2513C71.9157 85.2553 71.9274 85.2648 71.941 85.2809C71.9549 85.2973 71.9672 85.3163 71.9767 85.336C71.9965 85.3775 71.992 85.3969 71.992 85.37H69.992ZM70.8182 86.9238C71.2976 87.2035 71.9133 87.27 72.492 87.27V85.27C72.2616 85.27 72.0913 85.2548 71.9712 85.2332C71.8464 85.2108 71.8116 85.1879 71.8259 85.1962L70.8182 86.9238ZM71.492 86.27V88.37H73.492V86.27H71.492ZM72.492 87.37H70.842V89.37H72.492V87.37ZM67.062 87.12C67.7162 87.12 68.6203 86.9835 69.0703 86.1961L67.3338 85.2039C67.3625 85.1537 67.3976 85.1172 67.4268 85.0944C67.4539 85.0734 67.467 85.0709 67.4513 85.0767C67.4117 85.0912 67.2955 85.12 67.062 85.12V87.12ZM69.0703 86.1961C69.3424 85.7198 69.442 85.1733 69.442 84.62H67.442C67.442 84.9467 67.3816 85.1202 67.3338 85.2039L69.0703 86.1961ZM69.442 84.62V81.32H67.442V84.62H69.442ZM68.442 80.32H65.292V82.32H68.442V80.32ZM65.292 80.32C64.5307 80.32 63.8387 80.5791 63.2949 81.1229L64.7091 82.5371C64.8454 82.4009 65.0134 82.32 65.292 82.32V80.32ZM63.2949 81.1229C62.7512 81.6666 62.492 82.3586 62.492 83.12H64.492C64.492 82.8414 64.5729 82.6733 64.7091 82.5371L63.2949 81.1229ZM62.492 83.12V84.62H64.492V83.12H62.492ZM62.492 84.62C62.492 85.2669 62.6382 85.9604 63.1449 86.4671L64.5591 85.0529C64.5859 85.0796 64.492 85.013 64.492 84.62H62.492ZM63.1449 86.4671C63.6517 86.9738 64.3451 87.12 64.992 87.12V85.12C64.599 85.12 64.5324 85.0261 64.5591 85.0529L63.1449 86.4671ZM64.992 87.12H67.062V85.12H64.992V87.12ZM76.0838 73.37V72.37H75.0838V73.37H76.0838ZM78.4838 73.37H79.4838V72.37H78.4838V73.37ZM78.4838 74.09H77.4838V76.1289L79.096 74.8807L78.4838 74.09ZM85.2638 74.51L84.5659 75.2263L84.5751 75.235L85.2638 74.51ZM86.4638 88.37V89.37H87.4638V88.37H86.4638ZM83.9138 88.37H82.9138V89.37H83.9138V88.37ZM83.3738 76.16L82.6468 76.8466L82.6664 76.8674L82.6872 76.887L83.3738 76.16ZM79.1138 76.16L79.842 76.8454L79.8518 76.835L79.8612 76.8244L79.1138 76.16ZM78.6338 88.37V89.37H79.6338V88.37H78.6338ZM76.0838 88.37H75.0838V89.37H76.0838V88.37ZM76.0838 74.37H78.4838V72.37H76.0838V74.37ZM77.4838 73.37V74.09H79.4838V73.37H77.4838ZM79.096 74.8807C79.5008 74.5673 80.069 74.37 80.8838 74.37V72.37C79.7386 72.37 78.7068 72.6527 77.8717 73.2993L79.096 74.8807ZM80.8838 74.37H81.6638V72.37H80.8838V74.37ZM81.6638 74.37C83.1486 74.37 84.0466 74.7202 84.566 75.2262L85.9617 73.7938C84.9211 72.7798 83.419 72.37 81.6638 72.37V74.37ZM84.5751 75.235C85.0928 75.7268 85.4638 76.6223 85.4638 78.17H87.4638C87.4638 76.3577 87.0349 74.8132 85.9526 73.785L84.5751 75.235ZM85.4638 78.17V88.37H87.4638V78.17H85.4638ZM86.4638 87.37H83.9138V89.37H86.4638V87.37ZM84.9138 88.37V77.57H82.9138V88.37H84.9138ZM84.9138 77.57C84.9138 76.7576 84.6619 76.001 84.0605 75.433L82.6872 76.887C82.8058 76.999 82.9138 77.1824 82.9138 77.57H84.9138ZM84.1008 75.4734C83.5328 74.8719 82.7762 74.62 81.9638 74.62V76.62C82.3514 76.62 82.5349 76.7281 82.6468 76.8466L84.1008 75.4734ZM81.9638 74.62H80.5838V76.62H81.9638V74.62ZM80.5838 74.62C79.7484 74.62 78.9388 74.8517 78.3664 75.4956L79.8612 76.8244C79.9288 76.7483 80.0992 76.62 80.5838 76.62V74.62ZM78.3856 75.4746C77.9223 75.9669 77.6338 76.5731 77.6338 77.27H79.6338C79.6338 77.1669 79.6654 77.033 79.842 76.8454L78.3856 75.4746ZM77.6338 77.27V88.37H79.6338V77.27H77.6338ZM78.6338 87.37H76.0838V89.37H78.6338V87.37ZM77.0838 88.37V73.37H75.0838V88.37H77.0838ZM98.9431 87.68H99.9431V85.7641L98.3713 86.8596L98.9431 87.68ZM92.0431 87.26L91.3633 87.9935L91.3732 88.0024L92.0431 87.26ZM92.0431 74.51L91.3722 73.7684L91.3634 73.7766L92.0431 74.51ZM98.7931 73.37V74.37H99.7931V73.37H98.7931ZM98.7931 67.37V66.37H97.7931V67.37H98.7931ZM101.343 67.37H102.343V66.37H101.343V67.37ZM101.343 88.37V89.37H102.343V88.37H101.343ZM98.9431 88.37H97.9431V89.37H98.9431V88.37ZM98.3131 85.61L99.0413 86.2954L99.0511 86.285L99.0605 86.2744L98.3131 85.61ZM98.7931 75.62H99.7931V74.62H98.7931V75.62ZM93.9331 76.13L94.5999 76.8752L94.5999 76.8752L93.9331 76.13ZM93.9331 85.61L94.5999 84.8648L94.5999 84.8648L93.9331 85.61ZM98.3713 86.8596C97.906 87.1839 97.3141 87.37 96.5431 87.37V89.37C97.6522 89.37 98.6603 89.096 99.5149 88.5004L98.3713 86.8596ZM96.5431 87.37H95.9131V89.37H96.5431V87.37ZM95.9131 87.37C94.2611 87.37 93.267 87.0175 92.7131 86.5176L91.3732 88.0024C92.4592 88.9825 94.0451 89.37 95.9131 89.37V87.37ZM92.7229 86.5266C92.193 86.0355 91.8131 85.1357 91.8131 83.57H89.8131C89.8131 85.4043 90.2532 86.9645 91.3634 87.9934L92.7229 86.5266ZM91.8131 83.57V78.17H89.8131V83.57H91.8131ZM91.8131 78.17C91.8131 76.6286 92.1909 75.7364 92.7229 75.2434L91.3634 73.7766C90.2553 74.8035 89.8131 76.3514 89.8131 78.17H91.8131ZM92.714 75.2515C93.2933 74.7275 94.2929 74.37 95.9131 74.37V72.37C94.0534 72.37 92.473 72.7725 91.3722 73.7685L92.714 75.2515ZM95.9131 74.37H98.7931V72.37H95.9131V74.37ZM99.7931 73.37V67.37H97.7931V73.37H99.7931ZM98.7931 68.37H101.343V66.37H98.7931V68.37ZM100.343 67.37V88.37H102.343V67.37H100.343ZM101.343 87.37H98.9431V89.37H101.343V87.37ZM99.9431 88.37V87.68H97.9431V88.37H99.9431ZM96.8431 87.12C97.6624 87.12 98.4651 86.9076 99.0413 86.2954L97.5849 84.9246C97.5211 84.9924 97.3438 85.12 96.8431 85.12V87.12ZM99.0605 86.2744C99.5083 85.7706 99.7931 85.1628 99.7931 84.47H97.7931C97.7931 84.5772 97.7579 84.7294 97.5657 84.9456L99.0605 86.2744ZM99.7931 84.47V75.62H97.7931V84.47H99.7931ZM98.7931 74.62H95.6131V76.62H98.7931V74.62ZM95.6131 74.62C94.7364 74.62 93.8975 74.8201 93.2663 75.3848L94.5999 76.8752C94.7288 76.7599 95.0098 76.62 95.6131 76.62V74.62ZM93.2663 75.3848C92.6292 75.9548 92.3631 76.7322 92.3631 77.57H94.3631C94.3631 77.1678 94.477 76.9852 94.5999 76.8752L93.2663 75.3848ZM92.3631 77.57V84.17H94.3631V77.57H92.3631ZM92.3631 84.17C92.3631 85.0078 92.6292 85.7852 93.2663 86.3552L94.5999 84.8648C94.477 84.7548 94.3631 84.5722 94.3631 84.17H92.3631ZM93.2663 86.3552C93.8975 86.9199 94.7364 87.12 95.6131 87.12V85.12C95.0098 85.12 94.7288 84.9801 94.5999 84.8648L93.2663 86.3552ZM95.6131 87.12H96.8431V85.12H95.6131V87.12ZM106.142 73.37V72.37H105.142V73.37H106.142ZM108.542 73.37H109.542V72.37H108.542V73.37ZM108.542 74.18H107.542V76.2902L109.176 74.954L108.542 74.18ZM113.132 73.37H114.132V72.37H113.132V73.37ZM113.132 75.77V76.77H114.132V75.77H113.132ZM109.172 76.43L108.364 75.8418L108.364 75.8418L109.172 76.43ZM108.692 88.37V89.37H109.692V88.37H108.692ZM106.142 88.37H105.142V89.37H106.142V88.37ZM106.142 74.37H108.542V72.37H106.142V74.37ZM107.542 73.37V74.18H109.542V73.37H107.542ZM109.176 74.954C109.638 74.5753 110.208 74.37 110.942 74.37V72.37C109.797 72.37 108.766 72.7047 107.909 73.406L109.176 74.954ZM110.942 74.37H113.132V72.37H110.942V74.37ZM112.132 73.37V75.77H114.132V73.37H112.132ZM113.132 74.77H110.642V76.77H113.132V74.77ZM110.642 74.77C109.739 74.77 108.913 75.0867 108.364 75.8418L109.981 77.0182C110.072 76.8933 110.226 76.77 110.642 76.77V74.77ZM108.364 75.8418C107.956 76.4023 107.692 77.0338 107.692 77.72H109.692C109.692 77.5662 109.749 77.3377 109.981 77.0182L108.364 75.8418ZM107.692 77.72V88.37H109.692V77.72H107.692ZM108.692 87.37H106.142V89.37H108.692V87.37ZM107.142 88.37V73.37H105.142V88.37H107.142ZM119.403 69.89L120.067 70.6374L120.072 70.6333L119.403 69.89ZM119.133 73.37H118.133V74.37H119.133V73.37ZM122.763 73.37H123.763V72.37H122.763V73.37ZM122.763 75.62V76.62H123.763V75.62H122.763ZM119.133 75.62V74.62H118.133V75.62H119.133ZM119.133 88.37V89.37H120.133V88.37H119.133ZM116.583 88.37H115.583V89.37H116.583V88.37ZM116.583 75.62H117.583V74.62H116.583V75.62ZM114.633 75.62H113.633V76.62H114.633V75.62ZM114.633 73.37V72.37H113.633V73.37H114.633ZM116.583 73.37V74.37H117.583V73.37H116.583ZM117.453 68.27L118.16 68.9771L118.166 68.9711L118.172 68.965L117.453 68.27ZM123.063 67.37H124.063V66.37H123.063V67.37ZM123.063 69.62V70.62H124.063V69.62H123.063ZM120.183 68.62C119.665 68.62 119.151 68.7711 118.734 69.1467L120.072 70.6333C120.072 70.633 120.071 70.6336 120.07 70.6343C120.069 70.6349 120.07 70.6341 120.075 70.6325C120.084 70.6293 120.116 70.62 120.183 70.62V68.62ZM118.738 69.1426C118.326 69.5087 118.133 70 118.133 70.52H120.133C120.133 70.5068 120.135 70.5259 120.119 70.5614C120.103 70.5988 120.081 70.6251 120.067 70.6374L118.738 69.1426ZM118.133 70.52V73.37H120.133V70.52H118.133ZM119.133 74.37H122.763V72.37H119.133V74.37ZM121.763 73.37V75.62H123.763V73.37H121.763ZM122.763 74.62H119.133V76.62H122.763V74.62ZM118.133 75.62V88.37H120.133V75.62H118.133ZM119.133 87.37H116.583V89.37H119.133V87.37ZM117.583 88.37V75.62H115.583V88.37H117.583ZM116.583 74.62H114.633V76.62H116.583V74.62ZM115.633 75.62V73.37H113.633V75.62H115.633ZM114.633 74.37H116.583V72.37H114.633V74.37ZM117.583 73.37V70.67H115.583V73.37H117.583ZM117.583 70.67C117.583 69.8469 117.811 69.3262 118.16 68.9771L116.746 67.5629C115.935 68.3738 115.583 69.4531 115.583 70.67H117.583ZM118.172 68.965C118.543 68.5809 119.023 68.37 119.703 68.37V66.37C118.542 66.37 117.522 66.7591 116.734 67.575L118.172 68.965ZM119.703 68.37H123.063V66.37H119.703V68.37ZM122.063 67.37V69.62H124.063V67.37H122.063ZM123.063 68.62H120.183V70.62H123.063V68.62Z" fill="black"/>
<path d="M77.2953 109.55C77.2953 111.27 76.8953 112.49 76.0953 113.21C75.3153 113.93 74.0153 114.29 72.1953 114.29H66.3153V93.29H71.8353C73.6353 93.29 74.9953 93.66 75.9153 94.4C76.8353 95.12 77.2953 96.31 77.2953 97.97V109.55ZM74.6853 97.7C74.6853 97.04 74.4853 96.52 74.0853 96.14C73.6853 95.74 73.1553 95.54 72.4953 95.54H68.9253V112.04H72.4653C73.2253 112.04 73.7853 111.87 74.1453 111.53C74.5053 111.17 74.6853 110.61 74.6853 109.85V97.7ZM86.7564 114.29C84.9964 114.29 83.7064 113.92 82.8864 113.18C82.0664 112.42 81.6564 111.19 81.6564 109.49V104.09C81.6564 102.37 82.0264 101.14 82.7664 100.4C83.5064 99.66 84.7364 99.29 86.4564 99.29H87.2664C88.6864 99.29 89.7564 99.69 90.4764 100.49C91.2164 101.27 91.5864 102.42 91.5864 103.94V107.84H84.2064V110.09C84.2064 110.71 84.3964 111.19 84.7764 111.53C85.1564 111.87 85.7164 112.04 86.4564 112.04H90.6264V114.29H86.7564ZM89.0964 105.59V103.34C89.0964 102.82 88.9264 102.39 88.5864 102.05C88.2464 101.71 87.8164 101.54 87.2964 101.54H86.1564C85.4364 101.54 84.9264 101.71 84.6264 102.05C84.3464 102.37 84.2064 102.85 84.2064 103.49V105.59H89.0964ZM101.882 114.29H98.1915L94.1415 99.29H96.8715L100.112 112.16L103.262 99.29H105.902L101.882 114.29Z" fill="black"/>
<path d="M76.0953 113.21L75.4263 112.467L75.4171 112.475L76.0953 113.21ZM66.3153 114.29H65.3153V115.29H66.3153V114.29ZM66.3153 93.29V92.29H65.3153V93.29H66.3153ZM75.9153 94.4L75.2885 95.1793L75.299 95.1875L75.9153 94.4ZM74.0853 96.14L73.3782 96.8471L73.3873 96.8562L73.3966 96.865L74.0853 96.14ZM68.9253 95.54V94.54H67.9253V95.54H68.9253ZM68.9253 112.04H67.9253V113.04H68.9253V112.04ZM74.1453 111.53L74.832 112.257L74.8424 112.247L74.8524 112.237L74.1453 111.53ZM76.2953 109.55C76.2953 111.153 75.9177 112.025 75.4264 112.467L76.7643 113.953C77.873 112.956 78.2953 111.388 78.2953 109.55H76.2953ZM75.4171 112.475C74.9153 112.938 73.9298 113.29 72.1953 113.29V115.29C74.1009 115.29 75.7153 114.922 76.7736 113.945L75.4171 112.475ZM72.1953 113.29H66.3153V115.29H72.1953V113.29ZM67.3153 114.29V93.29H65.3153V114.29H67.3153ZM66.3153 94.29H71.8353V92.29H66.3153V94.29ZM71.8353 94.29C73.5213 94.29 74.6183 94.6401 75.2886 95.1793L76.5421 93.6208C75.3724 92.68 73.7494 92.29 71.8353 92.29V94.29ZM75.299 95.1875C75.8868 95.6475 76.2953 96.4815 76.2953 97.97H78.2953C78.2953 96.1386 77.7839 94.5925 76.5317 93.6125L75.299 95.1875ZM76.2953 97.97V109.55H78.2953V97.97H76.2953ZM75.6853 97.7C75.6853 96.824 75.4113 96.0204 74.7741 95.415L73.3966 96.865C73.5593 97.0196 73.6853 97.256 73.6853 97.7H75.6853ZM74.7924 95.4329C74.1737 94.8141 73.3728 94.54 72.4953 94.54V96.54C72.9379 96.54 73.197 96.6659 73.3782 96.8471L74.7924 95.4329ZM72.4953 94.54H68.9253V96.54H72.4953V94.54ZM67.9253 95.54V112.04H69.9253V95.54H67.9253ZM68.9253 113.04H72.4653V111.04H68.9253V113.04ZM72.4653 113.04C73.3481 113.04 74.2083 112.846 74.832 112.257L73.4587 110.803C73.3624 110.894 73.1026 111.04 72.4653 111.04V113.04ZM74.8524 112.237C75.4751 111.615 75.6853 110.746 75.6853 109.85H73.6853C73.6853 110.474 73.5356 110.726 73.4382 110.823L74.8524 112.237ZM75.6853 109.85V97.7H73.6853V109.85H75.6853ZM82.8864 113.18L82.2065 113.914L82.2164 113.922L82.8864 113.18ZM82.7664 100.4L82.0593 99.6929L82.0593 99.6929L82.7664 100.4ZM90.4764 100.49L89.7331 101.159L89.7419 101.169L89.7509 101.178L90.4764 100.49ZM91.5864 107.84V108.84H92.5864V107.84H91.5864ZM84.2064 107.84V106.84H83.2064V107.84H84.2064ZM84.7764 111.53L85.4432 110.785L85.4432 110.785L84.7764 111.53ZM90.6264 112.04H91.6264V111.04H90.6264V112.04ZM90.6264 114.29V115.29H91.6264V114.29H90.6264ZM89.0964 105.59V106.59H90.0964V105.59H89.0964ZM88.5864 102.05L89.2935 101.343L89.2935 101.343L88.5864 102.05ZM84.6264 102.05L83.8765 101.388L83.8738 101.392L84.6264 102.05ZM84.2064 105.59H83.2064V106.59H84.2064V105.59ZM86.7564 113.29C85.1044 113.29 84.1102 112.938 83.5563 112.438L82.2164 113.922C83.3025 114.903 84.8883 115.29 86.7564 115.29V113.29ZM83.5661 112.447C83.0363 111.956 82.6564 111.056 82.6564 109.49H80.6564C80.6564 111.324 81.0965 112.885 82.2066 113.913L83.5661 112.447ZM82.6564 109.49V104.09H80.6564V109.49H82.6564ZM82.6564 104.09C82.6564 102.473 83.011 101.57 83.4735 101.107L82.0593 99.6929C81.0418 100.71 80.6564 102.267 80.6564 104.09H82.6564ZM83.4735 101.107C83.936 100.645 84.8392 100.29 86.4564 100.29V98.29C84.6335 98.29 83.0767 98.6754 82.0593 99.6929L83.4735 101.107ZM86.4564 100.29H87.2664V98.29H86.4564V100.29ZM87.2664 100.29C88.4984 100.29 89.2584 100.632 89.7331 101.159L91.2197 99.8211C90.2544 98.7485 88.8744 98.29 87.2664 98.29V100.29ZM89.7509 101.178C90.253 101.708 90.5864 102.57 90.5864 103.94H92.5864C92.5864 102.27 92.1797 100.833 91.2018 99.8018L89.7509 101.178ZM90.5864 103.94V107.84H92.5864V103.94H90.5864ZM91.5864 106.84H84.2064V108.84H91.5864V106.84ZM83.2064 107.84V110.09H85.2064V107.84H83.2064ZM83.2064 110.09C83.2064 110.928 83.4725 111.705 84.1096 112.275L85.4432 110.785C85.3202 110.675 85.2064 110.492 85.2064 110.09H83.2064ZM84.1096 112.275C84.7407 112.84 85.5797 113.04 86.4564 113.04V111.04C85.853 111.04 85.572 110.9 85.4432 110.785L84.1096 112.275ZM86.4564 113.04H90.6264V111.04H86.4564V113.04ZM89.6264 112.04V114.29H91.6264V112.04H89.6264ZM90.6264 113.29H86.7564V115.29H90.6264V113.29ZM90.0964 105.59V103.34H88.0964V105.59H90.0964ZM90.0964 103.34C90.0964 102.579 89.8372 101.887 89.2935 101.343L87.8793 102.757C88.0155 102.893 88.0964 103.061 88.0964 103.34H90.0964ZM89.2935 101.343C88.7497 100.799 88.0577 100.54 87.2964 100.54V102.54C87.575 102.54 87.743 102.621 87.8793 102.757L89.2935 101.343ZM87.2964 100.54H86.1564V102.54H87.2964V100.54ZM86.1564 100.54C85.3155 100.54 84.4539 100.734 83.8765 101.388L85.3762 102.712C85.3988 102.686 85.5572 102.54 86.1564 102.54V100.54ZM83.8738 101.392C83.3706 101.967 83.2064 102.726 83.2064 103.49H85.2064C85.2064 102.974 85.3222 102.773 85.3789 102.709L83.8738 101.392ZM83.2064 103.49V105.59H85.2064V103.49H83.2064ZM84.2064 106.59H89.0964V104.59H84.2064V106.59ZM101.882 114.29V115.29H102.649L102.847 114.549L101.882 114.29ZM98.1915 114.29L97.2261 114.551L97.4257 115.29H98.1915V114.29ZM94.1415 99.29V98.29H92.8357L93.1761 99.5507L94.1415 99.29ZM96.8715 99.29L97.8413 99.0459L97.651 98.29H96.8715V99.29ZM100.112 112.16L99.1418 112.404L101.083 112.398L100.112 112.16ZM103.262 99.29V98.29H102.477L102.29 99.0523L103.262 99.29ZM105.902 99.29L106.867 99.5489L107.205 98.29H105.902V99.29ZM101.882 113.29H98.1915V115.29H101.882V113.29ZM99.1569 114.029L95.1069 99.0294L93.1761 99.5507L97.2261 114.551L99.1569 114.029ZM94.1415 100.29H96.8715V98.29H94.1415V100.29ZM95.9018 99.5342L99.1418 112.404L101.081 111.916L97.8413 99.0459L95.9018 99.5342ZM101.083 112.398L104.233 99.5278L102.29 99.0523L99.1402 111.922L101.083 112.398ZM103.262 100.29H105.902V98.29H103.262V100.29ZM104.936 99.0312L100.916 114.031L102.847 114.549L106.867 99.5489L104.936 99.0312Z" fill="black"/>
</svg>
